<?xml version="1.0" standalone="no"?>
<!DOCTYPE svg PUBLIC "-//W3C//DTD SVG 20010904//EN"
 "http://www.w3.org/TR/2001/REC-SVG-20010904/DTD/svg10.dtd">
<svg version="1.0" xmlns="http://www.w3.org/2000/svg"
 width="956.000000pt" height="446.000000pt" viewBox="0 0 956.000000 446.000000"
 preserveAspectRatio="xMidYMid meet">

<g transform="translate(0.000000,446.000000) scale(0.100000,-0.100000)"
fill="#000000" stroke="none">
<path d="M111 4348 c0 -33 0 -33 16 -10 8 12 24 22 34 22 17 0 19 -9 19 -89 0
-62 -4 -91 -12 -94 -7 -3 10 -6 37 -6 39 0 46 2 33 10 -15 8 -18 25 -18 94 0
82 1 85 23 85 15 0 28 -9 35 -22 10 -22 11 -21 11 10 l1 32 -90 0 -90 0 1 -32z"/>
<path d="M415 4370 c-3 -5 -2 -10 4 -10 6 0 11 -38 13 -92 3 -89 4 -93 27 -96
44 -7 72 7 87 44 12 29 13 39 2 62 -11 22 -20 27 -51 27 -36 0 -37 1 -37 38 0
30 -4 37 -19 37 -11 0 -23 -4 -26 -10z m106 -112 c9 -34 -11 -73 -36 -73 -16
0 -21 8 -23 39 -4 51 3 68 30 64 14 -2 24 -13 29 -30z"/>
<path d="M580 4370 c-10 -6 -11 -10 -2 -10 9 0 12 -25 12 -89 0 -62 -4 -91
-12 -94 -7 -3 5 -6 27 -6 30 -1 36 2 27 11 -8 8 -12 46 -12 105 0 95 -5 106
-40 83z"/>
<path d="M927 4312 c-26 -38 -47 -74 -47 -80 0 -7 18 -12 45 -12 41 0 45 -2
45 -25 0 -14 5 -25 10 -25 6 0 10 11 10 25 0 16 6 25 15 25 8 0 15 4 15 9 0 5
-7 11 -15 15 -11 4 -15 22 -15 71 0 36 -4 65 -8 65 -5 0 -30 -31 -55 -68z m41
-24 c-3 -41 -5 -43 -37 -46 -18 -2 -32 0 -30 5 10 22 55 83 62 83 5 0 7 -19 5
-42z"/>
<path d="M1258 4368 c17 -17 16 -185 0 -191 -7 -3 7 -6 32 -6 28 0 40 3 32 8
-9 5 -12 23 -10 51 l3 44 40 -52 c30 -40 45 -52 65 -52 27 0 26 1 -17 47 l-43
47 26 14 c34 18 31 71 -6 89 -34 17 -139 18 -122 1z m111 -26 c13 -24 -12 -62
-40 -62 -16 0 -19 7 -19 40 0 36 3 40 25 40 13 0 29 -8 34 -18z"/>
<path d="M1875 4370 c-3 -5 -1 -10 4 -10 16 0 14 -163 -1 -178 -9 -9 -3 -12
28 -11 21 0 33 3 27 6 -9 3 -13 34 -13 104 0 91 -2 99 -19 99 -11 0 -23 -4
-26 -10z"/>
<path d="M2442 4368 c-7 -7 -12 -20 -12 -30 0 -9 -8 -22 -17 -27 -17 -10 -17
-10 0 -11 14 0 17 -9 17 -49 0 -32 -6 -55 -16 -65 -14 -15 -11 -16 28 -16 34
1 39 3 26 11 -14 8 -18 23 -18 64 0 50 2 55 23 56 l22 0 -22 9 c-24 10 -29 26
-13 50 7 12 12 12 22 2 16 -16 28 -15 28 3 0 18 -50 21 -68 3z"/>
<path d="M2603 4369 c14 -8 17 -25 17 -94 0 -69 -3 -86 -17 -94 -14 -8 -7 -10
32 -10 39 0 46 2 33 10 -19 11 -26 79 -9 79 5 0 26 -20 47 -45 25 -32 44 -45
61 -45 25 0 24 1 -17 46 l-42 45 26 24 c37 34 33 60 -11 84 -28 14 -146 15
-120 0z m105 -21 c18 -18 14 -46 -7 -58 -38 -20 -51 -13 -51 30 0 35 3 40 23
40 13 0 28 -5 35 -12z"/>
<path d="M3145 4371 c-7 -12 12 -24 25 -16 11 7 4 25 -10 25 -5 0 -11 -4 -15
-9z"/>
<path d="M4110 4370 c-10 -6 -11 -10 -2 -10 6 0 12 -11 12 -25 0 -21 -5 -25
-28 -25 -16 0 -37 -9 -46 -19 -21 -23 -24 -84 -6 -106 13 -16 98 -19 121 -4
10 6 11 9 2 9 -10 0 -13 26 -13 95 0 97 -5 108 -40 85z m5 -125 c0 -43 -3 -50
-21 -53 -16 -2 -24 4 -32 28 -15 43 0 83 31 78 19 -3 22 -9 22 -53z"/>
<path d="M4326 4359 c-48 -38 -53 -120 -9 -164 30 -29 95 -34 130 -10 52 37
51 144 -2 179 -34 22 -87 20 -119 -5z m99 -14 c33 -32 35 -100 4 -139 -54 -68
-125 10 -98 108 16 58 55 71 94 31z"/>
<path d="M4695 4371 c-3 -5 -1 -12 5 -16 5 -3 10 -15 10 -25 0 -14 -7 -18 -32
-18 -39 1 -68 -31 -68 -77 0 -48 27 -68 87 -61 26 2 49 5 51 5 1 1 -2 10 -8
20 -5 11 -10 56 -10 100 0 64 -3 81 -14 81 -8 0 -17 -4 -21 -9z m4 -85 c7 -8
11 -32 9 -53 -3 -43 -32 -58 -55 -27 -36 49 9 125 46 80z"/>
<path d="M5090 4348 c0 -32 0 -32 16 -10 8 12 24 22 35 22 17 0 19 -7 19 -85
0 -69 -3 -86 -17 -94 -14 -8 -5 -10 37 -10 30 1 47 3 38 6 -16 4 -18 17 -18
94 0 81 2 89 19 89 11 0 27 -10 35 -22 16 -22 16 -22 16 10 l0 32 -90 0 -90 0
0 -32z"/>
<path d="M5515 4370 c-3 -5 -1 -10 4 -10 16 0 15 -177 -1 -183 -7 -3 5 -5 27
-5 22 0 34 2 28 5 -7 2 -13 18 -13 35 l0 31 20 -26 c11 -14 20 -30 20 -36 0
-6 14 -11 31 -11 l31 0 -36 37 c-20 21 -36 43 -36 50 0 7 15 22 33 33 29 18
30 20 9 20 -13 0 -34 -12 -47 -27 l-24 -28 -1 63 c0 55 -2 62 -19 62 -11 0
-23 -4 -26 -10z"/>
<path d="M5924 4362 c-45 -36 -56 -90 -29 -142 31 -59 107 -69 156 -21 65 65
21 181 -68 181 -21 0 -48 -8 -59 -18z m86 -2 c27 -15 42 -76 29 -122 -11 -42
-39 -63 -73 -54 -50 12 -64 119 -21 161 27 28 37 30 65 15z"/>
<path d="M6915 4370 c-3 -5 -1 -10 4 -10 16 0 14 -163 -1 -178 -9 -9 -3 -12
28 -12 25 0 34 3 26 9 -21 13 -27 84 -8 100 27 23 46 6 46 -42 0 -24 -5 -48
-12 -55 -9 -9 -3 -12 28 -11 21 0 33 3 27 6 -8 3 -13 24 -13 56 0 69 -9 81
-54 74 l-36 -6 0 40 c0 27 -4 39 -14 39 -8 0 -18 -4 -21 -10z"/>
<path d="M7305 4370 c-3 -5 -1 -10 4 -10 6 0 11 -11 11 -25 0 -21 -5 -25 -29
-25 -54 0 -87 -61 -60 -109 12 -22 23 -26 59 -27 39 -1 107 14 73 15 -10 1
-13 27 -13 96 0 87 -2 95 -19 95 -11 0 -23 -4 -26 -10z m10 -125 c0 -47 -2
-50 -25 -50 -18 0 -27 7 -34 27 -14 39 7 80 37 76 19 -3 22 -9 22 -53z"/>
<path d="M7461 4348 c0 -33 0 -33 16 -10 8 12 24 22 34 22 17 0 19 -9 19 -89
0 -62 -4 -91 -12 -94 -7 -3 10 -6 37 -6 39 0 46 2 33 10 -15 8 -18 25 -18 94
0 82 1 85 23 85 15 0 28 -9 35 -22 10 -22 11 -21 11 10 l1 32 -90 0 -90 0 1
-32z"/>
<path d="M1967 4325 c-10 -15 -13 -26 -7 -30 5 -3 10 -33 10 -66 0 -59 0 -60
27 -57 29 3 45 27 16 24 -15 -1 -19 8 -21 52 -3 48 -1 52 20 53 21 0 21 1 4 8
-11 4 -22 15 -25 23 -5 13 -9 12 -24 -7z"/>
<path d="M2961 4330 c-8 -14 -14 -47 -12 -75 4 -83 3 -83 79 -84 38 0 61 3 54
8 -9 5 -12 24 -10 57 3 48 3 48 41 51 l37 2 0 -49 c0 -36 -5 -52 -17 -59 -14
-8 -8 -10 27 -10 25 0 39 3 33 6 -9 3 -13 27 -13 70 l0 66 -30 -6 c-16 -4 -32
-2 -35 3 -4 6 -13 7 -23 1 -9 -4 -22 -6 -29 -4 -7 2 -20 0 -30 -6 -10 -6 -12
-11 -5 -11 15 0 17 -110 2 -110 -5 0 -10 4 -10 9 0 5 -8 8 -17 7 -15 -1 -19 9
-21 51 -2 43 0 52 15 56 16 4 16 5 1 6 -9 0 -18 11 -20 24 l-3 22 -14 -25z"/>
<path d="M6841 4326 c-14 -14 -19 -26 -13 -26 8 0 12 -21 12 -60 0 -64 12 -80
48 -65 16 8 16 8 0 12 -14 4 -18 15 -18 58 0 43 4 54 18 58 15 4 15 5 0 6 -9
0 -18 10 -20 22 -3 20 -4 20 -27 -5z"/>
<path d="M320 4311 c-28 -8 -41 -41 -16 -41 9 0 16 7 16 16 0 20 34 14 38 -7
2 -10 -8 -21 -27 -29 -40 -16 -54 -34 -46 -59 5 -17 14 -20 60 -18 29 1 57 6
61 10 4 4 2 7 -4 7 -6 0 -12 22 -14 51 -3 59 -25 81 -68 70z m40 -86 c0 -28
-25 -44 -42 -27 -9 9 -7 17 7 32 24 27 35 25 35 -5z"/>
<path d="M710 4312 c-48 -16 -69 -92 -34 -126 21 -22 67 -20 87 2 24 27 21 35
-7 17 -26 -18 -52 -11 -67 16 -15 29 -3 39 47 39 41 0 44 1 34 20 -13 24 -40
39 -60 32z m28 -29 c2 -9 -7 -13 -28 -13 -28 0 -31 2 -20 15 15 18 41 16 48
-2z"/>
<path d="M1498 4308 c-61 -21 -55 -138 7 -138 34 0 54 10 66 32 10 19 10 19
-15 3 -24 -16 -28 -16 -51 -1 -14 9 -25 25 -25 36 0 17 7 20 46 20 37 0 45 3
42 16 -5 27 -39 43 -70 32z m36 -23 c4 -11 -2 -15 -24 -15 -22 0 -28 4 -24 15
4 8 14 15 24 15 10 0 20 -7 24 -15z"/>
<path d="M2839 4306 c-34 -17 -48 -76 -25 -110 21 -33 67 -35 96 -4 24 26 18
38 -8 15 -24 -22 -35 -21 -55 1 -31 35 -22 52 28 52 32 0 45 4 45 14 0 30 -48
49 -81 32z m41 -21 c11 -13 8 -15 -19 -15 -30 0 -39 9 -24 23 11 11 30 8 43
-8z"/>
<path d="M3249 4306 c-34 -17 -48 -76 -25 -110 21 -33 67 -35 96 -4 24 26 18
38 -8 15 -24 -22 -35 -21 -55 1 -31 35 -22 52 28 52 32 0 45 4 45 14 0 30 -48
49 -81 32z m41 -21 c11 -13 8 -15 -19 -15 -30 0 -39 9 -24 23 11 11 30 8 43
-8z"/>
<path d="M3529 4306 c-34 -17 -48 -76 -25 -110 21 -33 67 -35 96 -4 24 26 18
38 -8 15 -24 -22 -35 -21 -55 1 -31 35 -22 52 28 52 32 0 45 4 45 14 0 30 -48
49 -81 32z m41 -21 c11 -13 8 -15 -19 -15 -30 0 -39 9 -24 23 11 11 30 8 43
-8z"/>
<path d="M3770 4307 c-28 -14 -38 -37 -16 -37 9 0 16 7 16 15 0 8 9 15 20 15
34 0 24 -34 -16 -53 -29 -14 -35 -22 -32 -45 3 -25 6 -27 56 -28 29 -1 55 3
58 7 3 5 1 9 -5 9 -5 0 -11 25 -13 56 -2 47 -7 58 -24 65 -12 4 -31 2 -44 -4z
m36 -103 c-8 -21 -36 -17 -36 6 0 24 33 46 38 24 2 -8 1 -22 -2 -30z"/>
<path d="M4570 4310 c-7 -4 -19 -6 -26 -3 -7 2 -21 0 -31 -6 -10 -6 -12 -11
-5 -11 8 0 12 -18 12 -54 0 -34 -5 -56 -12 -59 -7 -3 5 -6 27 -6 25 0 35 2 27
8 -9 5 -12 25 -10 57 3 44 5 49 26 47 13 -2 22 3 22 12 0 19 -13 26 -30 15z"/>
<path d="M4799 4306 c-34 -17 -48 -76 -25 -110 21 -33 67 -35 96 -4 24 26 18
38 -8 15 -24 -22 -35 -21 -55 1 -31 35 -22 52 28 52 32 0 45 4 45 14 0 30 -48
49 -81 32z m41 -21 c11 -13 8 -15 -19 -15 -30 0 -39 9 -24 23 11 11 30 8 43
-8z"/>
<path d="M5293 4310 c-13 -5 -23 -16 -23 -25 0 -20 17 -19 28 2 6 10 16 14 26
10 24 -10 19 -36 -8 -43 -32 -8 -59 -38 -54 -61 3 -15 14 -18 61 -20 31 -1 59
3 63 8 3 5 1 9 -4 9 -5 0 -12 23 -14 52 -4 34 -12 56 -24 65 -20 15 -21 15
-51 3z m45 -87 c-3 -32 -35 -44 -45 -17 -4 11 1 22 12 30 28 21 37 17 33 -13z"/>
<path d="M6320 4310 c-7 -4 -19 -6 -26 -3 -7 2 -21 0 -31 -6 -10 -6 -12 -11
-5 -11 8 0 12 -18 12 -54 0 -34 -5 -56 -12 -59 -7 -3 5 -6 27 -6 25 0 35 2 27
8 -9 5 -12 25 -10 57 3 44 5 49 26 47 13 -2 22 3 22 12 0 19 -13 26 -30 15z"/>
<path d="M6733 4309 c-68 -25 -52 -139 19 -139 24 0 67 35 56 45 -3 3 -11 -1
-18 -10 -7 -8 -18 -15 -26 -15 -19 0 -44 29 -44 51 0 16 7 19 45 19 47 0 53 6
33 32 -18 21 -39 27 -65 17z m35 -26 c2 -8 -6 -13 -22 -13 -25 0 -33 10 -19
24 10 10 36 3 41 -11z"/>
<path d="M7710 4310 c-7 -4 -19 -6 -27 -3 -7 3 -21 2 -30 -1 -12 -5 -14 -9 -5
-18 16 -16 15 -91 0 -106 -9 -9 -3 -12 28 -12 24 0 34 3 26 9 -9 5 -12 25 -10
57 2 41 6 49 22 49 20 0 33 19 19 28 -5 3 -15 2 -23 -3z"/>
<path d="M7783 4310 c-13 -5 -23 -16 -23 -25 0 -20 17 -19 28 2 6 10 16 14 26
10 24 -10 19 -36 -8 -43 -32 -8 -59 -38 -54 -61 3 -16 15 -18 103 -20 55 -1
94 1 87 6 -9 5 -12 24 -10 57 3 41 6 49 23 49 16 0 21 -8 23 -43 2 -24 -2 -50
-9 -58 -10 -12 -5 -14 27 -13 22 0 33 3 27 6 -8 3 -13 24 -13 56 0 29 -4 57
-8 64 -9 14 -109 16 -118 2 -3 -5 0 -9 5 -9 13 0 15 -96 3 -104 -17 -10 -29
11 -35 58 -3 32 -12 55 -23 63 -20 15 -21 15 -51 3z m45 -87 c-3 -32 -35 -44
-45 -17 -4 11 1 22 12 30 28 21 37 17 33 -13z"/>
<path d="M1605 4299 c-13 -19 4 -54 35 -72 34 -20 38 -35 13 -44 -10 -4 -23 2
-35 16 l-18 23 0 -26 c0 -26 2 -27 43 -24 36 3 42 7 45 27 3 18 -6 33 -35 57
-34 29 -36 33 -19 40 13 5 23 1 32 -11 13 -18 14 -18 14 3 0 18 -6 22 -34 22
-19 0 -38 -5 -41 -11z"/>
<path d="M1718 4297 c6 -7 12 -37 14 -67 3 -49 6 -55 26 -58 13 -2 29 1 37 8
9 8 14 8 17 0 2 -6 10 -9 18 -5 12 4 14 20 12 70 -4 62 -5 65 -29 65 -21 0
-23 -3 -14 -14 18 -21 10 -87 -12 -100 -24 -15 -37 7 -37 67 0 41 -3 47 -21
47 -16 0 -19 -3 -11 -13z"/>
<path d="M2050 4289 c-10 -17 -6 -25 24 -53 20 -18 36 -38 36 -44 0 -20 -37
-13 -53 11 l-16 22 0 -27 c-1 -26 2 -28 38 -28 67 0 81 54 20 85 -31 17 -39
45 -13 45 9 0 23 -8 30 -17 12 -17 13 -16 14 5 0 19 -5 22 -35 22 -24 0 -37
-6 -45 -21z"/>
<path d="M2267 4292 c-21 -23 -22 -71 -1 -100 20 -29 74 -30 99 -2 22 24 25
81 6 104 -19 22 -83 21 -104 -2z m73 -7 c15 -18 16 -83 1 -98 -28 -28 -70 37
-57 87 7 29 36 35 56 11z"/>
<path d="M3377 4243 c18 -38 35 -67 39 -66 4 1 19 31 34 67 26 61 27 66 9 66
-11 0 -16 -5 -13 -13 2 -7 -2 -29 -10 -48 l-15 -34 -16 38 c-8 21 -13 42 -10
47 4 6 -7 10 -23 10 l-28 0 33 -67z"/>
<path d="M3875 4299 c-3 -4 -1 -10 5 -14 14 -9 13 -88 -2 -103 -9 -9 -5 -12
21 -12 28 0 31 2 22 14 -7 8 -11 34 -9 58 3 38 6 43 28 43 22 0 25 -5 28 -43
2 -24 -2 -50 -9 -58 -9 -12 -6 -14 20 -14 23 0 30 3 24 13 -4 6 -10 37 -13 67
l-5 55 -53 1 c-29 1 -55 -2 -57 -7z"/>
<path d="M4898 4299 c-10 -7 -10 -9 0 -9 8 0 12 -18 12 -54 0 -34 -5 -56 -12
-59 -7 -3 7 -6 32 -6 35 0 41 2 28 10 -12 7 -18 22 -18 47 0 45 11 65 35 60
10 -2 20 2 22 9 5 13 -78 15 -99 2z"/>
<path d="M5412 4298 c-20 -20 -14 -35 23 -64 39 -29 43 -41 18 -51 -10 -4 -23
2 -35 16 l-18 23 0 -26 c0 -24 4 -26 40 -26 64 0 76 50 19 84 -31 19 -39 46
-13 46 9 0 23 -8 30 -17 12 -17 13 -16 14 5 0 18 -5 22 -33 22 -18 0 -38 -5
-45 -12z"/>
<path d="M6108 4297 c6 -7 12 -37 14 -67 3 -49 6 -55 26 -58 13 -2 29 1 37 8
9 8 14 8 17 0 2 -6 10 -9 18 -5 12 4 14 20 12 70 -4 62 -5 65 -29 65 -21 0
-23 -3 -14 -14 18 -21 10 -87 -12 -100 -24 -15 -37 7 -37 67 0 41 -3 47 -21
47 -16 0 -19 -3 -11 -13z"/>
<path d="M6455 4300 c-2 -3 0 -12 6 -20 14 -23 10 -77 -7 -94 -14 -15 -12 -16
22 -16 30 0 35 3 26 12 -20 20 -15 96 6 107 13 7 23 6 30 -1 16 -16 15 -91 0
-106 -9 -9 -3 -12 28 -11 21 0 33 3 27 6 -20 8 -17 109 3 117 9 3 20 4 25 0
14 -8 11 -111 -3 -117 -7 -3 5 -5 27 -5 22 0 34 2 28 5 -8 3 -13 24 -13 53 0
27 -3 55 -6 64 -7 18 -59 22 -69 6 -4 -7 -11 -8 -18 -1 -13 10 -105 12 -112 1z"/>
<path d="M7087 4292 c-21 -23 -22 -71 -1 -100 20 -29 74 -30 99 -2 22 24 25
81 6 104 -19 22 -83 21 -104 -2z m73 -7 c15 -18 16 -83 1 -98 -28 -28 -70 37
-57 87 7 29 36 35 56 11z"/>
<path d="M8050 4289 c-10 -17 -6 -25 24 -53 20 -18 36 -38 36 -44 0 -20 -37
-13 -53 11 l-16 22 0 -27 c-1 -26 2 -28 38 -28 67 0 81 54 20 85 -31 17 -39
45 -13 45 9 0 23 -8 30 -17 12 -17 13 -16 14 5 0 19 -5 22 -35 22 -24 0 -37
-6 -45 -21z"/>
<path d="M3630 4240 c0 -5 18 -10 40 -10 22 0 40 5 40 10 0 6 -18 10 -40 10
-22 0 -40 -4 -40 -10z"/>
<path d="M4180 4240 c0 -5 18 -10 40 -10 22 0 40 5 40 10 0 6 -18 10 -40 10
-22 0 -40 -4 -40 -10z"/>
<path d="M8160 4240 c0 -5 18 -10 40 -10 22 0 40 5 40 10 0 6 -18 10 -40 10
-22 0 -40 -4 -40 -10z"/>
<path d="M1057 4194 c-9 -10 2 -24 19 -24 8 0 14 7 14 15 0 15 -21 21 -33 9z"/>
<path d="M5687 4194 c-9 -10 2 -24 19 -24 8 0 14 7 14 15 0 15 -21 21 -33 9z"/>
<path d="M111 3978 c0 -33 0 -33 16 -10 8 12 24 22 34 22 17 0 19 -9 19 -89 0
-62 -4 -91 -12 -94 -7 -3 10 -6 37 -6 39 0 46 2 33 10 -15 8 -18 25 -18 94 0
82 1 85 23 85 15 0 28 -9 35 -22 10 -22 11 -21 11 10 l1 32 -90 0 -90 0 1 -32z"/>
<path d="M475 3905 c27 -58 52 -105 55 -105 3 0 18 35 34 78 16 42 37 89 48
105 l19 27 -38 -1 c-21 0 -32 -3 -25 -6 18 -7 14 -41 -11 -97 l-23 -49 -28 67
c-24 56 -27 69 -15 77 10 6 1 9 -26 9 l-40 0 50 -105z"/>
<path d="M642 3998 c6 -18 28 -21 28 -4 0 9 -7 16 -16 16 -9 0 -14 -5 -12 -12z"/>
<path d="M742 3998 c-26 -26 -14 -64 34 -103 32 -27 44 -43 42 -59 -5 -32 -43
-33 -73 0 l-25 27 0 -30 c0 -29 1 -30 55 -32 48 -1 56 1 70 23 23 34 12 60
-41 96 -43 30 -58 64 -31 73 19 6 54 -13 65 -37 10 -19 11 -17 11 15 l1 36
-48 2 c-26 0 -53 -4 -60 -11z"/>
<path d="M1786 3988 c-9 -12 -16 -28 -16 -35 0 -8 -11 -13 -27 -13 -42 1 -92
-5 -99 -13 -4 -4 -2 -7 4 -7 17 0 16 -107 0 -113 -7 -3 7 -6 31 -6 39 -1 43 1
27 12 -13 10 -17 24 -14 57 3 40 6 45 26 43 12 -2 22 2 22 7 0 6 7 10 15 10
20 0 22 -116 3 -123 -7 -3 7 -6 32 -6 35 0 41 2 28 10 -14 8 -18 23 -18 64 0
48 2 54 23 58 l22 4 -22 2 c-17 1 -23 7 -23 25 0 29 17 43 33 27 15 -15 27
-14 27 4 0 24 -56 19 -74 -7z"/>
<path d="M2799 4003 c0 -5 0 -50 1 -100 1 -60 -3 -93 -9 -93 -6 0 -11 4 -11 9
0 5 -8 8 -17 7 -15 -1 -19 9 -21 52 -3 48 -1 52 20 53 l23 0 -22 9 c-13 5 -23
17 -23 26 0 13 -4 11 -19 -7 -12 -15 -16 -28 -10 -33 5 -6 9 -36 9 -67 l0 -57
66 -1 c55 0 64 2 54 14 -6 7 -10 33 -8 57 3 38 6 43 28 43 22 0 25 -5 28 -43
2 -24 -2 -50 -9 -58 -9 -12 -6 -14 18 -14 l29 0 -7 62 c-8 71 -26 92 -65 78
-23 -9 -24 -8 -24 30 0 29 -4 40 -15 40 -8 0 -15 -3 -16 -7z"/>
<path d="M3302 3985 c-37 -31 -48 -81 -28 -129 8 -19 23 -39 34 -45 33 -18 97
-13 123 9 29 24 22 25 -20 4 -44 -22 -86 -5 -101 42 -32 96 58 171 117 98 l23
-29 0 35 0 36 -59 2 c-50 2 -63 -1 -89 -23z"/>
<path d="M3473 3999 c14 -8 17 -25 17 -94 0 -69 -3 -86 -17 -94 -13 -8 6 -10
72 -8 88 2 90 3 94 27 3 24 2 24 -16 7 -12 -10 -36 -17 -61 -17 l-42 0 0 79
c0 59 4 84 16 95 14 15 11 16 -33 16 -37 -1 -44 -3 -30 -11z"/>
<path d="M3668 3998 c7 -7 12 -45 12 -99 0 -75 -3 -88 -17 -92 -10 -3 7 -5 37
-6 42 0 51 2 38 10 -15 8 -18 25 -18 94 0 69 3 86 18 94 13 8 6 10 -32 11 -39
0 -47 -3 -38 -12z"/>
<path d="M3768 3998 c17 -17 16 -185 0 -191 -7 -3 10 -5 37 -5 28 0 42 2 33 5
-13 3 -18 15 -18 44 0 36 2 39 28 39 70 0 100 75 42 105 -36 19 -140 21 -122
3z m100 -17 c8 -4 12 -21 10 -36 -2 -21 -10 -31 -30 -36 -27 -7 -28 -6 -28 37
0 45 15 56 48 35z"/>
<path d="M4035 4000 c-3 -5 -2 -10 4 -10 6 0 11 -38 13 -92 l3 -93 37 -3 c47
-4 78 24 78 71 0 52 -35 84 -72 65 -16 -8 -18 -4 -18 32 0 33 -3 40 -19 40
-11 0 -23 -4 -26 -10z m93 -92 c30 -30 3 -108 -33 -94 -15 6 -22 86 -8 99 10
11 28 8 41 -5z"/>
<path d="M4665 4000 c-3 -5 -1 -10 4 -10 6 0 11 -11 11 -25 0 -21 -5 -25 -29
-25 -54 0 -87 -61 -60 -109 12 -22 23 -26 59 -27 39 -1 107 14 73 15 -10 1
-13 27 -13 96 0 87 -2 95 -19 95 -11 0 -23 -4 -26 -10z m10 -125 c0 -47 -2
-50 -25 -50 -18 0 -27 7 -34 27 -14 39 7 80 37 76 19 -3 22 -9 22 -53z"/>
<path d="M5289 4003 c0 -5 0 -50 1 -100 1 -60 -3 -93 -9 -93 -6 0 -11 4 -11 9
0 5 -8 8 -17 7 -15 -1 -19 9 -21 52 -3 48 -1 52 20 53 l23 0 -22 9 c-13 5 -23
17 -23 26 0 13 -4 11 -19 -7 -12 -15 -16 -28 -10 -33 5 -6 9 -36 9 -67 l0 -57
66 -1 c55 0 64 2 54 14 -6 7 -10 33 -8 57 3 38 6 43 28 43 22 0 25 -5 28 -43
2 -24 -2 -50 -9 -58 -9 -12 -6 -14 18 -14 l29 0 -7 62 c-8 71 -26 92 -65 78
-23 -9 -24 -8 -24 30 0 29 -4 40 -15 40 -8 0 -15 -3 -16 -7z"/>
<path d="M5670 4000 c-10 -6 -11 -10 -2 -10 6 0 12 -11 12 -24 0 -19 -5 -23
-27 -23 -35 0 -63 -36 -63 -78 0 -46 22 -64 74 -63 49 1 75 11 57 22 -7 5 -11
42 -11 97 0 91 -5 102 -40 79z m8 -127 c3 -46 1 -53 -15 -53 -27 0 -43 20 -43
51 0 43 10 60 34 57 18 -3 21 -11 24 -55z"/>
<path d="M1291 3960 c-8 -14 -14 -47 -12 -75 3 -75 9 -87 39 -83 29 3 43 27
15 24 -15 -1 -19 8 -21 51 -2 43 0 52 15 56 16 4 16 5 1 6 -9 0 -18 11 -20 24
l-3 22 -14 -25z"/>
<path d="M319 3936 c-34 -17 -48 -76 -25 -110 21 -33 67 -35 96 -4 24 26 18
38 -8 15 -24 -22 -35 -21 -55 1 -31 35 -22 52 28 52 32 0 45 4 45 14 0 30 -48
49 -81 32z m41 -21 c11 -13 8 -15 -19 -15 -30 0 -39 9 -24 23 11 11 30 8 43
-8z"/>
<path d="M1437 3943 c-4 -3 -23 -6 -42 -5 -19 1 -37 -3 -40 -8 -3 -6 -1 -10 4
-10 16 0 14 -163 -1 -178 -9 -9 -3 -12 27 -12 30 0 36 3 27 12 -7 7 -12 22
-12 35 0 19 5 23 30 23 38 0 62 35 58 86 -3 36 -36 73 -51 57z m21 -69 c3 -44
-16 -71 -43 -60 -10 4 -15 19 -15 49 0 50 6 59 35 55 16 -2 21 -12 23 -44z"/>
<path d="M1553 3939 c-68 -25 -52 -139 19 -139 24 0 67 35 56 45 -3 3 -11 -1
-18 -10 -7 -8 -18 -15 -26 -15 -19 0 -44 29 -44 51 0 16 7 19 45 19 47 0 53 6
33 32 -18 21 -39 27 -65 17z m35 -26 c2 -8 -6 -13 -22 -13 -25 0 -33 10 -19
24 10 10 36 3 41 -11z"/>
<path d="M2071 3941 c-8 -5 -20 -7 -27 -4 -7 2 -21 0 -31 -6 -10 -6 -12 -11
-5 -11 8 0 12 -18 12 -54 0 -34 -5 -56 -12 -59 -7 -3 7 -6 31 -6 39 -1 43 1
27 12 -13 10 -17 24 -14 57 3 43 4 44 41 47 l37 2 0 -48 c0 -26 -5 -52 -12
-59 -9 -9 -3 -12 28 -11 21 0 33 3 27 6 -8 3 -13 25 -13 58 0 44 3 54 19 58
11 3 22 2 25 -1 12 -11 6 -110 -6 -115 -7 -3 5 -5 27 -5 22 0 34 2 28 5 -8 3
-13 24 -13 53 0 38 4 52 19 59 10 6 21 7 25 4 12 -12 6 -111 -6 -116 -7 -3 5
-6 27 -6 30 -1 36 2 27 11 -7 7 -12 36 -12 65 0 63 -20 81 -63 58 -16 -8 -27
-10 -27 -4 0 6 -25 9 -65 6 -35 -2 -68 0 -72 4 -5 5 -14 4 -22 0z"/>
<path d="M2988 3938 c-61 -21 -55 -138 7 -138 34 0 54 10 66 32 10 19 10 19
-15 3 -24 -16 -28 -16 -51 -1 -14 9 -25 25 -25 36 0 17 7 20 46 20 37 0 45 3
42 16 -5 27 -39 43 -70 32z m36 -23 c4 -11 -2 -15 -24 -15 -22 0 -28 4 -24 15
4 8 14 15 24 15 10 0 20 -7 24 -15z"/>
<path d="M4223 3940 c-13 -5 -23 -16 -23 -25 0 -20 17 -19 28 2 6 10 16 14 26
10 24 -10 19 -36 -8 -43 -32 -8 -59 -38 -54 -61 3 -15 14 -18 61 -20 31 -1 59
3 63 8 3 5 1 9 -4 9 -5 0 -12 23 -14 52 -4 34 -12 56 -24 65 -20 15 -21 15
-51 3z m45 -87 c-3 -32 -35 -44 -45 -17 -4 11 1 22 12 30 28 21 37 17 33 -13z"/>
<path d="M4488 3938 c-61 -21 -55 -138 7 -138 34 0 54 10 66 32 10 19 10 19
-15 3 -24 -16 -28 -16 -51 -1 -14 9 -25 25 -25 36 0 17 7 20 46 20 37 0 45 3
42 16 -5 27 -39 43 -70 32z m36 -23 c4 -11 -2 -15 -24 -15 -22 0 -28 4 -24 15
4 8 14 15 24 15 10 0 20 -7 24 -15z"/>
<path d="M4890 3940 c-8 -5 -26 -6 -41 -3 -15 3 -30 0 -33 -6 -4 -6 -2 -11 3
-11 16 0 14 -107 -1 -113 -7 -3 5 -6 27 -6 30 -1 36 2 27 11 -7 7 -12 31 -12
55 0 32 5 45 20 53 15 8 21 6 30 -9 14 -27 13 -84 -2 -99 -9 -9 -3 -12 28 -12
31 1 36 3 22 11 -26 14 -25 95 0 108 13 7 23 6 30 -1 16 -16 15 -91 0 -106 -9
-9 -3 -12 28 -11 21 0 33 3 27 6 -8 3 -13 23 -13 52 0 63 -17 86 -59 78 -18
-4 -40 -3 -50 2 -10 6 -23 6 -31 1z"/>
<path d="M5098 3938 c-61 -21 -55 -138 7 -138 34 0 54 10 66 32 10 19 10 19
-15 3 -24 -16 -28 -16 -51 -1 -14 9 -25 25 -25 36 0 17 7 20 46 20 37 0 45 3
42 16 -5 27 -39 43 -70 32z m36 -23 c4 -11 -2 -15 -24 -15 -22 0 -28 4 -24 15
4 8 14 15 24 15 10 0 20 -7 24 -15z"/>
<path d="M632 3931 c-11 -7 -11 -9 2 -14 21 -8 21 -80 0 -101 -14 -15 -11 -16
28 -16 34 1 39 3 26 11 -14 8 -18 23 -18 69 0 61 -8 71 -38 51z"/>
<path d="M976 3918 c-54 -76 46 -164 103 -92 42 53 16 114 -49 114 -29 0 -43
-6 -54 -22z m84 -18 c14 -35 6 -78 -17 -87 -21 -8 -53 31 -53 66 0 55 50 70
70 21z"/>
<path d="M1117 3932 c6 -4 13 -34 15 -67 3 -54 5 -60 26 -63 13 -2 29 1 37 8
10 8 14 8 17 -2 4 -10 10 -10 29 -1 13 6 18 12 12 12 -9 1 -13 20 -13 61 0 59
-1 60 -27 60 -19 0 -24 -3 -15 -9 9 -5 12 -25 10 -57 -3 -41 -6 -49 -23 -49
-17 0 -20 8 -23 58 -3 55 -4 57 -30 57 -16 0 -22 -3 -15 -8z"/>
<path d="M1876 3924 c-44 -43 -19 -116 42 -122 61 -6 99 80 54 121 -23 21 -76
22 -96 1z m74 -13 c26 -49 -1 -118 -38 -95 -22 15 -35 69 -22 94 14 25 46 26
60 1z"/>
<path d="M2367 3933 c-18 -17 -6 -55 23 -71 35 -20 41 -52 10 -52 -12 0 -24
10 -30 23 -8 21 -9 21 -9 -5 -1 -25 3 -28 32 -28 64 0 78 49 22 81 -19 12 -35
27 -35 35 0 20 37 17 49 -3 9 -16 10 -16 11 5 0 18 -5 22 -33 22 -19 0 -37 -3
-40 -7z"/>
<path d="M2566 3918 c-54 -76 46 -164 103 -92 42 53 16 114 -49 114 -29 0 -43
-6 -54 -22z m84 -18 c14 -35 6 -78 -17 -87 -21 -8 -53 31 -53 66 0 55 50 70
70 21z"/>
<path d="M3078 3929 c-10 -7 -10 -9 0 -9 8 0 12 -18 12 -54 0 -34 -5 -56 -12
-59 -7 -3 7 -6 32 -6 35 0 41 2 28 10 -12 7 -18 22 -18 47 0 45 11 65 35 60
10 -2 20 2 22 9 5 13 -78 15 -99 2z"/>
<path d="M4342 3928 c-20 -20 -14 -35 23 -64 39 -29 43 -41 18 -51 -10 -4 -23
2 -35 16 l-18 23 0 -26 c0 -24 4 -26 40 -26 64 0 76 50 19 84 -31 19 -39 46
-13 46 9 0 23 -8 30 -17 12 -17 13 -16 14 5 0 18 -5 22 -33 22 -18 0 -38 -5
-45 -12z"/>
<path d="M5456 3924 c-44 -43 -19 -116 42 -122 61 -6 99 80 54 121 -23 21 -76
22 -96 1z m74 -13 c26 -49 -1 -118 -38 -95 -22 15 -35 69 -22 94 14 25 46 26
60 1z"/>
<path d="M5755 3929 c-13 -19 4 -54 35 -72 34 -20 38 -35 13 -44 -10 -4 -23 2
-35 16 l-18 23 0 -26 c0 -26 2 -27 43 -24 36 3 42 7 45 27 3 18 -6 33 -35 57
-34 29 -36 33 -19 40 13 5 23 1 32 -11 13 -18 14 -18 14 3 0 18 -6 22 -34 22
-19 0 -38 -5 -41 -11z"/>
<path d="M3930 3870 c0 -5 18 -10 40 -10 22 0 40 5 40 10 0 6 -18 10 -40 10
-22 0 -40 -4 -40 -10z"/>
<path d="M5880 3815 c0 -8 7 -15 15 -15 8 0 15 7 15 15 0 8 -7 15 -15 15 -8 0
-15 -7 -15 -15z"/>
<path d="M110 3325 c0 -13 527 -15 4680 -15 4153 0 4680 2 4680 15 0 13 -527
15 -4680 15 -4153 0 -4680 -2 -4680 -15z"/>
<path d="M6020 3158 c-15 -6 -20 -12 -12 -15 6 -3 12 -17 12 -32 0 -25 -3 -28
-26 -23 -39 7 -74 -31 -74 -83 0 -54 23 -76 76 -74 61 3 88 10 72 20 -9 6 -15
40 -18 112 l-5 104 -25 -9z m-11 -92 c7 -8 11 -36 9 -63 -2 -38 -7 -49 -22
-51 -41 -8 -64 79 -30 112 19 20 28 20 43 2z"/>
<path d="M6263 3163 c-23 -4 -33 -23 -13 -23 15 0 13 -197 -2 -203 -7 -3 7 -5
32 -5 25 0 39 2 33 5 -9 3 -13 37 -13 119 0 63 -3 113 -7 113 -5 -1 -18 -4
-30 -6z"/>
<path d="M6363 3162 c-22 -3 -33 -22 -13 -22 6 0 10 -38 10 -95 0 -79 -3 -96
-17 -104 -14 -8 -7 -10 31 -11 42 0 47 2 33 13 -13 10 -17 33 -19 117 -3 103
-4 105 -25 102z"/>
<path d="M7001 3146 c-6 -15 -24 -35 -41 -44 -16 -9 -30 -20 -30 -24 0 -14 17
-9 44 13 l26 20 0 -113 c0 -62 5 -120 10 -128 7 -10 10 26 10 112 l0 127 35
-20 c19 -12 35 -16 35 -10 0 6 -9 15 -21 21 -11 6 -29 25 -39 43 l-19 31 -10
-28z"/>
<path d="M5374 3144 c12 -11 16 -36 16 -99 0 -63 -4 -88 -16 -99 -14 -15 -11
-16 38 -15 29 0 46 3 38 6 -8 3 -18 11 -22 17 -10 15 -10 76 0 76 4 0 26 -18
47 -40 33 -34 37 -42 25 -50 -11 -7 1 -10 40 -10 l54 0 -31 28 c-17 15 -46 44
-64 65 l-32 38 39 41 c21 22 48 44 59 48 15 6 6 9 -30 9 -35 1 -45 -2 -35 -9
12 -7 6 -17 -30 -52 -43 -40 -45 -41 -48 -19 -5 36 6 69 26 74 9 3 -7 5 -36 6
-49 1 -52 0 -38 -15z"/>
<path d="M6450 3146 c0 -9 7 -16 15 -16 19 0 19 -9 -2 -32 -9 -10 -12 -18 -6
-18 17 0 45 38 41 57 -4 23 -48 31 -48 9z"/>
<path d="M5611 3064 c-25 -32 -27 -81 -5 -112 21 -30 73 -30 102 1 30 32 28
43 -4 18 -36 -28 -84 -5 -84 41 0 15 8 18 50 18 54 0 65 14 32 43 -28 25 -67
21 -91 -9z m69 -10 c0 -9 -11 -14 -30 -14 -33 0 -39 14 -13 28 21 12 43 5 43
-14z"/>
<path d="M5756 3081 c-14 -5 -16 -10 -8 -15 17 -10 16 -123 0 -129 -7 -3 7 -6
32 -6 35 0 41 2 28 10 -13 7 -18 23 -18 58 0 51 18 78 45 67 19 -7 21 -106 3
-124 -9 -9 -3 -12 27 -12 30 0 36 3 27 12 -7 7 -12 38 -12 69 0 69 -16 89 -61
72 -16 -6 -29 -7 -29 -2 0 10 -8 11 -34 0z"/>
<path d="M6112 3078 c-17 -17 -15 -38 3 -38 8 0 15 6 15 14 0 22 19 30 35 16
24 -20 17 -35 -21 -49 -42 -15 -64 -52 -44 -76 15 -18 51 -20 68 -3 9 9 12 9
12 0 0 -14 36 -16 45 -2 3 6 1 10 -4 10 -6 0 -11 22 -11 51 0 68 -13 89 -53
89 -18 0 -38 -5 -45 -12z m68 -81 c0 -25 -17 -47 -37 -47 -19 0 -16 47 5 59
26 16 32 13 32 -12z"/>
<path d="M6546 3074 c-23 -23 -20 -32 25 -74 42 -38 45 -60 7 -60 -11 0 -22 8
-25 20 -7 28 -23 25 -23 -5 0 -23 4 -25 45 -25 39 0 47 4 57 26 11 25 10 29
-22 55 -19 16 -38 29 -42 29 -15 0 -8 31 8 37 11 4 23 -2 35 -18 l19 -24 0 28
c0 24 -3 27 -34 27 -19 0 -42 -7 -50 -16z"/>
<path d="M6765 3060 c-10 -11 -16 -22 -13 -25 3 -3 11 1 18 10 15 18 50 20 50
2 0 -7 -7 -35 -16 -61 -9 -26 -14 -50 -11 -53 13 -12 25 10 36 67 12 59 12 60
47 60 18 0 34 5 34 10 0 6 -28 10 -63 10 -51 0 -68 -4 -82 -20z"/>
<path d="M890 2948 c-15 -6 -20 -12 -12 -15 8 -3 12 -34 12 -103 0 -69 -4
-100 -12 -103 -7 -3 7 -6 32 -6 35 0 41 2 28 10 -13 7 -18 23 -18 58 0 51 18
78 45 67 19 -7 22 -122 3 -129 -7 -3 7 -6 32 -6 25 0 40 3 34 7 -6 4 -14 35
-17 69 -3 34 -8 66 -12 72 -9 15 -62 14 -72 -1 -5 -8 -10 7 -13 38 -5 50 -6
51 -30 42z"/>
<path d="M1328 2953 c-19 -5 -25 -23 -8 -23 6 0 10 -13 10 -28 0 -26 -3 -28
-28 -24 -60 8 -104 -77 -68 -133 16 -24 21 -25 79 -21 34 2 64 5 67 5 2 1 -1
6 -8 13 -8 8 -12 48 -12 115 0 57 -3 102 -7 102 -5 -1 -16 -3 -25 -6z m-9 -97
c7 -8 11 -36 9 -63 -3 -44 -5 -48 -28 -48 -44 0 -62 72 -28 112 14 17 33 16
47 -1z"/>
<path d="M333 2939 c14 -8 17 -25 17 -104 0 -79 -3 -96 -17 -104 -14 -8 -8
-10 27 -10 35 0 41 2 28 10 -15 8 -18 24 -17 87 l0 77 43 -90 43 -90 23 50
c12 28 30 68 40 90 l19 40 0 -77 c1 -63 -2 -79 -16 -87 -14 -8 -6 -10 35 -11
49 0 52 1 38 16 -24 24 -23 189 2 203 14 8 10 10 -21 11 -30 0 -39 -5 -46 -22
-5 -13 -22 -50 -37 -83 l-27 -60 -38 83 c-39 82 -39 82 -76 82 -31 -1 -35 -3
-20 -11z"/>
<path d="M804 2898 c-19 -21 -21 -30 -14 -89 4 -37 10 -71 14 -78 10 -15 41
-14 55 3 10 12 8 13 -8 9 -20 -5 -21 -1 -21 56 0 48 3 61 15 61 8 0 15 5 15
10 0 6 -6 10 -14 10 -8 0 -16 9 -18 21 -3 21 -3 21 -24 -3z"/>
<path d="M650 2858 c-26 -29 -28 -98 -2 -121 29 -26 77 -22 101 10 12 14 19
29 15 32 -3 3 -10 -2 -15 -12 -11 -20 -59 -23 -77 -5 -7 7 -12 22 -12 35 0 21
4 23 50 23 54 0 65 14 32 43 -26 24 -67 21 -92 -5z m68 -15 c2 -9 -7 -13 -27
-13 -30 0 -39 9 -24 24 11 10 46 3 51 -11z"/>
<path d="M1072 2857 c-48 -51 -13 -137 54 -137 65 0 100 94 54 140 -28 28 -81
26 -108 -3z m68 3 c35 -19 38 -111 5 -124 -26 -10 -45 5 -55 46 -9 32 -8 44 5
64 18 27 19 28 45 14z"/>
<path d="M4593 2733 c895 -2 2359 -2 3255 0 895 1 162 2 -1628 2 -1790 0
-2523 -1 -1627 -2z"/>
<path d="M3525 2575 c-128 -46 -96 -225 41 -225 47 0 74 8 74 21 0 4 -13 3
-30 -2 -37 -13 -94 3 -115 34 -8 12 -15 41 -15 65 0 105 126 140 175 48 16
-29 16 -36 4 -62 -15 -30 -57 -50 -46 -21 3 9 9 31 12 50 6 31 4 35 -19 41
-36 9 -65 -9 -82 -50 -11 -25 -12 -40 -4 -54 12 -22 40 -26 57 -9 8 8 13 8 17
0 11 -17 44 -13 66 9 14 14 20 33 20 64 0 37 -5 48 -31 70 -17 14 -37 26 -44
26 -7 0 -19 2 -27 5 -7 2 -31 -2 -53 -10z m75 -94 c0 -26 -34 -66 -48 -57 -18
11 -14 44 8 66 23 23 40 19 40 -9z"/>
<path d="M3960 2581 c-56 -14 -78 -141 -37 -205 20 -30 75 -36 100 -11 24 24
40 83 32 123 -12 69 -49 104 -95 93z m49 -42 c26 -74 5 -179 -34 -179 -23 0
-35 35 -35 105 0 36 5 75 10 86 17 30 46 24 59 -12z"/>
<path d="M4825 2575 c-128 -46 -96 -225 41 -225 47 0 74 8 74 21 0 4 -13 3
-30 -2 -37 -13 -94 3 -115 34 -8 12 -15 41 -15 65 0 105 126 140 175 48 16
-29 16 -36 4 -62 -15 -30 -57 -50 -46 -21 3 9 9 31 12 50 6 31 4 35 -19 41
-36 9 -65 -9 -82 -50 -11 -25 -12 -40 -4 -54 12 -22 40 -26 57 -9 8 8 13 8 17
0 11 -17 44 -13 66 9 14 14 20 33 20 64 0 37 -5 48 -31 70 -17 14 -37 26 -44
26 -7 0 -19 2 -27 5 -7 2 -31 -2 -53 -10z m75 -94 c0 -26 -34 -66 -48 -57 -18
11 -14 44 8 66 23 23 40 19 40 -9z"/>
<path d="M5079 2578 c-25 -8 -56 -54 -45 -66 3 -3 8 3 12 12 10 25 41 39 63
27 44 -24 33 -68 -35 -148 l-46 -53 70 0 c64 0 70 2 80 25 12 26 4 33 -15 14
-6 -6 -27 -9 -47 -7 l-36 3 39 46 c48 56 59 90 38 123 -19 28 -43 36 -78 24z"/>
<path d="M5260 2581 c-56 -14 -78 -141 -37 -205 20 -30 75 -36 100 -11 24 24
40 83 32 123 -12 69 -49 104 -95 93z m49 -42 c26 -74 5 -179 -34 -179 -23 0
-35 35 -35 105 0 36 5 75 10 86 17 30 46 24 59 -12z"/>
<path d="M6133 2579 c-49 -14 -83 -62 -83 -116 0 -38 5 -50 34 -79 30 -30 40
-34 88 -34 29 0 60 4 68 10 24 15 6 20 -31 8 -29 -8 -43 -7 -72 6 -92 45 -63
196 38 196 41 0 95 -49 95 -86 0 -33 -17 -64 -35 -64 -17 0 -19 21 -6 68 7 23
6 32 -2 32 -7 0 -22 3 -34 6 -15 4 -29 -2 -47 -20 -48 -47 -27 -130 24 -98 12
7 21 7 28 0 20 -20 62 1 78 38 35 84 -47 160 -143 133z m67 -89 c0 -28 -21
-70 -36 -70 -37 0 -9 89 29 90 4 0 7 -9 7 -20z"/>
<path d="M6390 2582 c-21 -6 -50 -33 -50 -45 0 -6 8 -3 18 6 23 21 46 22 62 2
15 -19 4 -52 -21 -60 -24 -8 -25 -25 -1 -25 26 0 42 -20 42 -51 0 -38 -24 -55
-56 -40 -33 15 -44 14 -44 -4 0 -23 72 -19 104 6 31 24 35 72 9 101 -13 14
-14 21 -5 30 35 35 -10 96 -58 80z"/>
<path d="M6553 2575 c-25 -11 -34 -23 -43 -56 -30 -110 32 -201 110 -159 40
21 52 121 22 179 -21 42 -48 53 -89 36z m57 -31 c13 -34 13 -140 0 -165 -15
-27 -45 -24 -58 6 -7 14 -12 50 -12 80 0 30 5 66 12 80 15 33 46 32 58 -1z"/>
<path d="M7433 2579 c-49 -14 -83 -62 -83 -116 0 -38 5 -50 34 -79 30 -30 40
-34 88 -34 29 0 60 4 68 10 24 15 6 20 -31 8 -29 -8 -43 -7 -72 6 -92 45 -63
196 38 196 41 0 95 -49 95 -86 0 -33 -17 -64 -35 -64 -17 0 -19 21 -6 68 7 23
6 32 -2 32 -7 0 -22 3 -34 6 -15 4 -29 -2 -47 -20 -48 -47 -27 -130 24 -98 12
7 21 7 28 0 20 -20 62 1 78 38 35 84 -47 160 -143 133z m67 -89 c0 -28 -21
-70 -36 -70 -37 0 -9 89 29 90 4 0 7 -9 7 -20z"/>
<path d="M7682 2515 c-65 -94 -66 -105 -7 -105 43 0 45 -1 45 -30 0 -20 5 -30
15 -30 10 0 15 10 15 30 0 23 4 30 20 30 11 0 20 5 20 10 0 6 -9 10 -20 10
-18 0 -20 7 -20 80 0 44 -4 80 -8 80 -4 0 -31 -34 -60 -75z m38 -35 l0 -50
-35 0 c-19 0 -35 3 -35 6 0 8 60 94 65 94 3 0 5 -22 5 -50z"/>
<path d="M7853 2575 c-25 -11 -34 -23 -43 -56 -30 -110 32 -201 110 -159 40
21 52 121 22 179 -21 42 -48 53 -89 36z m57 -31 c13 -34 13 -140 0 -165 -15
-27 -45 -24 -58 6 -7 14 -12 50 -12 80 0 30 5 66 12 80 15 33 46 32 58 -1z"/>
<path d="M8733 2579 c-49 -14 -83 -62 -83 -116 0 -38 5 -50 34 -79 30 -30 40
-34 88 -34 29 0 60 4 68 10 24 15 6 20 -31 8 -29 -8 -43 -7 -72 6 -92 45 -63
196 38 196 41 0 95 -49 95 -86 0 -33 -17 -64 -35 -64 -17 0 -19 21 -6 68 7 23
6 32 -2 32 -7 0 -22 3 -34 6 -15 4 -29 -2 -47 -20 -48 -47 -27 -130 24 -98 12
7 21 7 28 0 20 -20 62 1 78 38 35 84 -47 160 -143 133z m67 -89 c0 -28 -21
-70 -36 -70 -37 0 -9 89 29 90 4 0 7 -9 7 -20z"/>
<path d="M9029 2583 c-41 -4 -47 -8 -62 -39 -22 -45 -21 -54 2 -54 32 0 74
-42 74 -75 0 -32 -29 -59 -53 -49 -38 16 -50 16 -50 0 0 -24 71 -21 104 5 50
39 28 130 -35 144 -40 9 -32 29 14 33 24 2 41 10 47 23 6 10 9 18 8 17 -2 -1
-24 -3 -49 -5z"/>
<path d="M9159 2578 c-34 -11 -53 -56 -52 -121 1 -65 27 -101 76 -105 32 -3
39 1 57 30 26 43 27 122 1 164 -22 36 -45 45 -82 32z m52 -30 c16 -30 16 -137
0 -166 -15 -29 -41 -25 -59 8 -16 31 -11 142 7 164 19 22 38 20 52 -6z"/>
<path d="M3193 2569 c14 -8 17 -25 17 -104 0 -79 -3 -96 -17 -104 -14 -8 -5
-10 36 -11 47 0 52 2 37 13 -13 10 -17 24 -14 57 l3 45 45 -57 c36 -47 50 -58
73 -58 l29 0 -47 52 -47 52 26 19 c18 13 26 28 26 47 0 44 -31 60 -115 60 -52
-1 -66 -3 -52 -11z m115 -21 c21 -21 14 -58 -14 -68 -40 -16 -44 -13 -44 35 0
40 2 45 23 45 13 0 28 -5 35 -12z"/>
<path d="M3780 2565 c-19 -11 -21 -14 -7 -15 15 0 17 -11 17 -90 0 -74 -3 -91
-17 -99 -14 -8 -5 -10 37 -10 43 0 50 2 33 9 -22 9 -23 15 -23 115 0 58 -3
105 -7 105 -5 -1 -19 -7 -33 -15z"/>
<path d="M4493 2569 c14 -8 17 -25 17 -104 0 -79 -3 -96 -17 -104 -14 -8 -5
-10 36 -11 47 0 52 2 37 13 -13 10 -17 24 -14 57 l3 45 45 -57 c36 -47 50 -58
73 -58 l29 0 -47 52 -47 52 26 19 c18 13 26 28 26 47 0 44 -31 60 -115 60 -52
-1 -66 -3 -52 -11z m115 -21 c21 -21 14 -58 -14 -68 -40 -16 -44 -13 -44 35 0
40 2 45 23 45 13 0 28 -5 35 -12z"/>
<path d="M5793 2569 c14 -8 17 -25 17 -104 0 -79 -3 -96 -17 -104 -14 -8 -5
-10 36 -11 47 0 52 2 37 13 -13 10 -17 24 -14 57 l3 45 45 -57 c37 -46 51 -57
76 -57 l30 -1 -49 52 -48 52 24 13 c45 23 46 81 1 102 -33 14 -167 15 -141 0z
m125 -47 c3 -27 -1 -34 -23 -42 -41 -16 -45 -13 -45 36 0 45 0 45 33 42 28 -3
32 -7 35 -36z"/>
<path d="M7093 2569 c14 -8 17 -25 17 -104 0 -79 -3 -96 -17 -104 -14 -8 -5
-10 36 -11 47 0 52 2 37 13 -13 10 -17 24 -14 57 l3 45 45 -57 c37 -46 51 -57
76 -57 l30 -1 -49 52 -48 52 24 13 c45 23 46 81 1 102 -33 14 -167 15 -141 0z
m125 -47 c3 -27 -1 -34 -23 -42 -41 -16 -45 -13 -45 36 0 45 0 45 33 42 28 -3
32 -7 35 -36z"/>
<path d="M8393 2573 c15 -4 17 -18 17 -103 0 -84 -3 -101 -17 -109 -14 -8 -5
-10 37 -10 42 0 51 2 38 10 -19 10 -26 83 -10 93 4 2 27 -20 50 -50 33 -43 48
-54 70 -54 l28 0 -48 52 -48 52 24 13 c46 24 45 86 -1 104 -13 5 -54 8 -91 8
-37 -1 -59 -3 -49 -6z m125 -25 c28 -28 -5 -78 -50 -78 -15 0 -18 9 -18 45 0
43 1 45 28 45 15 0 33 -5 40 -12z"/>
<path d="M110 2160 c0 -7 1567 -10 4680 -10 3113 0 4680 3 4680 10 0 7 -1567
10 -4680 10 -3113 0 -4680 -3 -4680 -10z"/>
<path d="M406 1990 c-40 -12 -65 -38 -76 -79 -13 -48 3 -104 37 -131 32 -25
108 -27 141 -4 34 24 26 34 -13 14 -65 -33 -125 6 -125 81 0 103 81 141 142
65 17 -21 18 -21 18 17 0 36 -1 37 -34 37 -19 0 -40 2 -48 4 -7 2 -26 0 -42
-4z"/>
<path d="M1604 1989 c-10 -17 13 -36 27 -22 12 12 4 33 -11 33 -5 0 -12 -5
-16 -11z"/>
<path d="M3300 1991 c-56 -14 -78 -141 -37 -205 20 -30 75 -36 100 -11 24 24
40 83 32 123 -12 69 -49 104 -95 93z m49 -42 c26 -74 5 -179 -34 -179 -23 0
-35 35 -35 105 0 36 5 75 10 86 17 30 46 24 59 -12z"/>
<path d="M3543 1985 c-28 -12 -43 -32 -43 -57 0 -6 11 1 25 16 27 29 29 30 56
16 37 -20 25 -70 -33 -136 l-51 -59 68 -3 c69 -3 84 4 85 38 0 11 -3 11 -12 2
-7 -7 -32 -12 -56 -12 l-45 0 45 48 c54 58 64 83 46 118 -17 35 -46 45 -85 29z"/>
<path d="M3719 1988 c-25 -8 -56 -54 -45 -66 3 -3 8 3 12 12 10 25 41 39 63
27 44 -24 33 -68 -35 -148 l-46 -53 70 0 c64 0 70 2 80 25 12 26 4 33 -15 14
-6 -6 -27 -9 -47 -7 l-36 3 39 46 c48 56 59 90 38 123 -19 28 -43 36 -78 24z"/>
<path d="M3900 1992 c-21 -6 -50 -33 -50 -45 0 -6 9 -2 19 7 27 25 65 17 69
-14 3 -17 -4 -31 -25 -47 -27 -22 -27 -23 -6 -23 13 0 30 -11 39 -25 15 -23
15 -27 -1 -51 -12 -18 -22 -24 -36 -20 -10 3 -28 9 -39 12 -14 5 -20 2 -20
-10 0 -25 84 -22 110 4 25 25 27 82 4 105 -13 12 -14 19 -5 28 34 34 -11 95
-59 79z"/>
<path d="M4593 1985 c-25 -11 -34 -23 -43 -56 -30 -110 32 -201 110 -159 40
21 52 121 22 179 -21 42 -48 53 -89 36z m57 -31 c13 -34 13 -140 0 -165 -15
-27 -45 -24 -58 6 -7 14 -12 50 -12 80 0 30 5 66 12 80 15 33 46 32 58 -1z"/>
<path d="M5075 1993 c-61 -16 -112 -96 -100 -157 12 -56 31 -76 74 -76 49 0
71 24 71 77 0 51 -26 77 -70 71 -16 -3 -30 -2 -30 2 0 16 35 52 68 70 35 18
30 23 -13 13z m5 -123 c16 -29 8 -81 -13 -94 -15 -9 -22 -7 -38 13 -18 22 -26
81 -12 94 14 15 53 6 63 -13z"/>
<path d="M5195 1990 c-32 -12 -47 -36 -48 -76 -1 -46 33 -79 75 -70 15 3 28 1
28 -3 0 -15 -60 -71 -75 -71 -8 0 -17 -5 -20 -10 -9 -14 43 -2 73 17 49 31 78
121 56 178 -5 13 -55 47 -66 44 -2 0 -12 -4 -23 -9z m44 -23 c18 -23 25 -75
11 -92 -17 -21 -47 -19 -60 4 -30 57 11 132 49 88z"/>
<path d="M5893 1985 c-25 -11 -34 -23 -43 -56 -30 -110 32 -201 110 -159 40
21 52 121 22 179 -21 42 -48 53 -89 36z m57 -31 c13 -34 13 -140 0 -165 -15
-27 -45 -24 -58 6 -7 14 -12 50 -12 80 0 30 5 66 12 80 15 33 46 32 58 -1z"/>
<path d="M6330 1992 c-21 -6 -50 -33 -50 -45 0 -6 9 -2 19 7 27 25 65 17 69
-14 3 -17 -4 -31 -25 -47 -27 -22 -27 -23 -6 -23 13 0 30 -11 39 -25 15 -23
15 -27 -1 -51 -12 -18 -22 -24 -36 -20 -10 3 -28 9 -39 12 -14 5 -20 2 -20
-10 0 -25 84 -22 110 4 25 25 27 82 4 105 -13 12 -14 19 -5 28 34 34 -11 95
-59 79z"/>
<path d="M6493 1990 c-12 -5 -27 -18 -33 -29 -13 -25 -5 -27 17 -5 23 22 57
14 61 -16 3 -17 -4 -31 -23 -46 l-27 -21 31 -6 c41 -8 53 -50 23 -79 -18 -19
-24 -20 -52 -8 -32 13 -47 9 -35 -9 11 -18 81 -13 106 8 28 22 32 83 7 108
-14 13 -15 19 -3 37 14 22 5 66 -14 66 -5 0 -15 2 -23 4 -7 3 -23 1 -35 -4z"/>
<path d="M7199 1988 c-34 -11 -53 -56 -52 -121 1 -65 27 -101 76 -105 32 -3
39 1 57 30 26 43 27 122 1 164 -22 36 -45 45 -82 32z m52 -30 c16 -30 16 -137
0 -166 -15 -29 -41 -25 -59 8 -16 31 -11 142 7 164 19 22 38 20 52 -6z"/>
<path d="M7460 1979 c-30 -15 -32 -18 -12 -19 21 0 22 -4 22 -82 0 -86 -4
-101 -30 -111 -8 -3 10 -5 40 -5 30 0 47 2 38 5 -15 4 -18 20 -20 118 l-3 113
-35 -19z"/>
<path d="M7644 1950 c-92 -125 -93 -130 -29 -130 43 0 45 -1 45 -30 0 -20 5
-30 15 -30 9 0 15 10 15 26 0 17 6 28 20 31 25 7 26 19 0 26 -17 4 -20 15 -22
83 l-3 79 -41 -55z m13 -107 c-3 -2 -19 -3 -36 -1 l-31 3 33 50 32 49 3 -48
c2 -26 1 -50 -1 -53z"/>
<path d="M7793 1990 c-12 -5 -27 -18 -33 -29 -13 -25 -5 -27 17 -5 23 22 57
14 61 -16 3 -17 -4 -31 -23 -46 l-27 -21 31 -6 c41 -8 53 -50 23 -79 -18 -19
-24 -20 -52 -8 -32 13 -47 9 -35 -9 11 -18 81 -13 106 8 28 22 32 83 7 108
-14 13 -15 19 -3 37 14 22 5 66 -14 66 -5 0 -15 2 -23 4 -7 3 -23 1 -35 -4z"/>
<path d="M8499 1988 c-34 -11 -53 -56 -52 -121 1 -65 27 -101 76 -105 32 -3
39 1 57 30 26 43 27 122 1 164 -22 36 -45 45 -82 32z m52 -30 c16 -30 16 -137
0 -166 -15 -29 -41 -25 -59 8 -16 31 -11 142 7 164 19 22 38 20 52 -6z"/>
<path d="M8760 1979 c-30 -15 -32 -18 -12 -19 21 0 22 -4 22 -82 0 -86 -4
-101 -30 -111 -8 -3 10 -5 40 -5 30 0 47 2 38 5 -15 4 -18 20 -20 118 l-3 113
-35 -19z"/>
<path d="M8968 1992 c-44 -3 -47 -5 -62 -43 -20 -48 -20 -49 -1 -49 27 0 73
-29 80 -50 13 -42 -32 -97 -58 -71 -16 16 -47 13 -47 -4 0 -11 11 -15 43 -15
57 0 89 32 89 86 0 43 -36 84 -73 84 -39 0 -13 25 28 28 26 2 43 9 47 19 8 20
11 19 -46 15z"/>
<path d="M9093 1990 c-22 -9 -43 -38 -43 -60 0 -6 10 1 23 16 43 50 95 1 68
-65 -7 -15 -30 -45 -52 -67 -21 -21 -39 -42 -39 -46 0 -4 32 -8 70 -8 39 0 70
4 70 9 0 5 3 18 6 28 6 15 4 16 -7 6 -7 -7 -33 -13 -57 -13 l-44 0 46 51 c37
42 46 58 46 89 0 52 -39 79 -87 60z"/>
<path d="M563 1979 c14 -8 17 -25 17 -104 0 -79 -3 -96 -17 -104 -13 -8 8 -10
78 -11 92 0 97 1 103 23 10 38 7 41 -17 19 -16 -15 -36 -22 -65 -22 l-42 0 0
99 c0 86 2 100 18 104 9 3 -8 5 -38 6 -42 0 -51 -2 -37 -10z"/>
<path d="M773 1979 c14 -8 17 -25 17 -104 0 -79 -3 -96 -17 -104 -14 -8 -5
-10 37 -10 42 0 51 2 38 10 -15 8 -18 25 -18 104 0 79 3 96 18 104 13 8 4 10
-38 10 -42 0 -51 -2 -37 -10z"/>
<path d="M883 1979 c14 -8 17 -25 17 -104 0 -79 -3 -96 -17 -104 -14 -8 -5
-10 37 -10 42 0 51 2 38 10 -12 7 -18 22 -18 49 0 39 1 40 34 40 44 0 79 28
79 65 0 47 -33 65 -117 65 -53 -1 -67 -3 -53 -11z m115 -21 c29 -29 7 -78 -35
-78 -21 0 -23 5 -23 45 0 40 2 45 23 45 13 0 28 -5 35 -12z"/>
<path d="M1193 1979 c24 -14 25 -173 0 -201 -15 -17 -14 -18 27 -18 38 0 41 2
26 13 -14 10 -16 25 -14 86 l3 73 70 -88 70 -89 5 104 c4 87 8 105 24 117 18
13 16 14 -27 14 l-47 0 20 -20 c15 -15 20 -33 20 -75 0 -30 -3 -55 -7 -55 -5
1 -34 34 -66 75 -51 66 -63 75 -90 75 -27 -1 -29 -2 -14 -11z"/>
<path d="M4850 1975 c-19 -11 -21 -14 -7 -15 15 0 17 -11 17 -94 0 -82 -2 -95
-17 -99 -10 -3 7 -5 37 -5 30 0 47 2 38 5 -16 4 -18 18 -18 114 0 117 -2 121
-50 94z"/>
<path d="M6150 1975 c-19 -11 -21 -14 -7 -15 15 0 17 -11 17 -94 0 -82 -2 -95
-17 -99 -10 -3 7 -5 37 -5 30 0 47 2 38 5 -16 4 -18 18 -18 114 0 117 -2 121
-50 94z"/>
<path d="M1458 1909 c-21 -12 -24 -39 -4 -39 7 0 16 9 19 21 7 27 41 22 45 -6
2 -16 -7 -25 -37 -38 -44 -20 -56 -39 -41 -68 11 -20 54 -26 65 -9 4 7 11 8
18 2 7 -5 41 -10 77 -10 36 0 59 2 53 5 -9 3 -13 29 -13 79 0 78 -7 88 -44 61
-17 -12 -17 -14 -2 -20 11 -5 16 -19 16 -49 0 -54 -10 -69 -38 -61 -19 5 -22
12 -22 62 0 31 -5 62 -12 69 -15 15 -57 15 -80 1z m50 -120 c-36 -23 -52 16
-17 44 l24 19 3 -27 c2 -16 -2 -32 -10 -36z"/>
<path d="M1707 1840 c20 -44 39 -80 43 -80 3 0 12 17 19 38 8 20 22 55 32 76
23 49 23 46 -2 46 -11 0 -17 -5 -14 -10 4 -6 -1 -31 -11 -56 l-18 -46 -18 47
c-10 25 -16 51 -13 56 4 5 -7 9 -24 9 l-30 0 36 -80z"/>
<path d="M1867 1908 c-37 -29 -42 -93 -9 -130 20 -24 67 -23 92 2 29 29 25 45
-6 21 -29 -23 -55 -16 -74 19 -16 30 -4 40 51 40 53 0 57 4 33 38 -17 25 -60
30 -87 10z m63 -28 c0 -6 -13 -10 -30 -10 -30 0 -43 24 -17 33 15 5 47 -10 47
-23z"/>
<path d="M1070 1840 c0 -5 20 -10 45 -10 25 0 45 5 45 10 0 6 -20 10 -45 10
-25 0 -45 -4 -45 -10z"/>
<path d="M3437 1794 c-14 -14 -7 -35 11 -32 9 2 17 10 17 17 0 16 -18 25 -28
15z"/>
<path d="M4737 1794 c-14 -14 -7 -35 11 -32 9 2 17 10 17 17 0 16 -18 25 -28
15z"/>
<path d="M6037 1794 c-14 -15 -6 -34 14 -34 14 0 19 5 17 17 -3 18 -20 27 -31
17z"/>
<path d="M7337 1794 c-14 -15 -6 -34 14 -34 14 0 19 5 17 17 -3 18 -20 27 -31
17z"/>
<path d="M8635 1791 c-8 -15 3 -31 21 -31 9 0 14 7 12 17 -4 20 -24 28 -33 14z"/>
<path d="M406 1580 c-40 -12 -65 -38 -76 -79 -13 -48 3 -104 37 -131 32 -25
108 -27 141 -4 34 24 26 34 -13 14 -65 -33 -125 6 -125 81 0 103 81 141 142
65 17 -21 18 -21 18 17 0 36 -1 37 -34 37 -19 0 -40 2 -48 4 -7 2 -26 0 -42
-4z"/>
<path d="M1230 1577 c-20 -10 -25 -20 -25 -51 0 -35 5 -43 45 -71 48 -34 59
-57 40 -80 -19 -23 -39 -18 -71 16 l-29 31 0 -34 0 -35 56 -2 c66 -2 94 16 94
60 0 27 -16 44 -84 92 -31 21 -34 53 -7 62 24 7 56 -11 70 -40 8 -17 10 -15
10 18 1 33 -2 37 -23 37 -13 0 -30 2 -38 5 -7 3 -24 -1 -38 -8z"/>
<path d="M1390 1578 c-21 -9 -22 -12 -7 -15 15 -4 17 -17 17 -98 0 -79 -3 -96
-17 -104 -14 -8 -8 -10 27 -10 25 0 39 3 33 6 -9 3 -13 37 -13 119 0 63 -3
114 -7 113 -5 0 -19 -5 -33 -11z"/>
<path d="M1490 1571 c0 -12 6 -21 16 -21 9 0 14 7 12 17 -5 25 -28 28 -28 4z"/>
<path d="M1673 1582 c-22 -3 -33 -22 -13 -22 6 0 10 -13 10 -29 0 -24 -3 -28
-24 -24 -56 11 -100 -58 -76 -117 14 -33 31 -41 81 -39 55 2 72 9 60 23 -6 7
-12 57 -13 112 -3 96 -4 99 -25 96z m-14 -96 c7 -8 11 -36 9 -63 -2 -38 -7
-49 -22 -51 -26 -5 -46 24 -46 68 0 53 33 78 59 46z"/>
<path d="M1754 1579 c-10 -17 13 -36 27 -22 12 12 4 33 -11 33 -5 0 -12 -5
-16 -11z"/>
<path d="M3300 1581 c-56 -14 -78 -141 -37 -205 20 -30 75 -36 100 -11 24 24
40 83 32 123 -12 69 -49 104 -95 93z m49 -42 c26 -74 5 -179 -34 -179 -23 0
-35 35 -35 105 0 36 5 75 10 86 17 30 46 24 59 -12z"/>
<path d="M3543 1575 c-28 -12 -43 -32 -43 -57 0 -6 11 1 25 16 27 29 29 30 56
16 37 -20 25 -70 -33 -136 l-51 -59 68 -3 c69 -3 84 4 85 38 0 11 -3 11 -12 2
-7 -7 -32 -12 -56 -12 l-45 0 45 48 c54 58 64 83 46 118 -17 35 -46 45 -85 29z"/>
<path d="M3890 1577 c-31 -15 -39 -66 -15 -91 15 -14 14 -18 -7 -46 -21 -29
-21 -33 -7 -58 11 -21 24 -28 53 -30 70 -6 101 54 52 103 -23 23 -23 24 -5 41
50 45 -9 112 -71 81z m58 -35 c5 -32 -15 -54 -38 -42 -24 13 -33 40 -19 57 18
21 53 12 57 -15z m-8 -112 c23 -23 25 -41 8 -58 -34 -34 -82 13 -59 57 14 26
26 26 51 1z"/>
<path d="M4593 1575 c-25 -11 -34 -23 -43 -56 -30 -110 32 -201 110 -159 40
21 52 121 22 179 -21 42 -48 53 -89 36z m57 -31 c13 -34 13 -140 0 -165 -15
-27 -45 -24 -58 6 -7 14 -12 50 -12 80 0 30 5 66 12 80 15 33 46 32 58 -1z"/>
<path d="M4849 1578 c-25 -8 -56 -54 -45 -66 3 -3 8 3 12 12 10 25 41 39 63
27 44 -24 33 -68 -35 -148 l-46 -53 70 0 c64 0 70 2 80 25 12 26 4 33 -15 14
-6 -6 -27 -9 -47 -7 l-36 3 39 46 c48 56 59 90 38 123 -19 28 -43 36 -78 24z"/>
<path d="M5030 1581 c-56 -14 -78 -141 -37 -205 20 -30 75 -36 100 -11 24 24
40 83 32 123 -12 69 -49 104 -95 93z m49 -42 c26 -74 5 -179 -34 -179 -23 0
-35 35 -35 105 0 36 5 75 10 86 17 30 46 24 59 -12z"/>
<path d="M5214 1540 c-92 -125 -93 -130 -29 -130 43 0 45 -1 45 -30 0 -20 5
-30 15 -30 9 0 15 10 15 26 0 17 6 28 20 31 25 7 26 19 0 26 -17 4 -20 15 -22
83 l-3 79 -41 -55z m13 -107 c-3 -2 -19 -3 -36 -1 l-31 3 33 50 32 49 3 -48
c2 -26 1 -50 -1 -53z"/>
<path d="M5893 1575 c-25 -11 -34 -23 -43 -56 -30 -110 32 -201 110 -159 40
21 52 121 22 179 -21 42 -48 53 -89 36z m57 -31 c13 -34 13 -140 0 -165 -15
-27 -45 -24 -58 6 -7 14 -12 50 -12 80 0 30 5 66 12 80 15 33 46 32 58 -1z"/>
<path d="M6320 1577 c-31 -15 -39 -66 -15 -91 15 -14 14 -18 -7 -46 -21 -29
-21 -33 -7 -58 11 -21 24 -28 53 -30 70 -6 101 54 52 103 -23 23 -23 24 -5 41
50 45 -9 112 -71 81z m58 -35 c5 -32 -15 -54 -38 -42 -24 13 -33 40 -19 57 18
21 53 12 57 -15z m-8 -112 c23 -23 25 -41 8 -58 -34 -34 -82 13 -59 57 14 26
26 26 51 1z"/>
<path d="M6493 1580 c-28 -12 -43 -40 -43 -84 0 -43 35 -72 75 -62 15 4 25 2
25 -5 0 -16 -56 -69 -74 -69 -9 0 -16 -4 -16 -9 0 -17 62 8 92 36 36 35 51 87
38 135 -15 53 -53 75 -97 58z m55 -35 c20 -43 15 -83 -10 -91 -25 -8 -58 25
-58 58 0 55 48 78 68 33z"/>
<path d="M7199 1578 c-34 -11 -53 -56 -52 -121 1 -65 27 -101 76 -105 32 -3
39 1 57 30 26 43 27 122 1 164 -22 36 -45 45 -82 32z m52 -30 c16 -30 16 -137
0 -166 -15 -29 -41 -25 -59 8 -16 31 -11 142 7 164 19 22 38 20 52 -6z"/>
<path d="M7460 1582 c-24 -8 -50 -34 -50 -50 0 -12 5 -10 20 6 25 27 32 27 60
4 32 -26 20 -67 -42 -136 l-50 -57 72 3 c67 3 73 5 82 28 7 20 7 23 -3 13 -7
-7 -33 -13 -58 -13 l-45 0 31 33 c45 48 63 79 63 108 0 38 -45 72 -80 61z"/>
<path d="M7623 1575 c-25 -11 -34 -23 -43 -56 -30 -110 32 -201 110 -159 40
21 52 121 22 179 -21 42 -48 53 -89 36z m57 -31 c13 -34 13 -140 0 -165 -15
-27 -45 -24 -58 6 -7 14 -12 50 -12 80 0 30 5 66 12 80 15 33 46 32 58 -1z"/>
<path d="M7805 1582 c-46 -10 -61 -58 -28 -94 15 -17 15 -19 0 -36 -20 -22
-22 -73 -5 -90 17 -17 84 -15 102 4 22 22 20 56 -6 89 -19 25 -20 28 -5 37 20
11 23 61 5 75 -19 15 -41 20 -63 15z m45 -27 c10 -12 9 -20 -5 -41 -16 -25
-17 -25 -36 -8 -19 17 -25 45 -12 57 11 12 40 8 53 -8z m-6 -124 c35 -39 -1
-93 -39 -61 -15 13 -20 61 -8 73 12 12 29 7 47 -12z"/>
<path d="M8499 1578 c-34 -11 -53 -56 -52 -121 1 -65 27 -101 76 -105 32 -3
39 1 57 30 26 43 27 122 1 164 -22 36 -45 45 -82 32z m52 -30 c16 -30 16 -137
0 -166 -15 -29 -41 -25 -59 8 -16 31 -11 142 7 164 19 22 38 20 52 -6z"/>
<path d="M8760 1582 c-24 -8 -50 -34 -50 -50 0 -12 5 -10 20 6 25 27 32 27 60
4 32 -26 20 -67 -42 -136 l-50 -57 72 3 c67 3 73 5 82 28 7 20 7 23 -3 13 -7
-7 -33 -13 -58 -13 l-45 0 31 33 c45 48 63 79 63 108 0 38 -45 72 -80 61z"/>
<path d="M8926 1513 c-31 -43 -56 -83 -56 -90 0 -7 19 -13 48 -15 43 -3 47 -5
50 -30 5 -39 32 -37 32 2 0 20 5 30 15 30 8 0 15 5 15 10 0 6 -7 10 -15 10
-12 0 -15 15 -15 74 0 41 -4 77 -10 81 -5 3 -34 -29 -64 -72z m44 -28 c0 -49
-10 -59 -54 -53 l-26 3 33 47 c17 26 35 48 40 48 4 0 7 -20 7 -45z"/>
<path d="M9130 1572 c-48 -24 -80 -75 -80 -127 0 -56 30 -95 73 -95 38 0 50 7
66 37 29 56 -5 119 -60 111 -18 -3 -29 0 -29 7 0 16 49 65 66 65 7 0 16 5 19
10 10 15 -16 12 -55 -8z m20 -107 c13 -15 16 -77 5 -94 -9 -15 -40 -14 -53 2
-17 22 -25 77 -12 92 16 19 44 19 60 0z"/>
<path d="M563 1569 c14 -8 17 -25 17 -104 0 -79 -3 -96 -17 -104 -13 -8 8 -10
78 -11 92 0 97 1 103 23 10 38 7 41 -17 19 -16 -15 -36 -22 -65 -22 l-42 0 0
99 c0 86 2 100 18 104 9 3 -8 5 -38 6 -42 0 -51 -2 -37 -10z"/>
<path d="M773 1569 c14 -8 17 -25 17 -104 0 -79 -3 -96 -17 -104 -14 -8 -5
-10 37 -10 42 0 51 2 38 10 -15 8 -18 25 -18 104 0 79 3 96 18 104 13 8 4 10
-38 10 -42 0 -51 -2 -37 -10z"/>
<path d="M883 1569 c14 -8 17 -25 17 -104 0 -79 -3 -96 -17 -104 -14 -8 -5
-10 37 -10 42 0 51 2 38 10 -12 7 -18 22 -18 49 0 39 1 40 34 40 44 0 79 28
79 65 0 47 -33 65 -117 65 -53 -1 -67 -3 -53 -11z m115 -21 c29 -29 7 -78 -35
-78 -21 0 -23 5 -23 45 0 40 2 45 23 45 13 0 28 -5 35 -12z"/>
<path d="M3720 1565 c-19 -11 -21 -14 -7 -15 15 0 17 -11 17 -94 0 -82 -2 -95
-17 -99 -10 -3 7 -5 37 -5 30 0 47 2 38 5 -16 4 -18 18 -18 114 0 117 -2 121
-50 94z"/>
<path d="M6150 1565 c-19 -11 -21 -14 -7 -15 15 0 17 -11 17 -94 0 -82 -2 -95
-17 -99 -10 -3 7 -5 37 -5 30 0 47 2 38 5 -16 4 -18 18 -18 114 0 117 -2 121
-50 94z"/>
<path d="M1488 1503 c-19 -5 -25 -23 -8 -23 6 0 10 -25 10 -55 0 -41 -4 -56
-17 -64 -14 -8 -7 -10 32 -10 39 0 46 2 33 10 -15 8 -18 24 -18 79 0 39 -3 69
-7 69 -5 -1 -16 -3 -25 -6z"/>
<path d="M1758 1503 c-19 -5 -25 -23 -8 -23 6 0 10 -25 10 -55 0 -41 -4 -56
-17 -64 -14 -8 -7 -10 32 -10 39 0 46 2 33 10 -15 8 -18 24 -18 79 0 39 -3 69
-7 69 -5 -1 -16 -3 -25 -6z"/>
<path d="M1841 1501 c-9 -6 -10 -11 -2 -15 15 -10 14 -109 -1 -124 -9 -9 -4
-12 26 -12 32 0 37 2 27 14 -18 22 -10 107 12 120 14 8 20 8 27 -4 14 -21 12
-104 -2 -118 -9 -9 -3 -12 27 -12 30 0 36 3 27 12 -7 7 -12 37 -12 68 0 60
-11 80 -45 80 -12 0 -26 -5 -33 -12 -9 -9 -12 -9 -12 0 0 14 -19 15 -39 3z"/>
<path d="M2036 1494 c-19 -18 -21 -55 -4 -72 8 -8 8 -15 -1 -26 -7 -8 -10 -24
-6 -36 3 -11 2 -20 -3 -20 -16 0 -23 -31 -11 -46 15 -19 89 -18 117 2 24 16
30 62 10 69 -7 2 -30 6 -50 10 -43 7 -52 25 -13 25 32 0 68 36 62 60 -3 11 2
22 12 26 12 6 9 9 -14 14 -51 13 -83 11 -99 -6z m61 -24 c14 -29 0 -62 -22
-54 -30 12 -32 91 -2 82 6 -3 17 -15 24 -28z m41 -135 c12 -11 -23 -35 -52
-35 -41 0 -58 12 -50 34 6 15 15 17 52 12 25 -3 48 -8 50 -11z"/>
<path d="M1070 1430 c0 -5 20 -10 45 -10 25 0 45 5 45 10 0 6 -20 10 -45 10
-25 0 -45 -4 -45 -10z"/>
<path d="M3437 1384 c-14 -14 -7 -35 11 -32 9 2 17 10 17 17 0 16 -18 25 -28
15z"/>
<path d="M4737 1384 c-14 -14 -7 -35 11 -32 9 2 17 10 17 17 0 16 -18 25 -28
15z"/>
<path d="M6037 1384 c-14 -15 -6 -34 14 -34 14 0 19 5 17 17 -3 18 -20 27 -31
17z"/>
<path d="M7337 1384 c-14 -15 -6 -34 14 -34 14 0 19 5 17 17 -3 18 -20 27 -31
17z"/>
<path d="M8635 1381 c-8 -15 3 -31 21 -31 9 0 14 7 12 17 -4 20 -24 28 -33 14z"/>
<path d="M406 1170 c-40 -12 -65 -38 -76 -79 -13 -48 3 -104 37 -131 32 -25
108 -27 141 -4 34 24 26 34 -13 14 -65 -33 -125 6 -125 81 0 103 81 141 142
65 17 -21 18 -21 18 17 0 36 -1 37 -34 37 -19 0 -40 2 -48 4 -7 2 -26 0 -42
-4z"/>
<path d="M1264 1169 c-52 -15 -78 -51 -78 -115 -1 -50 2 -58 32 -85 26 -23 42
-29 78 -29 24 0 56 7 69 16 39 25 29 34 -14 12 -36 -18 -42 -18 -75 -4 -25 10
-37 23 -41 43 -4 15 -8 33 -10 40 -6 17 13 79 28 91 7 6 24 13 39 17 22 6 33
1 59 -24 17 -17 32 -31 35 -31 7 0 4 44 -4 56 -10 15 -80 23 -118 13z"/>
<path d="M2043 1173 c-23 -4 -33 -23 -13 -23 15 0 13 -197 -2 -203 -7 -3 7 -5
32 -5 25 0 39 2 33 5 -9 3 -13 37 -13 119 0 63 -3 113 -7 113 -5 -1 -18 -4
-30 -6z"/>
<path d="M2384 1169 c-10 -17 13 -36 27 -22 12 12 4 33 -11 33 -5 0 -12 -5
-16 -11z"/>
<path d="M3300 1171 c-56 -14 -78 -141 -37 -205 20 -30 75 -36 100 -11 24 24
40 83 32 123 -12 69 -49 104 -95 93z m49 -42 c26 -74 5 -179 -34 -179 -23 0
-35 35 -35 105 0 36 5 75 10 86 17 30 46 24 59 -12z"/>
<path d="M3543 1165 c-28 -12 -43 -32 -43 -57 0 -6 11 1 25 16 27 29 29 30 56
16 37 -20 25 -70 -33 -136 l-51 -59 68 -3 c69 -3 84 4 85 37 0 12 -3 12 -12 3
-7 -7 -32 -12 -56 -12 l-45 0 45 48 c54 58 64 83 46 118 -17 35 -46 45 -85 29z"/>
<path d="M3719 1168 c-25 -8 -56 -54 -45 -66 3 -3 8 3 12 12 10 25 41 39 63
27 44 -24 33 -68 -35 -148 l-46 -53 70 0 c64 0 70 2 80 25 12 26 4 33 -15 14
-6 -6 -27 -9 -47 -7 l-36 3 39 46 c48 56 59 90 38 123 -19 28 -43 36 -78 24z"/>
<path d="M3935 1166 c-17 -7 -43 -28 -58 -45 -35 -42 -39 -129 -7 -161 25 -25
81 -26 103 -2 48 53 16 138 -49 130 l-32 -4 14 29 c9 16 31 35 50 43 19 8 34
16 34 19 0 9 -24 5 -55 -9z m15 -116 c16 -29 8 -81 -13 -94 -15 -9 -22 -7 -38
13 -18 22 -26 81 -12 94 14 15 53 6 63 -13z"/>
<path d="M4593 1165 c-25 -11 -34 -23 -43 -56 -30 -110 32 -201 110 -159 40
21 52 121 22 179 -21 42 -48 53 -89 36z m57 -31 c13 -34 13 -140 0 -165 -15
-27 -45 -24 -58 6 -7 14 -12 50 -12 80 0 30 5 66 12 80 15 33 46 32 58 -1z"/>
<path d="M4849 1168 c-25 -8 -56 -54 -45 -66 3 -3 8 3 12 12 10 25 41 39 63
27 44 -24 33 -68 -35 -148 l-46 -53 70 0 c64 0 70 2 80 25 12 26 4 33 -15 14
-6 -6 -27 -9 -47 -7 l-36 3 39 46 c48 56 59 90 38 123 -19 28 -43 36 -78 24z"/>
<path d="M5030 1171 c-56 -14 -78 -141 -37 -205 20 -30 75 -36 100 -11 24 24
40 83 32 123 -12 69 -49 104 -95 93z m49 -42 c26 -74 5 -179 -34 -179 -23 0
-35 35 -35 105 0 36 5 75 10 86 17 30 46 24 59 -12z"/>
<path d="M5200 1172 c-21 -6 -50 -33 -50 -45 0 -6 9 -2 19 7 27 25 65 17 69
-14 3 -17 -4 -31 -25 -47 -27 -22 -27 -23 -6 -23 13 0 30 -11 39 -25 15 -23
15 -27 -1 -51 -12 -18 -22 -24 -36 -20 -10 3 -28 9 -39 12 -14 5 -20 2 -20
-10 0 -25 84 -22 110 4 25 25 27 82 4 105 -13 12 -14 19 -5 28 34 34 -11 95
-59 79z"/>
<path d="M5893 1165 c-25 -11 -34 -23 -43 -56 -30 -110 32 -201 110 -159 40
21 52 121 22 179 -21 42 -48 53 -89 36z m57 -31 c13 -34 13 -140 0 -165 -15
-27 -45 -24 -58 6 -7 14 -12 50 -12 80 0 30 5 66 12 80 15 33 46 32 58 -1z"/>
<path d="M6320 1167 c-31 -15 -39 -66 -15 -91 15 -14 14 -18 -7 -46 -21 -29
-21 -33 -7 -58 11 -21 24 -28 53 -30 70 -6 101 54 52 103 -23 23 -23 24 -5 41
50 45 -9 112 -71 81z m58 -35 c5 -32 -15 -54 -38 -42 -24 13 -33 40 -19 57 18
21 53 12 57 -15z m-8 -112 c23 -23 25 -41 8 -58 -34 -34 -82 13 -59 57 14 26
26 26 51 1z"/>
<path d="M6505 1172 c-46 -10 -61 -58 -28 -94 15 -17 15 -19 0 -36 -20 -22
-22 -73 -5 -90 17 -17 84 -15 102 4 22 22 20 56 -6 89 -19 25 -20 28 -5 37 20
11 23 61 5 75 -19 15 -41 20 -63 15z m45 -27 c10 -12 9 -20 -5 -41 -16 -25
-17 -25 -36 -8 -19 17 -25 45 -12 57 11 12 40 8 53 -8z m-6 -124 c35 -39 -1
-93 -39 -61 -15 13 -20 61 -8 73 12 12 29 7 47 -12z"/>
<path d="M7199 1168 c-34 -11 -53 -56 -52 -121 1 -65 27 -101 76 -105 32 -3
39 1 57 30 26 43 27 122 1 164 -22 36 -45 45 -82 32z m52 -30 c16 -30 16 -137
0 -166 -15 -29 -41 -25 -59 8 -16 31 -11 142 7 164 19 22 38 20 52 -6z"/>
<path d="M7460 1172 c-24 -8 -50 -34 -50 -50 0 -12 5 -10 20 6 25 27 32 27 60
4 32 -26 20 -67 -42 -136 l-50 -57 72 3 c67 3 73 5 82 28 7 20 7 23 -3 13 -7
-7 -33 -13 -58 -13 l-45 0 31 33 c45 48 63 79 63 108 0 38 -45 72 -80 61z"/>
<path d="M7630 1159 c-30 -15 -32 -18 -12 -19 21 0 22 -4 22 -82 0 -86 -4
-101 -30 -111 -8 -3 10 -5 40 -5 30 0 47 2 38 5 -15 4 -18 20 -20 118 l-3 113
-35 -19z"/>
<path d="M7796 1103 c-31 -43 -56 -83 -56 -90 0 -7 19 -13 48 -15 43 -3 47 -5
50 -30 5 -39 32 -37 32 2 0 20 5 30 15 30 8 0 15 5 15 10 0 6 -7 10 -15 10
-12 0 -15 15 -15 74 0 41 -4 77 -10 81 -5 3 -34 -29 -64 -72z m44 -28 c0 -49
-10 -59 -54 -53 l-26 3 33 47 c17 26 35 48 40 48 4 0 7 -20 7 -45z"/>
<path d="M8481 1161 c-11 -11 -23 -33 -27 -48 -3 -16 -7 -33 -9 -39 -6 -20 16
-98 32 -116 9 -11 30 -18 50 -18 45 0 73 44 73 116 0 94 -69 155 -119 105z
m63 -101 c0 -85 -12 -126 -31 -106 -14 13 -16 172 -3 196 21 40 34 6 34 -90z"/>
<path d="M8736 1159 c-14 -11 -26 -27 -26 -35 0 -12 5 -11 26 3 26 16 27 16
45 -5 23 -29 12 -65 -42 -126 -21 -24 -39 -47 -39 -50 0 -3 34 -6 75 -6 65 0
75 2 75 18 0 9 3 28 7 42 6 24 6 24 -14 8 -11 -10 -35 -18 -53 -18 l-34 0 41
43 c55 56 63 88 29 121 -31 31 -55 33 -90 5z"/>
<path d="M8925 1107 c-30 -41 -55 -84 -55 -95 0 -19 6 -22 45 -22 41 0 45 -2
45 -25 0 -20 5 -25 25 -25 20 0 25 5 25 25 0 14 5 25 10 25 6 0 10 9 10 20 0
11 -4 20 -10 20 -6 0 -10 32 -10 75 0 97 -12 98 -85 2z m35 -32 c0 -43 -1 -45
-30 -45 -16 0 -30 2 -30 5 0 7 52 85 56 85 2 0 4 -20 4 -45z"/>
<path d="M9072 1160 c-15 -15 -22 -33 -22 -60 0 -44 20 -70 56 -70 43 0 21
-42 -41 -79 -17 -11 -16 -12 14 -7 95 16 148 115 106 195 -22 44 -77 54 -113
21z m66 -53 c2 -44 0 -57 -11 -57 -19 0 -27 22 -27 69 0 77 34 66 38 -12z"/>
<path d="M563 1159 c14 -8 17 -25 17 -104 0 -79 -3 -96 -17 -104 -13 -8 8 -10
78 -11 92 0 97 1 103 23 10 38 7 41 -17 19 -16 -15 -36 -22 -65 -22 l-42 0 0
99 c0 86 2 100 18 104 9 3 -8 5 -38 6 -42 0 -51 -2 -37 -10z"/>
<path d="M773 1159 c14 -8 17 -25 17 -104 0 -79 -3 -96 -17 -104 -14 -8 -5
-10 37 -10 42 0 51 2 38 10 -15 8 -18 25 -18 104 0 79 3 96 18 104 13 8 4 10
-38 10 -42 0 -51 -2 -37 -10z"/>
<path d="M883 1159 c14 -8 17 -25 17 -104 0 -79 -3 -96 -17 -104 -14 -8 -5
-10 37 -10 42 0 51 2 38 10 -12 7 -18 22 -18 49 0 39 1 40 34 40 44 0 79 28
79 65 0 47 -33 65 -117 65 -53 -1 -67 -3 -53 -11z m115 -21 c29 -29 7 -78 -35
-78 -21 0 -23 5 -23 45 0 40 2 45 23 45 13 0 28 -5 35 -12z"/>
<path d="M6150 1155 c-19 -11 -21 -14 -7 -15 15 0 17 -11 17 -94 0 -82 -2 -95
-17 -99 -10 -3 7 -5 37 -5 30 0 47 2 38 5 -16 4 -18 18 -18 114 0 117 -2 121
-50 94z"/>
<path d="M2294 1118 c-19 -21 -21 -30 -14 -89 4 -37 10 -71 14 -78 10 -15 41
-14 55 3 10 12 8 13 -8 9 -20 -5 -21 -1 -21 56 0 48 3 61 15 61 8 0 15 5 15
10 0 6 -6 10 -14 10 -8 0 -16 9 -18 21 -3 21 -3 21 -24 -3z"/>
<path d="M1410 1090 c10 -6 17 -32 20 -77 5 -66 6 -68 33 -71 16 -2 34 2 42 8
9 8 14 8 17 0 2 -8 11 -8 28 -1 14 5 19 10 13 10 -9 1 -13 22 -13 71 l0 70
-31 0 c-28 0 -29 -1 -15 -16 34 -33 10 -135 -28 -121 -12 5 -16 20 -16 72 l0
65 -32 0 c-25 0 -29 -3 -18 -10z"/>
<path d="M1595 1090 c-11 -5 -14 -9 -7 -9 8 -1 12 -21 12 -65 0 -42 -4 -66
-12 -69 -7 -3 6 -6 30 -6 40 -1 42 0 28 15 -19 18 -22 94 -4 112 7 7 20 12 30
12 15 0 18 -9 18 -64 0 -42 -4 -66 -12 -69 -7 -3 7 -6 32 -6 27 0 40 3 32 8
-9 5 -12 26 -10 67 2 48 6 59 22 62 26 5 36 -14 36 -70 0 -34 -5 -50 -17 -57
-14 -8 -8 -10 27 -10 25 0 39 3 33 6 -8 3 -13 25 -13 59 0 31 -5 64 -10 75
-11 20 -45 25 -69 10 -9 -6 -21 -5 -32 2 -14 9 -26 9 -49 0 -16 -6 -30 -7 -30
-2 0 11 -8 11 -35 -1z"/>
<path d="M1850 1090 c10 -6 17 -32 20 -77 5 -66 6 -68 33 -71 16 -2 34 2 42 8
9 8 14 8 17 0 2 -8 11 -8 28 -1 14 5 19 10 13 10 -9 1 -13 22 -13 71 l0 70
-31 0 c-28 0 -29 -1 -15 -16 34 -33 10 -135 -28 -121 -12 5 -16 20 -16 72 l0
65 -32 0 c-25 0 -29 -3 -18 -10z"/>
<path d="M2142 1088 c-17 -17 -15 -38 3 -38 8 0 15 6 15 14 0 22 19 30 35 16
24 -20 17 -35 -21 -49 -42 -15 -64 -52 -44 -76 15 -18 51 -20 68 -3 9 9 12 9
12 0 0 -14 36 -16 45 -2 3 6 1 10 -4 10 -6 0 -11 22 -11 51 0 68 -13 89 -53
89 -18 0 -38 -5 -45 -12z m68 -81 c0 -25 -17 -47 -37 -47 -19 0 -16 47 5 59
26 16 32 13 32 -12z"/>
<path d="M2388 1093 c-19 -5 -25 -23 -8 -23 6 0 10 -25 10 -55 0 -41 -4 -56
-17 -64 -14 -8 -7 -10 32 -10 39 0 46 2 33 10 -15 8 -18 24 -18 79 0 39 -3 69
-7 69 -5 -1 -16 -3 -25 -6z"/>
<path d="M2463 1078 c8 -13 25 -49 38 -80 12 -32 26 -58 29 -58 4 0 15 21 25
48 9 26 26 62 36 80 l18 32 -25 0 c-14 0 -22 -4 -19 -10 7 -11 -15 -90 -25
-90 -4 0 -14 18 -22 39 -11 28 -13 42 -5 50 8 8 1 11 -26 11 -36 0 -37 -1 -24
-22z"/>
<path d="M2640 1078 c-26 -29 -28 -98 -2 -121 29 -26 77 -22 101 10 12 14 19
29 15 32 -3 3 -10 -2 -15 -12 -11 -20 -59 -23 -77 -5 -7 7 -12 22 -12 35 0 21
4 23 50 23 54 0 65 14 32 43 -26 24 -67 21 -92 -5z m68 -15 c2 -9 -7 -13 -27
-13 -30 0 -39 9 -24 24 11 10 46 3 51 -11z"/>
<path d="M1070 1020 c0 -5 20 -10 45 -10 25 0 45 5 45 10 0 6 -20 10 -45 10
-25 0 -45 -4 -45 -10z"/>
<path d="M8630 985 c-18 -21 -5 -45 25 -45 20 0 25 5 25 24 0 13 -7 27 -16 30
-21 8 -20 8 -34 -9z"/>
<path d="M3437 974 c-14 -14 -7 -35 11 -32 9 2 17 10 17 17 0 16 -18 25 -28
15z"/>
<path d="M4737 974 c-14 -14 -7 -35 11 -32 9 2 17 10 17 17 0 16 -18 25 -28
15z"/>
<path d="M6037 974 c-14 -15 -6 -34 14 -34 14 0 19 5 17 17 -3 18 -20 27 -31
17z"/>
<path d="M7337 974 c-14 -15 -6 -34 14 -34 14 0 19 5 17 17 -3 18 -20 27 -31
17z"/>
<path d="M110 750 c0 -7 1567 -10 4680 -10 3113 0 4680 3 4680 10 0 7 -1567
10 -4680 10 -3113 0 -4680 -3 -4680 -10z"/>
<path d="M1794 579 c-10 -17 13 -36 27 -22 12 12 4 33 -11 33 -5 0 -12 -5 -16
-11z"/>
<path d="M1921 578 c-26 -9 -44 -44 -36 -69 4 -11 29 -36 56 -56 49 -35 60
-58 37 -81 -20 -20 -45 -14 -73 19 -30 37 -34 35 -28 -7 5 -30 6 -31 60 -33
77 -2 108 28 87 83 -3 9 -28 31 -55 51 -50 36 -63 67 -33 79 20 8 48 -8 68
-36 16 -22 16 -22 16 14 0 35 -1 36 -40 40 -22 2 -49 0 -59 -4z"/>
<path d="M3287 579 c-58 -34 -63 -189 -7 -219 75 -40 135 44 110 151 -16 67
-57 95 -103 68z m51 -104 c2 -90 -6 -124 -27 -111 -7 5 -11 45 -11 107 0 90 2
100 18 97 14 -3 17 -17 20 -93z"/>
<path d="M3542 583 c-14 -6 -46 -63 -35 -63 5 0 16 7 27 15 24 18 56 3 56 -28
0 -24 -18 -55 -68 -116 l-34 -41 75 0 c79 0 87 5 87 53 0 16 -3 18 -12 9 -7
-7 -27 -12 -46 -12 l-34 0 41 46 c30 35 41 55 41 80 0 48 -49 77 -98 57z"/>
<path d="M3676 559 c-9 -48 -8 -51 16 -35 29 20 78 21 78 2 0 -8 -13 -51 -30
-95 -27 -75 -28 -81 -11 -81 15 0 27 24 58 115 22 63 37 117 35 120 -3 3 -36
5 -72 5 l-67 0 -7 -31z"/>
<path d="M3952 582 c-74 -22 -121 -102 -101 -174 16 -63 90 -81 128 -32 40 51
21 110 -38 123 l-34 6 28 33 c15 17 33 32 40 32 8 0 17 5 20 10 7 11 -8 12
-43 2z m-14 -165 c2 -44 0 -57 -11 -57 -19 0 -27 22 -27 69 0 77 34 66 38 -12z"/>
<path d="M4583 575 c-69 -49 -41 -225 35 -225 35 0 46 8 66 47 39 77 0 193
-66 193 -8 0 -23 -7 -35 -15z m55 -105 c3 -94 -8 -132 -28 -100 -11 17 -14
183 -3 194 19 19 28 -8 31 -94z"/>
<path d="M4825 559 c-30 -36 -27 -48 6 -25 30 21 59 5 59 -33 0 -20 -15 -47
-45 -84 -25 -31 -45 -58 -45 -62 0 -3 32 -5 72 -3 l72 3 7 33 c6 30 -3 43 -16
22 -3 -5 -22 -10 -42 -10 l-36 0 42 45 c49 53 56 103 19 129 -34 24 -63 19
-93 -15z"/>
<path d="M4976 559 c-9 -48 -8 -51 16 -35 29 20 78 21 78 2 0 -8 -13 -51 -30
-95 -27 -75 -28 -81 -11 -81 15 0 27 24 58 115 22 63 37 117 35 120 -3 3 -36
5 -72 5 l-67 0 -7 -31z"/>
<path d="M5198 573 c-40 -16 -50 -32 -20 -29 15 1 17 -10 20 -79 3 -72 1 -82
-19 -97 -21 -18 -19 -18 47 -17 57 0 65 2 47 11 -22 10 -23 17 -23 120 0 59
-3 108 -7 107 -5 -1 -25 -8 -45 -16z"/>
<path d="M5883 575 c-69 -49 -41 -225 35 -225 35 0 46 8 66 47 39 77 0 193
-66 193 -8 0 -23 -7 -35 -15z m55 -105 c3 -94 -8 -132 -28 -100 -11 17 -14
183 -3 194 19 19 28 -8 31 -94z"/>
<path d="M6125 559 c-30 -36 -27 -48 6 -25 30 21 59 5 59 -33 0 -20 -15 -47
-45 -84 -25 -31 -45 -58 -45 -62 0 -3 32 -5 72 -3 l72 3 7 33 c6 30 -3 43 -16
22 -3 -5 -22 -10 -42 -10 l-36 0 42 45 c49 53 56 103 19 129 -34 24 -63 19
-93 -15z"/>
<path d="M6317 583 c-5 -8 -37 -113 -37 -120 0 -2 11 -3 25 -3 60 0 103 -46
72 -78 -14 -14 -18 -13 -41 1 -29 19 -52 22 -61 7 -12 -19 17 -40 55 -40 104
0 123 138 22 158 -51 11 -43 27 14 30 41 2 53 7 57 22 3 10 2 21 -1 24 -8 9
-100 7 -105 -1z"/>
<path d="M6476 569 c-32 -25 -35 -45 -2 -24 13 8 31 13 40 9 24 -9 20 -51 -6
-65 l-22 -12 27 -13 c33 -18 50 -48 42 -74 -8 -25 -24 -25 -64 -3 -23 14 -33
15 -42 6 -20 -20 8 -43 53 -43 30 0 46 7 69 29 32 33 37 65 14 99 -12 17 -13
26 -5 42 9 17 8 27 -5 46 -20 30 -62 32 -99 3z"/>
<path d="M7181 571 c-11 -11 -23 -33 -27 -48 -3 -16 -7 -33 -9 -39 -6 -20 16
-98 32 -116 9 -11 30 -18 50 -18 45 0 73 44 73 116 0 94 -69 155 -119 105z
m63 -101 c0 -85 -12 -126 -31 -106 -14 13 -16 172 -3 196 21 40 34 6 34 -90z"/>
<path d="M7436 569 c-14 -11 -26 -27 -26 -35 0 -12 5 -11 26 3 26 16 27 16 45
-5 23 -29 12 -65 -42 -126 -21 -24 -39 -47 -39 -50 0 -3 34 -6 75 -6 65 0 75
2 75 18 0 9 3 28 7 42 6 24 6 24 -14 8 -11 -10 -35 -18 -53 -18 l-34 0 41 43
c55 56 63 88 29 121 -31 31 -55 33 -90 5z"/>
<path d="M7617 583 c-5 -8 -37 -113 -37 -120 0 -2 11 -3 25 -3 60 0 103 -46
72 -78 -14 -14 -18 -13 -41 1 -29 19 -52 22 -61 7 -12 -19 17 -40 55 -40 104
0 123 138 22 158 -51 11 -43 27 14 30 41 2 53 7 57 22 3 10 2 21 -1 24 -8 9
-100 7 -105 -1z"/>
<path d="M7798 572 c-40 -18 -49 -31 -20 -28 15 1 17 -10 20 -85 3 -81 1 -86
-20 -97 -19 -9 -12 -11 47 -11 66 -1 68 0 47 15 -20 14 -22 23 -22 120 0 57
-3 104 -7 103 -5 0 -25 -8 -45 -17z"/>
<path d="M8499 578 c-34 -11 -53 -56 -52 -121 1 -65 27 -101 76 -105 32 -3 39
1 57 30 26 43 27 122 1 164 -22 36 -45 45 -82 32z m52 -30 c16 -30 16 -137 0
-166 -15 -29 -41 -25 -59 8 -16 31 -11 142 7 164 19 22 38 20 52 -6z"/>
<path d="M8760 582 c-24 -8 -50 -34 -50 -50 0 -12 5 -10 20 6 25 27 32 27 60
4 32 -26 20 -67 -42 -136 l-50 -57 72 3 c67 3 73 5 82 28 7 20 7 23 -3 13 -7
-7 -33 -13 -58 -13 l-45 0 31 33 c45 48 63 79 63 108 0 38 -45 72 -80 61z"/>
<path d="M8926 513 c-31 -43 -56 -83 -56 -90 0 -7 19 -13 48 -15 43 -3 47 -5
50 -30 5 -39 32 -37 32 2 0 20 5 30 15 30 8 0 15 5 15 10 0 6 -7 10 -15 10
-12 0 -15 15 -15 74 0 41 -4 77 -10 81 -5 3 -34 -29 -64 -72z m44 -28 c0 -49
-10 -59 -54 -53 l-26 3 33 47 c17 26 35 48 40 48 4 0 7 -20 7 -45z"/>
<path d="M9096 513 c-31 -43 -56 -83 -56 -90 0 -7 19 -13 48 -15 43 -3 47 -5
50 -30 5 -39 32 -37 32 2 0 20 5 30 15 30 8 0 15 5 15 10 0 6 -7 10 -15 10
-12 0 -15 15 -15 74 0 41 -4 77 -10 81 -5 3 -34 -29 -64 -72z m44 -28 c0 -49
-10 -59 -54 -53 l-26 3 33 47 c17 26 35 48 40 48 4 0 7 -20 7 -45z"/>
<path d="M321 548 c0 -33 0 -33 16 -10 9 12 26 22 39 22 24 0 24 -2 24 -95 0
-79 -3 -96 -17 -104 -14 -8 -5 -10 37 -10 42 0 51 2 38 10 -15 8 -18 25 -18
104 0 93 0 95 24 95 13 0 30 -10 39 -22 16 -23 16 -23 16 10 l1 32 -100 0
-100 0 1 -32z"/>
<path d="M1210 566 c0 -8 -3 -21 -6 -30 -3 -9 -2 -16 4 -16 5 0 12 9 15 20 4
15 14 20 36 20 l31 0 0 -87 c0 -91 -4 -106 -30 -116 -8 -3 12 -5 45 -5 33 0
53 2 45 5 -26 10 -30 25 -30 116 l0 87 30 0 c22 0 33 -6 40 -22 8 -21 9 -20 9
10 l1 32 -95 0 c-75 0 -95 -3 -95 -14z"/>
<path d="M1553 568 c9 -7 36 -57 59 -110 24 -53 47 -98 52 -100 6 -2 29 44 51
100 23 57 48 108 56 113 10 6 2 9 -25 9 -32 0 -36 -2 -27 -14 9 -11 6 -29 -15
-80 -14 -36 -28 -66 -29 -66 -4 0 -51 101 -59 128 -5 15 -2 22 11 25 10 3 -6
5 -36 6 -46 1 -52 -1 -38 -11z"/>
<path d="M538 503 c-19 -5 -25 -23 -8 -23 6 0 10 -25 10 -55 0 -41 -4 -56 -17
-64 -14 -8 -7 -10 31 -11 43 0 47 2 32 13 -13 10 -17 24 -14 62 3 46 5 50 31
53 15 2 27 8 27 13 0 16 -29 22 -45 9 -10 -9 -15 -9 -15 -1 0 11 -3 12 -32 4z"/>
<path d="M662 498 c-16 -16 -15 -38 2 -38 7 0 16 9 19 21 7 25 31 20 35 -7 2
-13 -9 -25 -35 -39 -68 -36 -52 -104 18 -78 16 6 29 8 29 3 0 -4 30 -8 68 -8
37 0 61 2 55 5 -8 3 -13 26 -13 63 0 46 4 59 17 64 27 11 45 -22 40 -73 -3
-24 -11 -47 -18 -52 -9 -6 2 -8 31 -8 25 0 39 3 33 6 -8 3 -13 25 -13 59 0 31
-5 64 -10 75 -12 21 -54 26 -66 8 -5 -8 -9 -8 -14 1 -5 7 -16 9 -30 5 -16 -5
-19 -10 -11 -18 13 -13 15 -113 2 -121 -24 -15 -39 7 -44 66 -3 34 -11 64 -19
69 -19 13 -62 11 -76 -3z m54 -114 c-7 -20 -32 -18 -41 3 -4 12 1 24 17 37 23
18 23 18 26 -4 2 -12 1 -28 -2 -36z"/>
<path d="M982 498 c-24 -24 -14 -58 23 -79 20 -12 35 -29 35 -40 0 -27 -35
-25 -54 3 l-16 22 0 -27 c0 -25 3 -27 38 -27 73 0 85 52 22 94 -26 17 -37 31
-34 41 9 22 30 18 48 -7 l16 -22 0 27 c0 24 -4 27 -33 27 -18 0 -38 -5 -45
-12z"/>
<path d="M1419 491 c-32 -26 -34 -105 -5 -127 28 -20 73 -17 96 6 29 29 25 45
-6 21 -29 -23 -55 -16 -74 19 -16 30 -4 40 46 40 48 0 57 15 28 44 -21 22 -57
20 -85 -3z m65 -17 c4 -10 -3 -14 -29 -14 -39 0 -41 2 -20 24 17 17 40 12 49
-10z"/>
<path d="M1786 497 c-17 -12 -17 -14 -2 -20 22 -9 22 -89 0 -111 -14 -15 -11
-16 28 -15 24 0 37 3 31 6 -9 3 -13 29 -13 79 0 78 -7 88 -44 61z"/>
<path d="M1100 430 c0 -5 18 -10 40 -10 22 0 40 5 40 10 0 6 -18 10 -40 10
-22 0 -40 -4 -40 -10z"/>
<path d="M3432 401 c-21 -13 -10 -46 16 -49 27 -4 40 22 22 43 -14 17 -20 18
-38 6z"/>
<path d="M4732 401 c-21 -13 -10 -46 16 -49 27 -4 40 22 22 43 -14 17 -20 18
-38 6z"/>
<path d="M6030 395 c-17 -20 -5 -45 20 -45 11 0 23 7 26 15 6 15 -11 45 -26
45 -4 0 -13 -7 -20 -15z"/>
<path d="M7330 395 c-17 -20 -5 -45 20 -45 11 0 23 7 26 15 6 15 -11 45 -26
45 -4 0 -13 -7 -20 -15z"/>
<path d="M8635 381 c-8 -15 3 -31 21 -31 9 0 14 7 12 17 -4 20 -24 28 -33 14z"/>
<path d="M110 155 c0 -13 527 -15 4680 -15 4153 0 4680 2 4680 15 0 13 -527
15 -4680 15 -4153 0 -4680 -2 -4680 -15z"/>
</g>
</svg>
