<?xml version="1.0" standalone="no"?>
<!DOCTYPE svg PUBLIC "-//W3C//DTD SVG 20010904//EN"
 "http://www.w3.org/TR/2001/REC-SVG-20010904/DTD/svg10.dtd">
<svg version="1.0" xmlns="http://www.w3.org/2000/svg"
 width="848.000000pt" height="582.000000pt" viewBox="0 0 848.000000 582.000000"
 preserveAspectRatio="xMidYMid meet">

<g transform="translate(0.000000,582.000000) scale(0.100000,-0.100000)"
fill="#000000" stroke="none">
<path d="M91 5708 c0 -33 0 -33 16 -10 8 12 24 22 34 22 17 0 19 -9 19 -89 0
-62 -4 -91 -13 -94 -6 -3 11 -6 38 -6 39 0 46 2 33 10 -15 8 -18 25 -18 94 0
82 1 85 23 85 15 0 28 -9 35 -22 10 -22 11 -21 11 10 l1 32 -90 0 -90 0 1 -32z"/>
<path d="M395 5730 c-3 -5 -2 -10 4 -10 6 0 11 -38 13 -92 3 -89 4 -93 27 -96
44 -7 72 7 87 44 12 29 13 39 2 62 -11 22 -20 27 -51 27 -36 0 -37 1 -37 38 0
30 -4 37 -19 37 -11 0 -23 -4 -26 -10z m106 -112 c9 -34 -11 -73 -36 -73 -16
0 -21 8 -23 39 -4 51 3 68 30 64 14 -2 24 -13 29 -30z"/>
<path d="M560 5730 c-10 -6 -11 -10 -2 -10 9 0 12 -25 12 -89 0 -62 -4 -91
-12 -94 -7 -3 5 -6 27 -6 30 -1 36 2 27 11 -8 8 -12 46 -12 105 0 95 -5 106
-40 83z"/>
<path d="M940 5720 c-29 -29 -25 -45 6 -21 20 16 31 18 45 10 33 -17 24 -62
-26 -124 l-45 -55 65 0 c36 0 65 4 65 9 0 5 3 18 6 28 6 15 4 16 -7 6 -7 -7
-31 -13 -52 -13 l-40 0 42 45 c43 47 55 97 29 123 -19 19 -66 14 -88 -8z"/>
<path d="M1460 5731 c11 -8 15 -31 15 -96 0 -65 -4 -88 -15 -95 -11 -7 -1 -10
34 -10 43 0 47 2 32 13 -13 9 -17 23 -14 52 l3 40 40 -52 c31 -41 46 -52 69
-52 27 -1 28 -1 9 17 -10 9 -29 29 -42 44 l-24 28 26 24 c32 30 33 37 8 67
-15 19 -30 23 -87 27 -49 2 -65 0 -54 -7z m108 -23 c7 -7 12 -18 12 -24 0 -19
-29 -44 -51 -44 -16 0 -19 7 -19 40 0 35 3 40 23 40 13 0 28 -5 35 -12z"/>
<path d="M2075 5730 c-3 -5 -1 -10 4 -10 16 0 15 -177 -1 -183 -7 -3 5 -5 27
-5 22 0 34 2 28 5 -9 3 -13 34 -13 104 0 91 -2 99 -19 99 -11 0 -23 -4 -26
-10z"/>
<path d="M2702 5728 c-7 -7 -12 -20 -12 -30 0 -9 -8 -22 -17 -27 -17 -10 -17
-10 0 -11 14 0 17 -9 17 -49 0 -32 -6 -55 -16 -65 -14 -15 -11 -16 28 -16 34
1 39 3 26 11 -14 8 -18 23 -18 64 0 50 2 55 23 56 l22 0 -22 9 c-24 10 -29 26
-13 50 7 12 12 12 22 2 16 -16 28 -15 28 3 0 18 -50 21 -68 3z"/>
<path d="M3255 5731 c-3 -5 -1 -12 5 -16 5 -3 10 -15 10 -25 0 -14 -7 -18 -32
-18 -39 1 -68 -31 -68 -77 0 -48 27 -68 87 -61 26 2 49 5 51 5 1 1 -2 10 -8
20 -5 11 -10 56 -10 100 0 64 -3 81 -14 81 -8 0 -17 -4 -21 -9z m4 -85 c7 -8
11 -32 9 -53 -3 -43 -32 -58 -55 -27 -36 49 9 125 46 80z"/>
<path d="M3580 5725 c0 -8 7 -15 15 -15 8 0 15 7 15 15 0 8 -7 15 -15 15 -8 0
-15 -7 -15 -15z"/>
<path d="M4450 5730 c-10 -6 -11 -10 -2 -10 9 0 12 -25 12 -89 0 -62 -4 -91
-12 -94 -7 -3 5 -6 27 -6 30 -1 36 2 27 11 -7 7 -12 23 -12 38 l0 25 24 -30
c13 -16 22 -33 19 -37 -2 -5 11 -8 30 -8 l35 0 -40 40 c-22 22 -38 45 -36 51
2 7 20 20 38 31 l35 18 -28 0 c-18 0 -37 -10 -52 -27 l-24 -28 -1 63 c0 63 -7
73 -40 52z"/>
<path d="M5017 5714 c-32 -32 -42 -74 -27 -119 15 -45 44 -65 96 -65 31 0 48
6 68 26 42 42 40 115 -5 157 -40 37 -96 37 -132 1z m103 -4 c54 -54 27 -170
-41 -170 -32 0 -54 39 -54 97 0 45 4 58 24 74 30 24 46 24 71 -1z"/>
<path d="M6079 5733 c0 -5 0 -50 1 -100 1 -60 -3 -93 -9 -93 -6 0 -11 4 -11 9
0 5 -8 8 -17 7 -15 -1 -19 9 -21 52 -3 48 -1 52 20 53 l23 0 -22 9 c-13 5 -23
17 -23 26 0 13 -4 11 -19 -7 -12 -15 -16 -28 -10 -33 5 -6 9 -36 9 -67 l0 -57
66 -1 c55 0 64 2 54 14 -6 7 -10 33 -8 57 3 38 6 43 28 43 22 0 25 -5 28 -43
2 -24 -2 -50 -9 -58 -9 -12 -6 -14 18 -14 l29 0 -7 62 c-8 71 -26 92 -65 78
-23 -9 -24 -8 -24 30 0 29 -4 40 -15 40 -8 0 -15 -3 -16 -7z"/>
<path d="M6460 5730 c-10 -6 -11 -10 -2 -10 6 0 12 -11 12 -24 0 -19 -5 -23
-27 -23 -35 0 -63 -36 -63 -78 0 -46 22 -64 74 -63 49 1 75 11 57 22 -7 5 -11
42 -11 97 0 91 -5 102 -40 79z m8 -127 c3 -46 1 -53 -15 -53 -27 0 -43 20 -43
51 0 43 10 60 34 57 18 -3 21 -11 24 -55z"/>
<path d="M6675 5719 c-9 -27 4 -39 16 -16 6 9 21 17 34 17 25 0 25 -1 25 -85
0 -69 -3 -86 -17 -94 -14 -8 -7 -10 32 -10 39 0 46 2 33 10 -15 8 -18 25 -18
94 0 84 0 85 25 85 17 0 29 -7 35 -22 8 -21 9 -20 9 10 l1 32 -84 0 c-77 0
-85 -2 -91 -21z"/>
<path d="M7471 5708 c0 -33 0 -33 16 -10 8 12 24 22 34 22 17 0 19 -9 19 -89
0 -62 -4 -91 -12 -94 -7 -3 10 -6 37 -6 39 0 46 2 33 10 -15 8 -18 25 -18 94
0 82 1 85 23 85 15 0 28 -9 35 -22 10 -22 11 -21 11 10 l1 32 -90 0 -90 0 1
-32z"/>
<path d="M7835 5635 c27 -58 52 -105 55 -105 3 0 18 35 34 78 16 42 37 89 48
105 l19 27 -38 -1 c-21 0 -32 -3 -25 -6 18 -7 14 -41 -11 -97 l-23 -49 -28 67
c-24 56 -27 69 -15 77 10 6 1 9 -26 9 l-40 0 50 -105z"/>
<path d="M8000 5725 c0 -8 7 -15 15 -15 8 0 15 7 15 15 0 8 -7 15 -15 15 -8 0
-15 -7 -15 -15z"/>
<path d="M8095 5716 c-23 -34 -13 -56 40 -94 46 -32 54 -49 33 -70 -19 -19
-45 -14 -67 14 l-21 27 0 -32 c0 -31 0 -31 54 -31 60 0 79 14 79 57 0 17 -10
34 -24 44 -89 67 -92 71 -59 89 18 10 25 6 50 -20 24 -26 30 -28 29 -14 -1 37
-14 49 -56 52 -35 3 -44 0 -58 -22z"/>
<path d="M2171 5686 c-14 -14 -19 -26 -13 -26 8 0 12 -21 12 -60 0 -64 12 -80
48 -65 16 8 16 8 0 12 -14 4 -18 15 -18 58 0 43 4 54 18 58 15 4 15 5 0 6 -9
0 -18 10 -20 22 -3 20 -4 20 -27 -5z"/>
<path d="M4121 5686 c-14 -14 -19 -26 -13 -26 8 0 12 -21 12 -60 0 -64 12 -80
48 -65 16 8 16 8 0 12 -14 4 -18 15 -18 58 0 43 4 54 18 58 15 4 15 5 0 6 -9
0 -18 10 -20 22 -3 20 -4 20 -27 -5z"/>
<path d="M300 5671 c-28 -8 -41 -41 -16 -41 9 0 16 7 16 16 0 20 34 14 38 -7
2 -10 -8 -21 -27 -29 -40 -16 -54 -34 -46 -59 5 -17 14 -20 60 -18 29 1 57 6
61 10 4 4 2 7 -4 7 -6 0 -12 22 -14 51 -3 59 -25 81 -68 70z m40 -86 c0 -28
-25 -44 -42 -27 -9 9 -7 17 7 32 24 27 35 25 35 -5z"/>
<path d="M690 5672 c-48 -16 -69 -92 -34 -126 21 -22 67 -20 87 2 24 27 21 35
-7 17 -26 -18 -52 -11 -67 16 -15 29 -3 39 47 39 41 0 44 1 34 20 -13 24 -40
39 -60 32z m28 -29 c2 -9 -7 -13 -28 -13 -28 0 -31 2 -20 15 15 18 41 16 48
-2z"/>
<path d="M1703 5669 c-68 -25 -52 -139 19 -139 24 0 67 35 56 45 -3 3 -11 -1
-18 -10 -7 -8 -18 -15 -26 -15 -19 0 -44 29 -44 51 0 16 7 19 45 19 47 0 53 6
33 32 -18 21 -39 27 -65 17z m35 -26 c2 -8 -6 -13 -22 -13 -25 0 -33 10 -19
24 10 10 36 3 41 -11z"/>
<path d="M3130 5670 c-7 -4 -19 -6 -26 -3 -7 2 -21 0 -31 -6 -10 -6 -12 -11
-5 -11 8 0 12 -18 12 -54 0 -34 -5 -56 -12 -59 -7 -3 5 -6 27 -6 25 0 35 2 27
8 -9 5 -12 25 -10 57 3 44 5 49 26 47 13 -2 22 3 22 12 0 19 -13 26 -30 15z"/>
<path d="M3359 5666 c-34 -17 -48 -76 -25 -110 21 -33 67 -35 96 -4 24 26 18
38 -8 15 -24 -22 -35 -21 -55 1 -31 35 -22 52 28 52 32 0 45 4 45 14 0 30 -48
49 -81 32z m41 -21 c11 -13 8 -15 -19 -15 -30 0 -39 9 -24 23 11 11 30 8 43
-8z"/>
<path d="M4230 5671 c-28 -8 -41 -41 -16 -41 9 0 16 7 16 16 0 20 34 14 38 -7
2 -10 -8 -21 -27 -29 -40 -16 -54 -34 -46 -59 5 -17 14 -20 60 -18 29 1 57 6
61 10 4 4 2 7 -4 7 -6 0 -12 22 -14 51 -3 59 -25 81 -68 70z m40 -86 c0 -28
-25 -44 -42 -27 -9 9 -7 17 7 32 24 27 35 25 35 -5z"/>
<path d="M5420 5670 c-7 -4 -19 -6 -26 -3 -7 2 -21 0 -31 -6 -10 -6 -12 -11
-5 -11 8 0 12 -18 12 -54 0 -34 -5 -56 -12 -59 -7 -3 7 -6 31 -6 39 -1 43 1
27 12 -13 10 -17 24 -14 57 3 40 6 45 26 43 13 -2 22 3 22 12 0 19 -13 26 -30
15z"/>
<path d="M5680 5670 c-8 -5 -26 -6 -41 -3 -15 3 -30 0 -33 -6 -4 -6 -2 -11 3
-11 16 0 14 -107 -1 -113 -7 -3 5 -6 27 -6 30 -1 36 2 27 11 -7 7 -12 31 -12
55 0 32 5 45 20 53 15 8 21 6 30 -9 14 -27 13 -84 -2 -99 -9 -9 -3 -12 28 -12
31 1 36 3 22 11 -26 14 -25 95 0 108 13 7 23 6 30 -1 16 -16 15 -91 0 -106 -9
-9 -3 -12 28 -11 21 0 33 3 27 6 -8 3 -13 23 -13 52 0 63 -17 86 -59 78 -18
-4 -40 -3 -50 2 -10 6 -23 6 -31 1z"/>
<path d="M5888 5668 c-61 -21 -55 -138 7 -138 34 0 54 10 66 32 10 19 10 19
-15 3 -24 -16 -28 -16 -51 -1 -14 9 -25 25 -25 36 0 17 7 20 46 20 37 0 45 3
42 16 -5 27 -39 43 -70 32z m36 -23 c4 -11 -2 -15 -24 -15 -22 0 -28 4 -24 15
4 8 14 15 24 15 10 0 20 -7 24 -15z"/>
<path d="M6920 5670 c-7 -4 -19 -6 -26 -3 -7 2 -21 0 -31 -6 -10 -6 -12 -11
-5 -11 8 0 12 -18 12 -54 0 -34 -5 -56 -12 -59 -7 -3 7 -6 31 -6 39 -1 43 1
27 12 -13 10 -17 24 -14 57 3 40 6 45 26 43 13 -2 22 3 22 12 0 19 -13 26 -30
15z"/>
<path d="M7000 5671 c-28 -8 -41 -41 -16 -41 9 0 16 7 16 16 0 20 34 14 38 -7
2 -10 -8 -21 -27 -29 -40 -16 -54 -34 -46 -59 5 -17 14 -20 60 -18 29 1 57 6
61 10 4 4 2 7 -4 7 -6 0 -12 22 -14 51 -3 59 -25 81 -68 70z m40 -86 c0 -28
-25 -44 -42 -27 -9 9 -7 17 7 32 24 27 35 25 35 -5z"/>
<path d="M7170 5670 c-8 -5 -26 -6 -40 -4 -25 5 -25 5 -25 -65 l0 -71 29 0
c23 0 26 2 17 14 -7 8 -11 34 -9 58 3 36 7 44 26 46 23 4 24 2 20 -57 l-3 -61
30 0 c22 0 26 3 17 12 -7 7 -12 36 -12 65 0 55 -20 81 -50 63z"/>
<path d="M7679 5666 c-34 -17 -48 -76 -25 -110 21 -33 67 -35 96 -4 24 26 18
38 -8 15 -24 -22 -35 -21 -55 1 -31 35 -22 52 28 52 32 0 45 4 45 14 0 30 -48
49 -81 32z m41 -21 c11 -13 8 -15 -19 -15 -30 0 -39 9 -24 23 11 11 30 8 43
-8z"/>
<path d="M1812 5658 c-20 -20 -14 -35 23 -64 39 -29 43 -41 18 -51 -10 -4 -23
2 -35 16 l-18 23 0 -26 c0 -24 4 -26 40 -26 64 0 76 50 19 84 -31 19 -39 46
-13 46 9 0 23 -8 30 -17 12 -17 13 -16 14 5 0 18 -5 22 -33 22 -18 0 -38 -5
-45 -12z"/>
<path d="M1918 5663 c7 -3 12 -25 12 -58 0 -31 5 -57 13 -63 14 -12 102 -11
114 1 3 4 1 7 -5 7 -8 0 -12 21 -12 60 0 59 -1 60 -27 60 -19 0 -24 -3 -15 -9
9 -5 12 -25 10 -57 -3 -41 -6 -49 -23 -49 -17 0 -20 8 -23 58 -3 55 -4 57 -30
56 -15 0 -21 -3 -14 -6z"/>
<path d="M2255 5659 c-13 -19 4 -54 35 -72 34 -20 38 -35 13 -44 -10 -4 -23 2
-35 16 l-18 23 0 -26 c0 -26 2 -27 43 -24 36 3 42 7 45 27 3 18 -6 33 -35 57
-34 29 -36 33 -19 40 13 5 23 1 32 -11 13 -18 14 -18 14 3 0 18 -6 22 -34 22
-19 0 -38 -5 -41 -11z"/>
<path d="M2527 5652 c-21 -23 -22 -71 -1 -100 20 -29 74 -30 99 -2 22 24 25
81 6 104 -19 22 -83 21 -104 -2z m73 -7 c15 -18 16 -83 1 -98 -28 -28 -70 37
-57 87 7 29 36 35 56 11z"/>
<path d="M2936 5654 c-44 -43 -19 -116 42 -122 61 -6 99 80 54 121 -23 21 -76
22 -96 1z m74 -13 c26 -49 -1 -118 -38 -95 -22 15 -35 69 -22 94 14 25 46 26
60 1z"/>
<path d="M3458 5659 c-10 -7 -10 -9 0 -9 8 0 12 -18 12 -54 0 -34 -5 -56 -12
-59 -7 -3 7 -6 32 -6 35 0 41 2 28 10 -12 7 -18 22 -18 47 0 49 8 59 48 60
l32 1 0 -54 c0 -33 -5 -55 -12 -58 -7 -3 5 -6 27 -6 30 -1 36 2 27 11 -7 7
-12 37 -12 68 l0 57 -69 0 c-39 0 -76 -4 -83 -8z"/>
<path d="M3655 5659 c-3 -4 -1 -10 5 -14 14 -9 13 -88 -2 -103 -9 -9 -5 -12
21 -12 28 0 31 2 22 14 -7 8 -11 34 -9 58 3 38 6 43 28 43 22 0 25 -5 28 -43
2 -24 -2 -50 -9 -58 -9 -12 -6 -14 20 -14 23 0 30 3 24 13 -4 6 -10 37 -13 67
l-5 55 -53 1 c-29 1 -55 -2 -57 -7z"/>
<path d="M3832 5658 c-15 -15 -15 -51 0 -66 8 -8 8 -15 -1 -26 -6 -7 -11 -18
-9 -22 1 -5 -3 -19 -10 -31 -11 -20 -9 -24 12 -38 36 -24 103 -5 112 31 8 32
-2 42 -49 46 -41 3 -51 21 -15 26 33 5 48 21 48 48 0 13 5 24 10 24 6 0 10 5
10 10 0 14 -94 12 -108 -2z m58 -17 c13 -25 2 -53 -19 -49 -22 4 -29 68 -7 68
8 0 20 -9 26 -19z m30 -121 c18 -11 6 -26 -30 -35 -29 -7 -67 16 -56 33 9 14
65 15 86 2z"/>
<path d="M4340 5649 c-10 -17 -6 -25 24 -53 20 -18 36 -38 36 -44 0 -20 -37
-13 -53 11 l-16 22 0 -27 c-1 -26 2 -28 38 -28 67 0 81 54 20 85 -31 17 -39
45 -13 45 9 0 23 -8 30 -17 12 -17 13 -16 14 5 0 19 -5 22 -35 22 -24 0 -37
-6 -45 -21z"/>
<path d="M5208 5657 c6 -7 12 -37 14 -67 3 -49 6 -55 26 -58 13 -2 29 1 37 8
9 8 14 8 17 0 2 -6 10 -9 18 -5 12 4 14 20 12 70 -4 62 -5 65 -29 65 -21 0
-23 -3 -14 -14 18 -21 10 -87 -12 -100 -24 -15 -37 7 -37 67 0 41 -3 47 -21
47 -16 0 -19 -3 -11 -13z"/>
<path d="M6246 5654 c-22 -22 -21 -87 2 -107 27 -25 78 -22 96 5 20 29 20 82
0 102 -8 9 -31 16 -49 16 -18 0 -41 -7 -49 -16z m74 -14 c28 -52 -14 -129 -46
-86 -14 20 -19 87 -7 99 13 14 43 6 53 -13z"/>
<path d="M7267 5663 c-18 -17 -6 -55 23 -71 35 -20 41 -52 10 -52 -12 0 -24
10 -30 23 -8 21 -9 21 -9 -5 -1 -25 3 -28 32 -28 64 0 78 49 22 81 -19 12 -35
27 -35 35 0 20 37 17 49 -3 9 -16 10 -16 11 5 0 18 -5 22 -33 22 -19 0 -37 -3
-40 -7z"/>
<path d="M7990 5660 c-10 -6 -11 -10 -2 -10 8 0 12 -18 12 -54 0 -34 -5 -56
-12 -59 -7 -3 5 -6 27 -6 30 -1 36 2 27 11 -7 7 -12 38 -12 70 0 59 -8 69 -40
48z"/>
<path d="M7380 5600 c0 -5 16 -10 35 -10 19 0 35 5 35 10 0 6 -16 10 -35 10
-19 0 -35 -4 -35 -10z"/>
<path d="M1090 5545 c0 -8 7 -15 15 -15 8 0 15 7 15 15 0 8 -7 15 -15 15 -8 0
-15 -7 -15 -15z"/>
<path d="M4620 5545 c0 -8 7 -15 15 -15 8 0 15 7 15 15 0 8 -7 15 -15 15 -8 0
-15 -7 -15 -15z"/>
<path d="M379 5363 c0 -5 0 -48 1 -97 1 -64 -2 -91 -12 -97 -8 -6 1 -9 26 -9
32 0 37 2 27 14 -7 8 -11 34 -9 58 3 38 6 43 28 43 22 0 25 -5 28 -43 2 -24
-2 -50 -9 -58 -9 -12 -6 -14 18 -14 l29 0 -7 62 c-8 71 -26 92 -65 78 -23 -9
-24 -8 -24 30 0 29 -4 40 -15 40 -8 0 -15 -3 -16 -7z"/>
<path d="M542 5358 c6 -18 28 -21 28 -4 0 9 -7 16 -16 16 -9 0 -14 -5 -12 -12z"/>
<path d="M1369 5363 c0 -5 0 -50 1 -100 1 -60 -3 -93 -9 -93 -6 0 -11 4 -11 9
0 5 -8 8 -17 7 -15 -1 -19 9 -21 52 -3 48 -1 52 20 53 l23 0 -22 9 c-13 5 -23
17 -23 26 0 13 -4 11 -19 -7 -12 -15 -16 -28 -10 -33 5 -6 9 -36 9 -67 l0 -57
66 -1 c55 0 64 2 54 14 -6 7 -10 33 -8 57 3 38 6 43 28 43 22 0 25 -5 28 -43
2 -24 -2 -50 -9 -58 -9 -12 -6 -14 18 -14 l29 0 -7 62 c-8 71 -26 92 -65 78
-23 -9 -24 -8 -24 30 0 29 -4 40 -15 40 -8 0 -15 -3 -16 -7z"/>
<path d="M1775 5360 c-3 -5 -2 -10 4 -10 6 0 11 -38 13 -92 l3 -93 37 -3 c47
-4 78 24 78 71 0 52 -35 84 -72 65 -16 -8 -18 -4 -18 32 0 33 -3 40 -19 40
-11 0 -23 -4 -26 -10z m93 -92 c30 -30 3 -108 -33 -94 -15 6 -22 86 -8 99 10
11 28 8 41 -5z"/>
<path d="M2832 5358 c-7 -7 -12 -20 -12 -30 0 -23 -11 -27 -77 -31 -29 -2 -56
-6 -60 -10 -3 -4 -1 -7 5 -7 17 0 16 -107 0 -113 -7 -3 7 -6 32 -6 35 0 41 2
28 10 -12 7 -18 22 -18 47 0 45 13 67 34 59 8 -3 18 -2 21 3 4 6 13 10 21 10
20 0 19 -93 -2 -114 -14 -15 -11 -16 28 -16 34 1 39 3 26 11 -14 8 -18 23 -18
64 0 50 2 55 23 56 l22 0 -22 9 c-24 10 -29 26 -13 50 7 12 12 12 22 2 16 -16
28 -15 28 3 0 18 -50 21 -68 3z"/>
<path d="M4269 5363 c0 -5 0 -50 1 -102 1 -83 -1 -93 -15 -87 -9 3 -21 6 -26
6 -5 0 -9 24 -9 54 0 44 4 55 18 59 16 4 16 5 0 6 -11 1 -18 9 -18 23 l0 21
-25 -23 c-14 -13 -21 -26 -16 -30 6 -3 11 -32 13 -65 l3 -60 64 -3 c55 -2 62
0 52 12 -7 8 -11 34 -9 58 3 38 6 43 28 43 22 0 25 -5 28 -43 2 -24 -2 -50 -9
-58 -9 -12 -6 -14 18 -14 l29 0 -7 62 c-8 71 -26 92 -65 78 -23 -9 -24 -8 -24
30 0 29 -4 40 -15 40 -8 0 -15 -3 -16 -7z"/>
<path d="M4889 5363 c0 -5 0 -48 1 -97 1 -64 -2 -91 -12 -97 -8 -6 1 -9 26 -9
32 0 37 2 27 14 -7 8 -11 34 -9 58 3 38 6 43 28 43 22 0 25 -5 28 -43 2 -24
-2 -50 -9 -58 -9 -12 -6 -14 18 -14 l29 0 -7 62 c-8 71 -26 92 -65 78 -23 -9
-24 -8 -24 30 0 29 -4 40 -15 40 -8 0 -15 -3 -16 -7z"/>
<path d="M5382 5358 c6 -18 28 -21 28 -4 0 9 -7 16 -16 16 -9 0 -14 -5 -12
-12z"/>
<path d="M5455 5360 c-3 -5 -1 -10 4 -10 16 0 15 -177 -1 -183 -7 -3 5 -5 27
-5 22 0 34 2 28 5 -9 3 -13 34 -13 104 0 91 -2 99 -19 99 -11 0 -23 -4 -26
-10z"/>
<path d="M5545 5360 c-3 -5 -1 -10 4 -10 16 0 14 -163 -1 -178 -9 -9 -3 -12
28 -11 21 0 33 3 27 6 -9 3 -13 34 -13 104 0 91 -2 99 -19 99 -11 0 -23 -4
-26 -10z"/>
<path d="M5755 5360 c-3 -5 -1 -10 4 -10 16 0 14 -163 -1 -178 -9 -9 -3 -12
28 -11 21 0 33 3 27 6 -9 3 -13 34 -13 104 0 91 -2 99 -19 99 -11 0 -23 -4
-26 -10z"/>
<path d="M6275 5361 c-7 -12 12 -24 25 -16 11 7 4 25 -10 25 -5 0 -11 -4 -15
-9z"/>
<path d="M7319 5363 c0 -5 0 -48 1 -97 1 -64 -2 -91 -12 -97 -8 -6 1 -9 26 -9
32 0 37 2 27 14 -7 8 -11 34 -9 58 3 38 6 43 28 43 22 0 25 -5 28 -43 2 -24
-2 -50 -9 -58 -9 -12 -6 -14 18 -14 l29 0 -7 62 c-8 71 -26 92 -65 78 -23 -9
-24 -8 -24 30 0 29 -4 40 -15 40 -8 0 -15 -3 -16 -7z"/>
<path d="M2201 5316 c-14 -14 -19 -26 -13 -26 8 0 12 -21 12 -60 0 -64 12 -80
48 -65 16 8 16 8 0 12 -14 4 -18 15 -18 58 0 43 4 54 18 58 15 4 15 5 0 6 -9
0 -18 10 -20 22 -3 20 -4 20 -27 -5z"/>
<path d="M5301 5320 c-8 -14 -14 -47 -12 -75 4 -84 3 -83 84 -84 53 0 67 3 55
10 -14 8 -18 23 -18 69 0 61 -8 71 -38 51 -11 -7 -11 -9 2 -14 11 -4 16 -19
16 -44 0 -42 -15 -74 -27 -58 -5 6 -15 10 -23 10 -11 0 -16 14 -18 52 -2 43 0
52 15 56 16 4 16 5 1 6 -9 0 -18 11 -20 24 l-3 22 -14 -25z"/>
<path d="M130 5297 c-13 -7 -25 -18 -28 -24 -5 -18 25 -16 32 2 8 21 36 19 36
-3 0 -11 -14 -25 -36 -35 -29 -14 -35 -22 -32 -45 3 -26 6 -27 60 -29 32 -1
60 3 64 8 3 5 -2 9 -10 9 -11 0 -16 14 -18 56 -2 47 -7 58 -24 65 -12 4 -31 2
-44 -4z m40 -87 c0 -20 -5 -30 -15 -30 -24 0 -31 31 -10 46 25 18 25 18 25
-16z"/>
<path d="M653 5299 c-68 -25 -52 -139 19 -139 24 0 67 35 56 45 -3 3 -11 -1
-18 -10 -7 -8 -18 -15 -26 -15 -19 0 -44 29 -44 51 0 16 7 19 45 19 47 0 53 6
33 32 -18 21 -39 27 -65 17z m35 -26 c2 -8 -6 -13 -22 -13 -25 0 -33 10 -19
24 10 10 36 3 41 -11z"/>
<path d="M933 5299 c-68 -25 -52 -139 19 -139 24 0 67 35 56 45 -3 3 -11 -1
-18 -10 -7 -8 -18 -15 -26 -15 -19 0 -44 29 -44 51 0 16 7 19 45 19 47 0 53 6
33 32 -18 21 -39 27 -65 17z m35 -26 c2 -8 -6 -13 -22 -13 -25 0 -33 10 -19
24 10 10 36 3 41 -11z"/>
<path d="M1549 5296 c-34 -17 -48 -76 -25 -110 21 -33 67 -35 96 -4 24 26 18
38 -8 15 -24 -22 -35 -21 -55 1 -31 35 -22 52 28 52 32 0 45 4 45 14 0 30 -48
49 -81 32z m41 -21 c11 -13 8 -15 -19 -15 -30 0 -39 9 -24 23 11 11 30 8 43
-8z"/>
<path d="M1973 5299 c-68 -25 -52 -139 19 -139 24 0 67 35 56 45 -3 3 -11 -1
-18 -10 -7 -8 -18 -15 -26 -15 -19 0 -44 29 -44 51 0 16 7 19 45 19 47 0 53 6
33 32 -18 21 -39 27 -65 17z m35 -26 c2 -8 -6 -13 -22 -13 -25 0 -33 10 -19
24 10 10 36 3 41 -11z"/>
<path d="M2475 5302 c-3 -3 -20 -6 -37 -7 l-31 0 2 -94 c2 -69 -1 -96 -11
-102 -8 -6 4 -9 32 -9 35 1 41 3 28 11 -10 5 -18 21 -18 34 0 21 5 25 29 25
54 0 92 80 59 122 -15 18 -43 29 -53 20z m26 -46 c22 -49 -12 -104 -46 -76
-15 12 -21 81 -8 93 14 15 44 6 54 -17z"/>
<path d="M2589 5296 c-34 -17 -48 -76 -25 -110 21 -33 67 -35 96 -4 24 26 18
38 -8 15 -24 -22 -35 -21 -55 1 -31 35 -22 52 28 52 32 0 45 4 45 14 0 30 -48
49 -81 32z m41 -21 c11 -13 8 -15 -19 -15 -30 0 -39 9 -24 23 11 11 30 8 43
-8z"/>
<path d="M3233 5302 c-7 -4 -47 -7 -90 -6 -43 1 -85 -2 -93 -7 -10 -5 -11 -8
-2 -9 8 0 12 -18 12 -54 0 -34 -5 -56 -12 -59 -7 -3 7 -6 32 -6 35 0 41 2 28
10 -12 7 -18 22 -18 47 0 49 8 59 48 60 l32 1 0 -54 c0 -33 -5 -55 -12 -58 -7
-3 5 -6 27 -6 30 -1 36 2 27 11 -7 7 -12 31 -12 55 0 32 5 45 20 53 15 8 21 6
30 -9 14 -27 13 -84 -2 -99 -9 -9 -3 -12 27 -12 32 1 37 3 23 11 -26 14 -25
95 0 108 13 7 23 6 30 -1 16 -16 15 -91 0 -106 -9 -9 -3 -12 28 -11 21 0 33 3
27 6 -8 3 -13 23 -13 52 0 63 -17 86 -59 78 -18 -4 -40 -3 -50 2 -9 5 -22 6
-28 3z"/>
<path d="M3430 5297 c-13 -7 -25 -18 -28 -24 -5 -18 25 -16 32 2 8 21 36 19
36 -3 0 -11 -14 -25 -36 -35 -29 -14 -35 -22 -32 -45 l3 -27 100 -2 c55 -1 94
1 87 6 -9 5 -12 24 -10 57 3 41 6 49 23 49 16 0 21 -8 23 -43 2 -24 -2 -50 -9
-58 -10 -12 -5 -14 27 -13 22 0 33 3 27 6 -8 3 -13 24 -13 56 0 29 -4 57 -8
64 -9 14 -109 16 -118 2 -3 -5 0 -9 5 -9 11 0 16 -92 5 -102 -3 -3 -14 -4 -24
-1 -15 4 -20 16 -22 60 -2 46 -7 57 -24 64 -12 4 -31 2 -44 -4z m40 -87 c0
-20 -5 -30 -15 -30 -24 0 -31 31 -10 46 25 18 25 18 25 -16z"/>
<path d="M3740 5302 c-50 -16 -69 -92 -32 -125 30 -27 74 -20 93 15 10 19 9
19 -14 3 -13 -8 -32 -13 -41 -9 -25 9 -37 49 -26 79 11 28 44 34 54 10 7 -20
28 -19 24 1 -3 19 -36 33 -58 26z"/>
<path d="M3859 5296 c-34 -17 -48 -76 -25 -110 21 -33 67 -35 96 -4 24 26 18
38 -8 15 -24 -22 -35 -21 -55 1 -31 35 -22 52 28 52 32 0 45 4 45 14 0 30 -48
49 -81 32z m41 -21 c11 -13 8 -15 -19 -15 -30 0 -39 9 -24 23 11 11 30 8 43
-8z"/>
<path d="M5878 5298 c-61 -21 -55 -138 7 -138 34 0 54 10 66 32 10 19 10 19
-15 3 -24 -16 -28 -16 -51 -1 -14 9 -25 25 -25 36 0 17 7 20 46 20 37 0 45 3
42 16 -5 27 -39 43 -70 32z m36 -23 c4 -11 -2 -15 -24 -15 -22 0 -28 4 -24 15
4 8 14 15 24 15 10 0 20 -7 24 -15z"/>
<path d="M6010 5297 c-28 -14 -38 -37 -16 -37 9 0 16 7 16 15 0 8 9 15 20 15
34 0 24 -34 -16 -53 -29 -14 -35 -22 -32 -45 3 -25 6 -27 56 -28 29 -1 55 3
58 7 3 5 1 9 -5 9 -5 0 -11 25 -13 56 -2 47 -7 58 -24 65 -12 4 -31 2 -44 -4z
m36 -103 c-8 -21 -36 -17 -36 6 0 24 33 46 38 24 2 -8 1 -22 -2 -30z"/>
<path d="M6537 5295 c-25 -12 -34 -50 -17 -71 10 -11 10 -17 0 -29 -6 -8 -9
-19 -5 -25 4 -6 1 -17 -5 -25 -31 -38 27 -65 86 -40 30 12 35 19 32 42 -3 25
-7 28 -46 31 -48 4 -54 25 -9 30 29 4 52 35 43 58 -3 8 1 14 10 14 8 0 13 4
10 9 -9 14 -75 18 -99 6z m49 -29 c7 -29 -1 -46 -21 -46 -16 0 -31 43 -20 59
11 19 34 12 41 -13z m18 -112 c24 -9 19 -23 -11 -35 -34 -13 -75 3 -67 26 6
15 49 20 78 9z"/>
<path d="M7650 5300 c-7 -4 -19 -6 -26 -3 -7 2 -21 0 -31 -6 -10 -6 -12 -11
-5 -11 8 0 12 -18 12 -54 0 -34 -5 -56 -12 -59 -7 -3 7 -6 31 -6 39 -1 43 1
27 12 -13 10 -17 24 -14 57 3 40 6 45 26 43 13 -2 22 3 22 12 0 19 -13 26 -30
15z"/>
<path d="M8147 5295 c-15 -8 -27 -10 -27 -5 0 12 -108 11 -116 -1 -3 -5 0 -9
5 -9 15 0 14 -93 -1 -108 -9 -9 -3 -12 28 -11 21 0 33 3 27 6 -8 3 -13 25 -13
58 0 44 3 54 19 58 11 3 22 2 25 -1 12 -11 6 -110 -6 -115 -7 -3 5 -5 27 -5
22 0 34 2 28 5 -8 3 -13 24 -13 53 0 38 4 52 19 59 10 6 21 7 25 4 12 -12 6
-111 -6 -116 -7 -3 5 -6 27 -6 30 -1 36 2 27 11 -7 7 -12 36 -12 65 0 63 -20
81 -63 58z"/>
<path d="M256 5285 c-42 -42 -25 -117 28 -123 27 -3 66 21 66 41 0 6 -8 3 -18
-6 -24 -22 -35 -21 -56 2 -22 24 -18 70 7 85 14 9 21 7 31 -6 7 -10 19 -18 25
-18 7 0 11 8 9 18 -4 24 -70 29 -92 7z"/>
<path d="M532 5291 c-11 -7 -11 -9 2 -14 21 -8 21 -80 0 -101 -14 -15 -11 -16
28 -16 34 1 39 3 26 11 -14 8 -18 23 -18 69 0 61 -8 71 -38 51z"/>
<path d="M771 5243 c16 -32 29 -64 29 -70 0 -30 19 -9 40 45 13 31 28 63 33
70 7 9 4 12 -12 12 -12 0 -20 -4 -16 -10 3 -5 -2 -26 -10 -47 l-16 -38 -15 34
c-8 19 -12 41 -10 48 4 9 -4 13 -23 13 l-28 0 28 -57z"/>
<path d="M1040 5279 c-10 -17 -6 -25 24 -53 20 -18 36 -38 36 -44 0 -20 -37
-13 -53 11 l-16 22 0 -27 c-1 -26 2 -28 38 -28 67 0 81 54 20 85 -31 17 -39
45 -13 45 9 0 23 -8 30 -17 12 -17 13 -16 14 5 0 19 -5 22 -35 22 -24 0 -37
-6 -45 -21z"/>
<path d="M2080 5279 c-10 -17 -6 -25 24 -53 20 -18 36 -38 36 -44 0 -20 -37
-13 -53 11 l-16 22 0 -27 c-1 -26 2 -28 38 -28 67 0 81 54 20 85 -31 17 -39
45 -13 45 9 0 23 -8 30 -17 12 -17 13 -16 14 5 0 19 -5 22 -35 22 -24 0 -37
-6 -45 -21z"/>
<path d="M2917 5282 c-21 -23 -22 -71 -1 -100 20 -29 74 -30 99 -2 22 24 25
81 6 104 -19 22 -83 21 -104 -2z m73 -7 c15 -18 16 -83 1 -98 -28 -28 -70 37
-57 87 7 29 36 35 56 11z"/>
<path d="M4436 5284 c-22 -22 -21 -87 2 -107 27 -25 78 -22 96 5 20 29 20 82
0 102 -8 9 -31 16 -49 16 -18 0 -41 -7 -49 -16z m74 -14 c28 -52 -14 -129 -46
-86 -14 20 -19 87 -7 99 13 14 43 6 53 -13z"/>
<path d="M4580 5243 c8 -87 7 -86 125 -74 5 1 4 6 -3 13 -7 7 -12 36 -12 65 0
51 -1 53 -27 53 -19 0 -24 -3 -15 -9 9 -5 12 -25 10 -57 -3 -41 -6 -49 -23
-49 -17 0 -20 8 -23 58 -2 46 -6 57 -20 57 -15 0 -17 -7 -12 -57z"/>
<path d="M4752 5288 c-15 -15 -15 -51 0 -66 8 -8 8 -15 -1 -26 -6 -7 -11 -18
-9 -22 1 -5 -3 -19 -10 -31 -11 -20 -9 -24 12 -38 36 -24 103 -5 112 31 8 32
-2 42 -49 46 -41 3 -51 21 -15 26 33 5 48 21 48 48 0 13 5 24 10 24 6 0 10 5
10 10 0 14 -94 12 -108 -2z m58 -17 c13 -25 2 -53 -19 -49 -22 4 -29 68 -7 68
8 0 20 -9 26 -19z m30 -121 c18 -11 6 -26 -30 -35 -29 -7 -67 16 -56 33 9 14
65 15 86 2z"/>
<path d="M5177 5293 c-18 -17 -6 -55 23 -71 35 -20 41 -52 10 -52 -12 0 -24
10 -30 23 -8 21 -9 21 -9 -5 -1 -25 3 -28 32 -28 64 0 78 49 22 81 -19 12 -35
27 -35 35 0 20 37 17 49 -3 9 -16 10 -16 11 5 0 18 -5 22 -33 22 -19 0 -37 -3
-40 -7z"/>
<path d="M6137 5233 c18 -38 35 -67 39 -66 4 1 19 31 34 67 26 61 27 66 9 66
-11 0 -16 -5 -13 -13 2 -7 -2 -29 -10 -48 l-15 -34 -16 38 c-8 21 -13 42 -10
47 4 6 -7 10 -23 10 l-28 0 33 -67z"/>
<path d="M6265 5290 c-3 -5 -1 -10 4 -10 6 0 11 -21 11 -50 0 -36 -5 -52 -17
-59 -14 -8 -8 -10 27 -10 25 0 39 3 33 6 -9 3 -13 27 -13 69 0 57 -2 64 -19
64 -11 0 -23 -4 -26 -10z"/>
<path d="M6344 5289 c-3 -5 0 -9 5 -9 15 0 14 -93 -1 -108 -9 -9 -3 -12 28
-12 24 0 34 3 26 9 -9 5 -12 25 -10 57 3 41 6 49 23 49 16 0 21 -8 23 -43 2
-24 -2 -50 -9 -58 -10 -12 -5 -14 27 -13 22 0 33 3 27 6 -8 3 -13 24 -13 56 0
29 -4 57 -8 64 -9 14 -109 16 -118 2z"/>
<path d="M6785 5290 c-2 -3 0 -12 6 -20 14 -23 10 -77 -7 -94 -14 -15 -12 -16
22 -16 30 0 35 3 26 12 -20 20 -15 96 6 107 13 7 23 6 30 -1 16 -16 15 -91 0
-106 -9 -9 -3 -12 28 -11 21 0 33 3 27 6 -20 8 -17 109 3 117 9 3 20 4 25 0
14 -8 11 -111 -3 -117 -7 -3 5 -5 27 -5 22 0 34 2 28 5 -8 3 -13 24 -13 53 0
27 -3 55 -6 64 -7 18 -59 22 -69 6 -4 -7 -11 -8 -18 -1 -13 10 -105 12 -112 1z"/>
<path d="M7018 5293 c7 -3 12 -25 12 -58 0 -31 5 -57 13 -63 14 -12 102 -11
114 1 3 4 1 7 -5 7 -8 0 -12 21 -12 60 0 59 -1 60 -27 60 -19 0 -24 -3 -15 -9
9 -5 12 -25 10 -57 -3 -41 -6 -49 -23 -49 -17 0 -20 8 -23 58 -3 55 -4 57 -30
56 -15 0 -21 -3 -14 -6z"/>
<path d="M7196 5285 c-42 -42 -25 -117 28 -123 27 -3 66 21 66 41 0 6 -8 3
-18 -6 -24 -22 -35 -21 -56 2 -22 24 -18 70 7 85 14 9 21 7 31 -6 7 -10 19
-18 25 -18 7 0 11 8 9 18 -4 24 -70 29 -92 7z"/>
<path d="M7716 5284 c-44 -43 -19 -116 42 -122 61 -6 99 80 54 121 -23 21 -76
22 -96 1z m74 -13 c26 -49 -1 -118 -38 -95 -22 15 -35 69 -22 94 14 25 46 26
60 1z"/>
<path d="M7866 5284 c-22 -22 -21 -87 2 -107 27 -25 78 -22 96 5 20 29 20 82
0 102 -8 9 -31 16 -49 16 -18 0 -41 -7 -49 -16z m74 -14 c28 -52 -14 -129 -46
-86 -14 20 -19 87 -7 99 13 14 43 6 53 -13z"/>
<path d="M3970 5175 c0 -8 8 -15 17 -15 13 0 14 -3 5 -12 -17 -17 -15 -33 3
-18 23 19 19 60 -5 60 -11 0 -20 -7 -20 -15z"/>
<path d="M6570 4855 c0 -147 1 -155 19 -155 11 0 23 5 26 10 3 6 -1 10 -9 10
-14 0 -16 20 -16 139 0 124 2 140 18 144 10 3 6 5 -10 6 l-28 1 0 -155z"/>
<path d="M7363 5003 c15 -4 17 -20 17 -144 0 -117 -2 -139 -15 -139 -8 0 -15
-4 -15 -10 0 -5 9 -10 20 -10 19 0 20 7 20 155 0 154 0 155 -22 154 -17 -1
-19 -2 -5 -6z"/>
<path d="M130 4971 c-5 -11 -10 -26 -10 -35 0 -8 -8 -17 -17 -19 -17 -4 -17
-5 0 -6 14 -1 17 -11 17 -56 0 -41 -4 -56 -17 -64 -14 -8 -8 -10 27 -10 25 0
39 3 33 6 -8 3 -13 26 -13 63 0 47 3 59 18 63 16 4 16 5 0 6 -13 1 -18 10 -18
31 0 32 9 37 27 19 13 -13 36 -3 28 12 -11 17 -64 10 -75 -10z"/>
<path d="M572 4978 c6 -18 28 -21 28 -4 0 9 -7 16 -16 16 -9 0 -14 -5 -12 -12z"/>
<path d="M3445 4981 c-3 -5 -1 -12 5 -16 5 -3 10 -15 10 -25 0 -14 -7 -18 -32
-18 -39 1 -68 -31 -68 -77 0 -48 27 -68 87 -61 26 2 49 5 51 5 1 1 -2 10 -8
20 -5 11 -10 56 -10 100 0 64 -3 81 -14 81 -8 0 -17 -4 -21 -9z m4 -85 c7 -8
11 -32 9 -53 -3 -43 -32 -58 -55 -27 -36 49 9 125 46 80z"/>
<path d="M3955 4980 c-3 -5 -1 -10 4 -10 16 0 14 -163 -1 -178 -9 -9 -3 -12
27 -12 25 0 35 3 27 9 -9 5 -12 25 -10 57 3 42 6 49 26 52 20 3 22 0 22 -51 0
-35 -5 -57 -12 -60 -7 -3 4 -6 26 -6 30 -1 36 2 28 12 -6 7 -12 37 -14 67 l-3
55 -38 0 c-36 0 -37 1 -37 38 0 30 -4 37 -19 37 -11 0 -23 -4 -26 -10z"/>
<path d="M5460 4980 c-10 -6 -11 -10 -2 -10 9 0 12 -25 12 -89 0 -96 3 -101
59 -101 34 0 59 25 67 67 5 26 1 37 -19 57 -22 22 -30 24 -51 16 -25 -9 -26
-8 -26 30 0 41 -11 49 -40 30z m102 -105 c17 -38 0 -80 -32 -80 -22 0 -25 5
-28 39 -2 21 -1 44 2 52 9 23 45 16 58 -11z"/>
<path d="M5632 4978 c6 -18 28 -21 28 -4 0 9 -7 16 -16 16 -9 0 -14 -5 -12
-12z"/>
<path d="M5710 4980 c-10 -6 -11 -10 -2 -10 9 0 12 -25 12 -89 0 -62 -4 -91
-12 -94 -7 -3 5 -6 27 -6 30 -1 36 2 27 11 -8 8 -12 46 -12 105 0 95 -5 106
-40 83z"/>
<path d="M5805 4981 c-7 -12 12 -24 25 -16 11 7 4 25 -10 25 -5 0 -11 -4 -15
-9z"/>
<path d="M5980 4974 c0 -17 22 -14 28 4 2 7 -3 12 -12 12 -9 0 -16 -7 -16 -16z"/>
<path d="M7930 4980 c-10 -6 -11 -10 -2 -10 6 0 12 -11 12 -24 0 -19 -5 -23
-27 -23 -35 0 -63 -36 -63 -78 0 -46 22 -64 74 -63 49 1 75 11 57 22 -7 5 -11
42 -11 97 0 91 -5 102 -40 79z m8 -127 c3 -46 1 -53 -15 -53 -27 0 -43 20 -43
51 0 43 10 60 34 57 18 -3 21 -11 24 -55z"/>
<path d="M2131 4940 c-8 -14 -14 -47 -12 -75 3 -75 9 -87 39 -83 29 3 43 27
15 24 -15 -1 -19 8 -21 51 -2 43 0 52 15 56 16 4 16 5 1 6 -9 0 -18 11 -20 24
l-3 22 -14 -25z"/>
<path d="M3631 4936 c-14 -14 -19 -26 -13 -26 8 0 12 -21 12 -60 0 -64 12 -80
48 -65 16 8 16 8 0 12 -14 4 -18 15 -18 58 0 43 4 54 18 58 15 4 15 5 0 6 -9
0 -18 10 -20 22 -3 20 -4 20 -27 -5z"/>
<path d="M5887 4935 c-10 -15 -13 -26 -7 -30 5 -3 10 -33 10 -66 0 -59 0 -60
27 -57 29 3 45 27 16 24 -15 -1 -19 8 -21 52 -3 48 -1 52 20 53 21 0 21 1 4 8
-11 4 -22 15 -25 23 -5 13 -9 12 -24 -7z"/>
<path d="M420 4920 c-7 -4 -19 -6 -27 -3 -7 3 -21 2 -30 -1 -12 -5 -14 -9 -5
-18 16 -16 15 -91 0 -106 -9 -9 -3 -12 27 -12 25 0 35 3 27 9 -9 5 -12 25 -10
57 2 41 6 49 22 49 20 0 33 19 19 28 -5 3 -15 2 -23 -3z"/>
<path d="M726 4923 c-3 -3 -22 -6 -41 -5 -19 1 -37 -3 -40 -8 -3 -6 -1 -10 4
-10 16 0 14 -107 -1 -113 -7 -3 5 -5 27 -5 22 0 34 2 28 5 -8 3 -13 24 -13 53
0 38 4 52 19 59 10 6 21 7 25 4 12 -12 6 -111 -6 -116 -7 -3 5 -6 27 -6 30 -1
36 2 27 11 -7 7 -12 31 -12 55 0 32 5 45 20 53 15 8 21 6 30 -9 14 -27 13 -84
-2 -99 -9 -9 -5 -12 21 -12 23 0 30 3 24 13 -4 6 -10 37 -13 67 l-5 55 -45 0
c-25 1 -50 4 -56 8 -6 3 -14 4 -18 0z"/>
<path d="M1100 4920 c-7 -4 -19 -6 -26 -3 -7 2 -21 0 -31 -6 -10 -6 -12 -11
-5 -11 8 0 12 -18 12 -54 0 -34 -5 -56 -12 -59 -7 -3 7 -6 31 -6 39 -1 43 1
27 12 -13 10 -17 24 -14 57 3 40 6 45 26 43 13 -2 22 3 22 12 0 19 -13 26 -30
15z"/>
<path d="M1483 4919 c-68 -25 -52 -139 19 -139 24 0 67 35 56 45 -3 3 -11 -1
-18 -10 -7 -8 -18 -15 -26 -15 -19 0 -44 29 -44 51 0 16 7 19 45 19 47 0 53 6
33 32 -18 21 -39 27 -65 17z m35 -26 c2 -8 -6 -13 -22 -13 -25 0 -33 10 -19
24 10 10 36 3 41 -11z"/>
<path d="M1870 4922 c-48 -16 -69 -92 -34 -126 21 -22 67 -20 87 2 24 27 21
35 -7 17 -26 -18 -52 -11 -67 16 -15 29 -3 39 47 39 41 0 44 1 34 20 -13 24
-40 39 -60 32z m28 -29 c2 -9 -7 -13 -28 -13 -28 0 -31 2 -20 15 15 18 41 16
48 -2z"/>
<path d="M2345 4920 c-33 -12 -49 -39 -48 -78 2 -60 62 -84 103 -40 24 27 17
38 -9 14 -38 -35 -88 24 -61 73 13 24 38 28 46 6 8 -20 36 -19 32 1 -4 21 -37
34 -63 24z"/>
<path d="M2895 4920 c-11 -4 -25 -5 -32 -3 -6 3 -20 0 -30 -6 -10 -6 -12 -11
-5 -11 16 0 17 -161 0 -178 -9 -9 -2 -12 33 -12 35 1 40 3 27 11 -10 5 -18 21
-18 34 0 21 5 25 28 25 32 0 56 22 65 59 12 49 -27 96 -68 81z m35 -46 c19
-48 -7 -92 -45 -78 -15 6 -22 84 -8 97 15 16 44 6 53 -19z"/>
<path d="M3020 4917 c-28 -14 -38 -37 -16 -37 9 0 16 7 16 15 0 8 9 15 20 15
34 0 24 -34 -16 -53 -29 -14 -35 -22 -32 -45 l3 -27 100 -2 c72 -2 95 1 83 8
-12 7 -18 22 -18 47 0 45 11 65 35 60 10 -2 20 3 22 9 3 9 -9 12 -46 10 -28
-2 -54 -6 -58 -10 -3 -4 -1 -7 5 -7 8 0 12 -20 12 -55 0 -30 -3 -55 -7 -55
-22 1 -32 21 -35 69 -2 44 -7 55 -24 62 -12 4 -31 2 -44 -4z m36 -103 c-8 -21
-36 -17 -36 6 0 24 33 46 38 24 2 -8 1 -22 -2 -30z"/>
<path d="M3259 4916 c-34 -17 -48 -76 -25 -110 21 -33 67 -35 96 -4 24 26 18
38 -8 15 -24 -22 -35 -21 -55 1 -31 35 -22 52 28 52 32 0 45 4 45 14 0 30 -48
49 -81 32z m41 -21 c11 -13 8 -15 -19 -15 -30 0 -39 9 -24 23 11 11 30 8 43
-8z"/>
<path d="M4346 4923 c-3 -3 -22 -6 -41 -5 -19 1 -37 -3 -40 -8 -3 -6 -1 -10 4
-10 16 0 14 -107 -1 -113 -7 -3 5 -5 27 -5 22 0 34 2 28 5 -8 3 -13 24 -13 53
0 38 4 52 19 59 10 6 21 7 25 4 12 -12 6 -111 -6 -116 -7 -3 5 -6 27 -6 30 -1
36 2 27 11 -7 7 -12 31 -12 55 0 32 5 45 20 53 15 8 21 6 30 -9 14 -27 13 -84
-2 -99 -9 -9 -5 -12 21 -12 23 0 30 3 24 13 -4 6 -10 37 -13 67 l-5 55 -45 0
c-25 1 -50 4 -56 8 -6 3 -14 4 -18 0z"/>
<path d="M4540 4917 c-28 -14 -38 -37 -16 -37 9 0 16 7 16 15 0 8 9 15 20 15
34 0 24 -34 -16 -53 -29 -14 -35 -22 -32 -45 3 -25 6 -27 56 -28 29 -1 55 3
58 7 3 5 1 9 -5 9 -5 0 -11 25 -13 56 -2 47 -7 58 -24 65 -12 4 -31 2 -44 -4z
m36 -103 c-8 -21 -36 -17 -36 6 0 24 33 46 38 24 2 -8 1 -22 -2 -30z"/>
<path d="M4945 4920 c-33 -12 -49 -39 -48 -78 2 -60 62 -84 103 -40 24 27 17
38 -9 14 -38 -35 -88 24 -61 73 13 24 38 28 46 6 8 -20 36 -19 32 1 -4 21 -37
34 -63 24z"/>
<path d="M5070 4917 c-28 -14 -38 -37 -16 -37 9 0 16 7 16 15 0 8 9 15 20 15
34 0 24 -34 -16 -53 -29 -14 -35 -22 -32 -45 3 -25 6 -27 56 -28 29 -1 55 3
58 7 3 5 1 9 -5 9 -5 0 -11 25 -13 56 -2 47 -7 58 -24 65 -12 4 -31 2 -44 -4z
m36 -103 c-8 -21 -36 -17 -36 6 0 24 33 46 38 24 2 -8 1 -22 -2 -30z"/>
<path d="M5245 4922 c-3 -3 -20 -6 -37 -7 l-31 0 2 -94 c2 -69 -1 -96 -11
-102 -8 -6 4 -9 32 -9 35 1 41 3 28 11 -10 5 -18 21 -18 34 0 21 5 25 29 25
54 0 92 80 59 122 -15 18 -43 29 -53 20z m26 -46 c22 -49 -12 -104 -46 -76
-15 12 -21 81 -8 93 14 15 44 6 54 -17z"/>
<path d="M5360 4917 c-13 -7 -25 -18 -28 -24 -5 -18 25 -16 32 2 8 21 36 19
36 -3 0 -11 -14 -25 -36 -35 -29 -14 -35 -22 -32 -45 3 -26 6 -27 60 -29 32
-1 60 3 64 8 3 5 -2 9 -10 9 -11 0 -16 14 -18 56 -2 47 -7 58 -24 65 -12 4
-31 2 -44 -4z m40 -87 c0 -20 -5 -30 -15 -30 -24 0 -31 31 -10 46 25 18 25 18
25 -16z"/>
<path d="M6088 4918 c-61 -21 -55 -138 7 -138 34 0 54 10 66 32 10 19 10 19
-15 3 -24 -16 -28 -16 -51 -1 -14 9 -25 25 -25 36 0 17 7 20 46 20 37 0 45 3
42 16 -5 27 -39 43 -70 32z m36 -23 c4 -11 -2 -15 -24 -15 -22 0 -28 4 -24 15
4 8 14 15 24 15 10 0 20 -7 24 -15z"/>
<path d="M8043 4919 c-68 -25 -52 -139 19 -139 24 0 67 35 56 45 -3 3 -11 -1
-18 -10 -7 -8 -18 -15 -26 -15 -19 0 -44 29 -44 51 0 16 7 19 45 19 47 0 53 6
33 32 -18 21 -39 27 -65 17z m35 -26 c2 -8 -6 -13 -22 -13 -25 0 -33 10 -19
24 10 10 36 3 41 -11z"/>
<path d="M8200 4920 c-7 -4 -19 -6 -26 -3 -7 2 -21 0 -31 -6 -10 -6 -12 -11
-5 -11 8 0 12 -18 12 -54 0 -34 -5 -56 -12 -59 -7 -3 7 -6 31 -6 39 -1 43 1
27 12 -13 10 -17 24 -14 57 3 40 6 45 26 43 13 -2 22 3 22 12 0 19 -13 26 -30
15z"/>
<path d="M216 4898 c-54 -76 46 -164 103 -92 42 53 16 114 -49 114 -29 0 -43
-6 -54 -22z m84 -18 c14 -35 6 -78 -17 -87 -21 -8 -53 31 -53 66 0 55 50 70
70 21z"/>
<path d="M562 4911 c-11 -7 -11 -9 2 -14 21 -8 21 -80 0 -101 -14 -15 -11 -16
28 -16 34 1 39 3 26 11 -14 8 -18 23 -18 69 0 61 -8 71 -38 51z"/>
<path d="M884 4909 c-3 -5 0 -9 5 -9 16 0 14 -163 -1 -178 -9 -9 -3 -12 28
-11 21 0 33 3 27 6 -7 2 -13 18 -13 34 0 24 4 29 25 29 52 0 83 68 55 120 -8
16 -21 19 -65 19 -30 -1 -58 -5 -61 -10z m94 -21 c17 -17 15 -73 -3 -88 -28
-23 -45 -4 -45 50 0 41 3 50 18 50 10 0 23 -5 30 -12z"/>
<path d="M1156 4898 c-54 -76 46 -164 103 -92 42 53 16 114 -49 114 -29 0 -43
-6 -54 -22z m84 -18 c14 -35 6 -78 -17 -87 -21 -8 -53 31 -53 66 0 55 50 70
70 21z"/>
<path d="M1321 4863 c16 -32 29 -64 29 -70 0 -30 19 -9 40 45 13 31 28 63 33
70 7 9 4 12 -12 12 -12 0 -20 -4 -16 -10 3 -5 -2 -26 -10 -47 l-16 -38 -15 34
c-8 19 -12 41 -10 48 4 9 -4 13 -23 13 l-28 0 28 -57z"/>
<path d="M1585 4910 c-2 -3 0 -12 6 -20 14 -23 10 -77 -7 -94 -14 -15 -12 -16
22 -16 30 0 35 3 26 12 -20 20 -15 96 6 107 13 7 23 6 30 -1 16 -16 15 -91 0
-106 -9 -9 -3 -12 28 -11 21 0 33 3 27 6 -20 8 -17 109 3 117 9 3 20 4 25 0
14 -8 11 -111 -3 -117 -7 -3 5 -5 27 -5 22 0 34 2 28 5 -8 3 -13 24 -13 53 0
27 -3 55 -6 64 -7 18 -59 22 -69 6 -4 -7 -11 -8 -18 -1 -13 10 -105 12 -112 1z"/>
<path d="M1954 4909 c-3 -5 0 -9 5 -9 16 0 14 -107 -1 -113 -7 -3 5 -6 27 -6
25 0 35 2 27 8 -9 5 -12 25 -10 57 3 42 6 49 26 52 20 3 22 0 22 -51 0 -35 -5
-57 -12 -60 -7 -3 5 -5 27 -5 22 0 34 2 28 5 -8 3 -13 24 -13 56 0 29 -4 57
-8 64 -9 14 -109 16 -118 2z"/>
<path d="M2456 4904 c-44 -43 -19 -116 42 -122 61 -6 99 80 54 121 -23 21 -76
22 -96 1z m74 -13 c26 -49 -1 -118 -38 -95 -22 15 -35 69 -22 94 14 25 46 26
60 1z"/>
<path d="M2595 4910 c-2 -3 0 -12 6 -20 14 -23 10 -77 -7 -94 -14 -15 -12 -16
22 -16 30 0 35 3 26 12 -20 20 -15 96 6 107 13 7 23 6 30 -1 16 -16 15 -91 0
-106 -9 -9 -3 -12 27 -11 22 0 34 3 28 6 -20 8 -17 109 3 117 9 3 20 4 25 0
14 -8 11 -111 -3 -117 -7 -3 5 -5 27 -5 22 0 34 2 28 5 -8 3 -13 24 -13 53 0
27 -3 55 -6 64 -7 18 -59 22 -69 6 -4 -7 -11 -8 -18 -1 -13 10 -105 12 -112 1z"/>
<path d="M3716 4898 c-54 -76 46 -164 103 -92 42 53 16 114 -49 114 -29 0 -43
-6 -54 -22z m84 -18 c14 -35 6 -78 -17 -87 -21 -8 -53 31 -53 66 0 55 50 70
70 21z"/>
<path d="M4108 4913 c7 -3 12 -25 12 -58 0 -31 5 -57 13 -63 14 -12 102 -11
114 1 3 4 1 7 -5 7 -8 0 -12 21 -12 60 0 59 -1 60 -27 60 -19 0 -24 -3 -15 -9
9 -5 12 -25 10 -57 -3 -41 -6 -49 -23 -49 -17 0 -20 8 -23 58 -3 55 -4 57 -30
56 -15 0 -21 -3 -14 -6z"/>
<path d="M4645 4909 c-3 -4 -1 -10 5 -14 14 -9 13 -88 -2 -103 -9 -9 -5 -12
21 -12 28 0 31 2 22 14 -7 8 -11 34 -9 58 3 38 6 43 28 43 22 0 25 -5 28 -43
2 -24 -2 -50 -9 -58 -9 -12 -6 -14 20 -14 23 0 30 3 24 13 -4 6 -10 37 -13 67
l-5 55 -53 1 c-29 1 -55 -2 -57 -7z"/>
<path d="M5622 4911 c-11 -7 -11 -9 2 -14 21 -8 21 -80 0 -101 -14 -15 -11
-16 28 -16 34 1 39 3 26 11 -14 8 -18 23 -18 69 0 61 -8 71 -38 51z"/>
<path d="M5795 4910 c-3 -5 -1 -10 4 -10 6 0 11 -21 11 -50 0 -36 -5 -52 -17
-59 -14 -8 -8 -10 27 -10 25 0 39 3 33 6 -9 3 -13 27 -13 69 0 57 -2 64 -19
64 -11 0 -23 -4 -26 -10z"/>
<path d="M5970 4910 c-10 -6 -11 -10 -2 -10 8 0 12 -18 12 -54 0 -34 -5 -56
-12 -59 -7 -3 5 -5 27 -5 22 0 34 2 28 5 -9 3 -13 27 -13 69 0 66 -7 75 -40
54z"/>
<path d="M6195 4909 c-13 -19 4 -54 35 -72 34 -20 38 -35 13 -44 -10 -4 -23 2
-35 16 l-18 23 0 -26 c0 -26 2 -27 43 -24 36 3 42 7 45 27 3 18 -6 33 -35 57
-34 29 -36 33 -19 40 13 5 23 1 32 -11 13 -18 14 -18 14 3 0 18 -6 22 -34 22
-19 0 -38 -5 -41 -11z"/>
<path d="M6680 4906 c-17 -22 -8 -60 15 -64 11 -2 24 -8 29 -13 14 -12 -13
-39 -39 -39 -19 0 -22 4 -18 21 4 16 2 20 -8 17 -8 -3 -14 -13 -14 -24 0 -15
8 -20 36 -22 67 -6 97 59 39 81 -19 7 -29 18 -28 27 4 18 42 20 44 3 3 -25 4
-27 16 -15 8 8 8 15 -2 27 -16 19 -54 20 -70 1z"/>
<path d="M7255 4908 c-11 -6 -25 -19 -32 -27 -16 -21 -16 -74 -1 -89 23 -23
108 -8 108 19 0 6 -10 3 -22 -5 -30 -21 -55 -20 -67 2 -13 25 -2 38 41 46 39
7 55 30 37 52 -14 17 -37 17 -64 2z m51 -10 c8 -12 -21 -38 -43 -38 -19 0 -16
27 5 39 22 14 29 13 38 -1z"/>
<path d="M7538 4913 c7 -3 12 -25 12 -58 0 -31 5 -57 13 -63 14 -12 102 -11
114 1 3 4 1 7 -5 7 -8 0 -12 21 -12 60 0 59 -1 60 -27 60 -19 0 -24 -3 -15 -9
9 -5 12 -25 10 -57 -3 -41 -6 -49 -23 -49 -17 0 -20 8 -23 58 -3 55 -4 57 -30
56 -15 0 -21 -3 -14 -6z"/>
<path d="M7694 4909 c-3 -5 0 -9 5 -9 15 0 14 -93 -1 -108 -9 -9 -3 -12 28
-12 24 0 34 3 26 9 -9 5 -12 25 -10 57 3 41 6 49 23 49 16 0 21 -8 23 -43 2
-24 -2 -50 -9 -58 -10 -12 -5 -14 27 -13 22 0 33 3 27 6 -8 3 -13 24 -13 56 0
29 -4 57 -8 64 -9 14 -109 16 -118 2z"/>
<path d="M6890 4860 c0 -6 38 -10 95 -10 57 0 95 4 95 10 0 6 -38 10 -95 10
-57 0 -95 -4 -95 -10z"/>
<path d="M6320 4795 c0 -8 7 -15 15 -15 8 0 15 7 15 15 0 8 -7 15 -15 15 -8 0
-15 -7 -15 -15z"/>
<path d="M108 4598 c17 -17 16 -185 0 -191 -7 -3 10 -6 37 -6 39 0 46 2 33 10
-19 11 -26 79 -9 79 16 0 62 -62 57 -76 -4 -11 6 -14 40 -14 l45 0 -36 31
c-19 17 -45 45 -56 61 l-21 29 23 26 c13 14 38 34 54 44 l30 19 -50 0 c-36 0
-46 -3 -35 -10 12 -8 9 -16 -22 -47 l-38 -38 0 37 c0 25 6 40 18 47 13 8 6 10
-32 11 -39 0 -47 -3 -38 -12z"/>
<path d="M685 4600 c-3 -5 -1 -10 4 -10 6 0 11 -11 11 -25 0 -21 -5 -25 -29
-25 -54 0 -87 -61 -60 -109 12 -22 23 -26 59 -27 39 -1 107 14 73 15 -10 1
-13 27 -13 96 0 87 -2 95 -19 95 -11 0 -23 -4 -26 -10z m10 -125 c0 -47 -2
-50 -25 -50 -18 0 -27 7 -34 27 -14 39 7 80 37 76 19 -3 22 -9 22 -53z"/>
<path d="M902 4601 c-11 -7 -11 -9 2 -14 13 -5 16 -23 16 -86 0 -44 -4 -82 -9
-85 -21 -13 -41 7 -41 39 0 44 -14 81 -34 88 -23 9 -66 -10 -66 -28 0 -20 17
-19 28 2 6 10 16 14 26 10 24 -10 19 -36 -8 -43 -32 -8 -59 -38 -54 -61 3 -16
15 -18 108 -20 58 0 99 1 93 4 -9 3 -13 34 -13 104 0 88 -2 99 -17 99 -10 0
-24 -4 -31 -9z m-64 -148 c-3 -32 -35 -44 -45 -17 -4 11 1 22 12 30 28 21 37
17 33 -13z"/>
<path d="M985 4600 c-3 -5 -1 -10 4 -10 16 0 15 -177 -1 -183 -7 -3 5 -5 27
-5 22 0 34 2 28 5 -9 3 -13 34 -13 104 0 91 -2 99 -19 99 -11 0 -23 -4 -26
-10z"/>
<path d="M1085 4601 c-3 -6 2 -14 12 -19 14 -9 15 -13 4 -26 -9 -10 -9 -16 -3
-16 16 0 35 39 28 56 -6 16 -32 19 -41 5z"/>
<path d="M1685 4600 c-3 -5 -1 -10 4 -10 6 0 11 -11 11 -25 0 -21 -5 -25 -29
-25 -54 0 -87 -61 -60 -109 12 -22 23 -26 59 -27 39 -1 107 14 73 15 -10 1
-13 27 -13 96 0 87 -2 95 -19 95 -11 0 -23 -4 -26 -10z m10 -125 c0 -47 -2
-50 -25 -50 -18 0 -27 7 -34 27 -14 39 7 80 37 76 19 -3 22 -9 22 -53z"/>
<path d="M3842 4601 c-11 -7 -11 -9 2 -14 25 -10 23 -162 -1 -176 -14 -8 -8
-10 27 -10 25 0 39 3 33 6 -9 3 -13 34 -13 104 0 88 -2 99 -17 99 -10 0 -24
-4 -31 -9z"/>
<path d="M4455 4600 c-3 -5 -1 -10 4 -10 16 0 14 -163 -1 -178 -9 -9 -3 -12
28 -12 25 0 34 3 26 9 -21 13 -27 84 -8 100 27 23 46 6 46 -42 0 -24 -5 -48
-12 -55 -9 -9 -3 -12 28 -11 21 0 33 3 27 6 -8 3 -13 24 -13 56 0 69 -9 81
-54 74 l-36 -6 0 40 c0 27 -4 39 -14 39 -8 0 -18 -4 -21 -10z"/>
<path d="M4720 4591 c-5 -11 -10 -26 -10 -35 0 -8 -8 -17 -17 -19 -17 -4 -17
-5 0 -6 14 -1 17 -11 17 -56 0 -41 -4 -56 -17 -64 -14 -8 -8 -10 27 -10 25 0
39 3 33 6 -8 3 -13 26 -13 63 0 47 3 59 18 63 16 4 16 5 0 6 -13 1 -18 10 -18
31 0 32 9 37 27 19 13 -13 36 -3 28 12 -11 17 -64 10 -75 -10z"/>
<path d="M2221 4556 c-14 -14 -19 -26 -13 -26 8 0 12 -21 12 -60 0 -64 12 -80
48 -65 16 8 16 8 0 12 -14 4 -18 15 -18 58 0 43 4 54 18 58 15 4 15 5 0 6 -9
0 -18 10 -20 22 -3 20 -4 20 -27 -5z"/>
<path d="M4381 4556 c-14 -14 -19 -26 -13 -26 8 0 12 -21 12 -60 0 -64 12 -80
48 -65 16 8 16 8 0 12 -14 4 -18 15 -18 58 0 43 4 54 18 58 15 4 15 5 0 6 -9
0 -18 10 -20 22 -3 20 -4 20 -27 -5z"/>
<path d="M5611 4560 c-8 -14 -14 -47 -12 -75 3 -75 9 -87 39 -83 29 3 43 27
15 24 -15 -1 -19 8 -21 51 -2 43 0 52 15 56 16 4 16 5 1 6 -9 0 -18 11 -20 24
l-3 22 -14 -25z"/>
<path d="M349 4536 c-34 -17 -48 -76 -25 -110 21 -33 67 -35 96 -4 24 26 18
38 -8 15 -24 -22 -35 -21 -55 1 -31 35 -22 52 28 52 32 0 45 4 45 14 0 30 -48
49 -81 32z m41 -21 c11 -13 8 -15 -19 -15 -30 0 -39 9 -24 23 11 11 30 8 43
-8z"/>
<path d="M1810 4542 c-48 -16 -69 -92 -34 -126 21 -22 67 -20 87 2 24 27 21
35 -7 17 -26 -18 -52 -11 -67 16 -15 29 -3 39 47 39 41 0 44 1 34 20 -13 24
-40 39 -60 32z m28 -29 c2 -9 -7 -13 -28 -13 -28 0 -31 2 -20 15 15 18 41 16
48 -2z"/>
<path d="M2333 4539 c-68 -25 -52 -139 19 -139 24 0 67 35 56 45 -3 3 -11 -1
-18 -10 -7 -8 -18 -15 -26 -15 -19 0 -44 29 -44 51 0 16 7 19 45 19 47 0 53 6
33 32 -18 21 -39 27 -65 17z m35 -26 c2 -8 -6 -13 -22 -13 -25 0 -33 10 -19
24 10 10 36 3 41 -11z"/>
<path d="M2788 4538 c-61 -21 -55 -138 7 -138 34 0 54 10 66 32 10 19 10 19
-15 3 -24 -16 -28 -16 -51 -1 -14 9 -25 25 -25 36 0 17 7 20 46 20 37 0 45 3
42 16 -5 27 -39 43 -70 32z m36 -23 c4 -11 -2 -15 -24 -15 -22 0 -28 4 -24 15
4 8 14 15 24 15 10 0 20 -7 24 -15z"/>
<path d="M2928 4538 c-44 -15 -61 -76 -32 -117 14 -19 23 -22 50 -18 32 5 34
4 34 -23 0 -17 -7 -33 -17 -39 -15 -9 -12 -10 17 -11 l35 0 -3 104 -3 104 -28
4 c-15 2 -39 0 -53 -4z m47 -63 c0 -47 -2 -50 -25 -50 -18 0 -27 7 -34 27 -14
39 7 80 37 76 19 -3 22 -9 22 -53z"/>
<path d="M3229 4536 c-34 -17 -48 -76 -25 -110 21 -33 67 -35 96 -4 24 26 18
38 -8 15 -24 -22 -35 -21 -55 1 -31 35 -22 52 28 52 32 0 45 4 45 14 0 30 -48
49 -81 32z m41 -21 c11 -13 8 -15 -19 -15 -30 0 -39 9 -24 23 11 11 30 8 43
-8z"/>
<path d="M3663 4539 c-68 -25 -52 -139 19 -139 24 0 67 35 56 45 -3 3 -11 -1
-18 -10 -7 -8 -18 -15 -26 -15 -19 0 -44 29 -44 51 0 16 7 19 45 19 47 0 53 6
33 32 -18 21 -39 27 -65 17z m35 -26 c2 -8 -6 -13 -22 -13 -25 0 -33 10 -19
24 10 10 36 3 41 -11z"/>
<path d="M3963 4539 c-68 -25 -52 -139 19 -139 24 0 67 35 56 45 -3 3 -11 -1
-18 -10 -7 -8 -18 -15 -26 -15 -19 0 -44 29 -44 51 0 16 7 19 45 19 47 0 53 6
33 32 -18 21 -39 27 -65 17z m35 -26 c2 -8 -6 -13 -22 -13 -25 0 -33 10 -19
24 10 10 36 3 41 -11z"/>
<path d="M4130 4540 c-8 -5 -26 -6 -40 -4 -25 5 -25 5 -25 -65 l0 -71 29 0
c23 0 26 2 17 14 -7 8 -11 34 -9 58 3 36 7 44 26 46 23 4 24 2 20 -57 l-3 -61
30 0 c22 0 26 3 17 12 -7 7 -12 36 -12 65 0 55 -20 81 -50 63z"/>
<path d="M4850 4540 c-7 -4 -19 -6 -26 -3 -7 2 -21 0 -31 -6 -10 -6 -12 -11
-5 -11 8 0 12 -18 12 -54 0 -34 -5 -56 -12 -59 -7 -3 7 -6 31 -6 39 -1 43 1
27 12 -13 10 -17 24 -14 57 3 40 6 45 26 43 13 -2 22 3 22 12 0 19 -13 26 -30
15z"/>
<path d="M5120 4540 c-8 -5 -26 -6 -41 -3 -15 3 -30 0 -33 -6 -4 -6 -2 -11 3
-11 16 0 14 -107 -1 -113 -7 -3 5 -6 27 -6 30 -1 36 2 27 11 -7 7 -12 31 -12
55 0 32 5 45 20 53 15 8 21 6 30 -9 14 -27 13 -84 -2 -99 -9 -9 -3 -12 28 -12
31 1 36 3 22 11 -26 14 -25 95 0 108 13 7 23 6 30 -1 16 -16 15 -91 0 -106 -9
-9 -3 -12 28 -11 21 0 33 3 27 6 -8 3 -13 23 -13 52 0 63 -17 86 -59 78 -18
-4 -40 -3 -50 2 -10 6 -23 6 -31 1z"/>
<path d="M455 4529 c-3 -4 -1 -10 5 -14 14 -9 13 -88 -2 -103 -9 -9 -5 -12 21
-12 28 0 31 2 22 14 -7 8 -11 34 -9 58 3 38 6 43 28 43 22 0 25 -5 28 -43 2
-24 -2 -50 -9 -58 -9 -12 -6 -14 20 -14 23 0 30 3 24 13 -4 6 -10 37 -13 67
l-5 55 -53 1 c-29 1 -55 -2 -57 -7z"/>
<path d="M1165 4529 c-13 -19 4 -54 35 -72 34 -20 38 -35 13 -44 -10 -4 -23 2
-35 16 l-18 23 0 -26 c0 -26 2 -27 43 -24 36 3 42 7 45 27 3 18 -6 33 -35 57
-34 29 -36 33 -19 40 13 5 23 1 32 -11 13 -18 14 -18 14 3 0 18 -6 22 -34 22
-19 0 -38 -5 -41 -11z"/>
<path d="M1382 4534 c-7 -3 -17 -15 -23 -27 -9 -18 -9 -20 2 -9 7 6 23 12 36
12 20 0 23 -3 17 -27 -4 -16 -11 -38 -15 -51 -12 -30 -11 -32 5 -32 8 0 16 19
22 53 8 49 11 52 42 57 18 3 33 10 33 15 -1 11 -97 18 -119 9z"/>
<path d="M1894 4529 c-3 -5 0 -9 5 -9 16 0 14 -107 -1 -113 -7 -3 5 -6 27 -6
25 0 35 2 27 8 -9 5 -12 25 -10 57 3 42 6 49 26 52 20 3 22 0 22 -51 0 -35 -5
-57 -12 -60 -7 -3 5 -5 27 -5 22 0 34 2 28 5 -8 3 -13 24 -13 56 0 29 -4 57
-8 64 -9 14 -109 16 -118 2z"/>
<path d="M2066 4518 c-54 -76 46 -164 103 -92 42 53 16 114 -49 114 -29 0 -43
-6 -54 -22z m84 -18 c14 -35 6 -78 -17 -87 -21 -8 -53 31 -53 66 0 55 50 70
70 21z"/>
<path d="M2440 4519 c-10 -17 -6 -25 24 -53 20 -18 36 -38 36 -44 0 -20 -37
-13 -53 11 l-16 22 0 -27 c-1 -26 2 -28 38 -28 67 0 81 54 20 85 -31 17 -39
45 -13 45 9 0 23 -8 30 -17 12 -17 13 -16 14 5 0 19 -5 22 -35 22 -24 0 -37
-6 -45 -21z"/>
<path d="M2642 4528 c-20 -20 -14 -35 23 -64 39 -29 43 -41 18 -51 -10 -4 -23
2 -35 16 l-18 23 0 -26 c0 -24 4 -26 40 -26 64 0 76 50 19 84 -31 19 -39 46
-13 46 9 0 23 -8 30 -17 12 -17 13 -16 14 5 0 18 -5 22 -33 22 -18 0 -38 -5
-45 -12z"/>
<path d="M3038 4533 c7 -3 12 -25 12 -58 0 -31 5 -57 13 -63 14 -12 102 -11
114 1 3 4 1 7 -5 7 -8 0 -12 21 -12 60 0 59 -1 60 -27 60 -19 0 -24 -3 -15 -9
9 -5 12 -25 10 -57 -3 -41 -6 -49 -23 -49 -17 0 -20 8 -23 58 -3 55 -4 57 -30
56 -15 0 -21 -3 -14 -6z"/>
<path d="M3335 4529 c-3 -4 -1 -10 5 -14 14 -9 13 -88 -2 -103 -9 -9 -5 -12
21 -12 28 0 31 2 22 14 -7 8 -11 34 -9 58 3 38 6 43 28 43 22 0 25 -5 28 -43
2 -24 -2 -50 -9 -58 -9 -12 -6 -14 20 -14 23 0 30 3 24 13 -4 6 -10 37 -13 67
l-5 55 -53 1 c-29 1 -55 -2 -57 -7z"/>
<path d="M3506 4525 c-42 -42 -25 -117 28 -123 27 -3 66 21 66 41 0 6 -8 3
-18 -6 -24 -22 -35 -21 -56 2 -22 24 -18 70 7 85 14 9 21 7 31 -6 7 -10 19
-18 25 -18 7 0 11 8 9 18 -4 24 -70 29 -92 7z"/>
<path d="M4242 4528 c-7 -7 -12 -25 -12 -40 0 -15 5 -28 12 -28 9 0 9 -3 0
-12 -7 -7 -12 -20 -12 -30 0 -10 -6 -27 -12 -38 -18 -28 3 -45 53 -44 85 3
106 73 25 84 -41 6 -49 23 -14 28 33 5 48 21 48 48 0 13 5 24 10 24 6 0 10 5
10 10 0 14 -94 12 -108 -2z m56 -36 c2 -23 -1 -32 -12 -32 -20 0 -38 34 -30
55 11 28 39 13 42 -23z m24 -100 c29 -11 4 -36 -36 -36 -41 0 -51 7 -43 29 7
15 48 19 79 7z"/>
<path d="M4906 4518 c-54 -76 46 -164 103 -92 42 53 16 114 -49 114 -29 0 -43
-6 -54 -22z m84 -18 c14 -35 6 -78 -17 -87 -21 -8 -53 31 -53 66 0 55 50 70
70 21z"/>
<path d="M5410 4526 c-17 -22 -8 -60 15 -64 11 -2 24 -8 29 -13 14 -12 -13
-39 -39 -39 -19 0 -22 4 -18 21 4 16 2 20 -8 17 -8 -3 -14 -13 -14 -24 0 -15
8 -20 36 -22 67 -6 97 59 39 81 -19 7 -29 18 -28 27 4 18 42 20 44 3 3 -25 4
-27 16 -15 8 8 8 15 -2 27 -16 19 -54 20 -70 1z"/>
<path d="M5696 4524 c-22 -22 -21 -87 2 -107 27 -25 78 -22 96 5 20 29 20 82
0 102 -8 9 -31 16 -49 16 -18 0 -41 -7 -49 -16z m74 -14 c28 -52 -14 -129 -46
-86 -14 20 -19 87 -7 99 13 14 43 6 53 -13z"/>
<path d="M5948 4521 c-53 -42 -40 -121 21 -121 27 0 90 39 65 40 -6 0 -17 -7
-24 -16 -8 -8 -25 -14 -39 -12 -20 2 -27 9 -29 31 -3 24 0 27 25 27 38 0 66
21 62 46 -6 27 -49 30 -81 5z m67 -11 c0 -16 -50 -38 -61 -27 -11 11 28 48 45
45 9 -2 16 -10 16 -18z"/>
<path d="M6070 4415 c0 -8 7 -15 15 -15 8 0 15 7 15 15 0 8 -7 15 -15 15 -8 0
-15 -7 -15 -15z"/>
<path d="M830 3930 c0 -7 1103 -10 3290 -10 2187 0 3290 3 3290 10 0 7 -1103
10 -3290 10 -2187 0 -3290 -3 -3290 -10z"/>
<path d="M5353 3762 c-22 -3 -33 -22 -13 -22 6 0 10 -13 10 -29 0 -24 -3 -28
-24 -24 -56 11 -100 -58 -76 -117 14 -33 31 -41 81 -39 55 2 72 9 60 23 -6 7
-12 57 -13 112 -3 96 -4 99 -25 96z m-14 -96 c7 -8 11 -36 9 -63 -2 -38 -7
-49 -22 -51 -26 -5 -46 24 -46 68 0 53 33 78 59 46z"/>
<path d="M5593 3762 c-22 -3 -33 -22 -13 -22 15 0 13 -197 -2 -203 -7 -3 7 -6
31 -6 38 -1 42 1 28 12 -13 10 -17 33 -19 117 -3 103 -4 105 -25 102z"/>
<path d="M5680 3758 c-21 -9 -22 -12 -7 -15 15 -4 17 -17 17 -98 0 -79 -3 -96
-17 -104 -14 -8 -8 -10 27 -10 25 0 39 3 33 6 -9 3 -13 37 -13 119 0 63 -3
114 -7 113 -5 0 -19 -5 -33 -11z"/>
<path d="M5783 3754 c-4 -10 1 -20 11 -26 17 -9 17 -11 0 -29 -10 -11 -12 -19
-6 -19 17 0 43 45 36 63 -8 23 -34 29 -41 11z"/>
<path d="M6326 3744 c-4 -14 -20 -33 -36 -42 -29 -16 -39 -32 -21 -32 4 0 20
9 35 21 l26 20 0 -120 c0 -74 4 -121 10 -121 6 0 10 47 10 122 0 114 1 120 18
106 23 -20 52 -30 52 -18 0 5 -13 16 -30 25 -16 8 -33 27 -36 40 -8 32 -20 32
-28 -1z"/>
<path d="M4693 3749 c14 -8 17 -25 17 -104 0 -79 -3 -96 -17 -104 -14 -8 -5
-10 37 -10 42 0 51 2 38 10 -19 11 -26 89 -9 89 11 0 71 -67 71 -80 0 -4 -6
-11 -12 -13 -7 -3 12 -6 43 -6 l57 -1 -67 64 -66 65 30 32 c17 17 44 40 60 50
l30 19 -50 0 c-36 0 -46 -3 -35 -10 12 -8 8 -17 -27 -52 l-43 -43 0 42 c0 29
5 45 18 52 13 8 4 10 -38 10 -42 0 -51 -2 -37 -10z"/>
<path d="M4940 3668 c-26 -29 -28 -98 -2 -121 29 -26 77 -22 101 10 12 14 19
29 15 32 -3 3 -10 -2 -15 -12 -11 -20 -59 -23 -77 -5 -7 7 -12 22 -12 35 0 21
4 23 50 23 54 0 65 14 32 43 -26 24 -67 21 -92 -5z m68 -15 c2 -9 -7 -13 -27
-13 -30 0 -39 9 -24 24 11 10 46 3 51 -11z"/>
<path d="M5081 3681 c-9 -6 -10 -11 -2 -15 15 -10 14 -109 -1 -124 -9 -9 -4
-12 26 -12 32 0 37 2 27 14 -18 22 -10 107 12 120 14 8 20 8 27 -4 14 -21 12
-104 -2 -118 -9 -9 -3 -12 27 -12 30 0 36 3 27 12 -7 7 -12 37 -12 68 0 31 -5
61 -12 68 -15 15 -51 15 -66 0 -9 -9 -12 -9 -12 0 0 14 -19 15 -39 3z"/>
<path d="M5442 3678 c-16 -16 -15 -38 2 -38 7 0 16 9 19 21 7 25 31 20 35 -7
2 -13 -9 -25 -35 -39 -68 -36 -52 -104 18 -78 16 7 29 7 29 2 0 -12 37 -12 45
1 3 6 2 10 -3 10 -5 0 -12 28 -15 61 -3 35 -11 65 -19 70 -19 13 -62 11 -76
-3z m54 -114 c-7 -20 -32 -18 -41 3 -4 12 1 24 17 37 23 18 23 18 26 -4 2 -12
1 -28 -2 -36z"/>
<path d="M5870 3675 c-19 -23 -4 -58 35 -83 39 -25 42 -45 7 -50 -14 -2 -25 5
-36 25 l-15 28 -1 -32 c0 -31 2 -33 38 -33 85 1 89 59 7 106 -12 6 -16 16 -12
27 9 24 36 21 47 -5 8 -22 9 -22 9 5 1 24 -2 27 -33 27 -18 0 -39 -7 -46 -15z"/>
<path d="M6090 3658 c-24 -26 -18 -38 8 -15 20 18 52 23 52 8 0 -5 -7 -28 -15
-51 -18 -52 -19 -73 -3 -68 7 3 16 22 20 44 17 86 16 84 53 84 19 0 35 5 35
10 0 6 -28 10 -65 10 -53 0 -68 -4 -85 -22z"/>
<path d="M1613 3552 c-22 -3 -33 -22 -13 -22 15 0 13 -183 -2 -198 -9 -9 -3
-12 27 -12 30 0 36 3 27 12 -7 7 -12 33 -12 59 0 49 18 76 45 65 19 -7 21
-106 3 -124 -9 -9 -3 -12 27 -12 30 0 36 3 27 12 -7 7 -12 37 -12 68 0 31 -5
61 -12 68 -16 16 -55 15 -65 0 -5 -8 -10 6 -13 37 -4 45 -7 50 -27 47z"/>
<path d="M2040 3548 c-15 -6 -20 -12 -12 -15 6 -3 12 -17 12 -32 0 -25 -3 -28
-26 -23 -39 7 -74 -31 -74 -83 0 -54 23 -76 76 -74 61 3 88 10 72 20 -9 6 -15
40 -18 112 l-5 104 -25 -9z m-11 -92 c7 -8 11 -36 9 -63 -2 -38 -7 -49 -22
-51 -41 -8 -64 79 -30 112 19 20 28 20 43 2z"/>
<path d="M1040 3543 c25 -10 30 -25 30 -105 0 -65 -3 -81 -20 -98 l-20 -20 45
0 45 0 -20 20 c-16 16 -20 33 -20 86 0 36 3 63 8 60 4 -2 23 -41 42 -85 19
-44 38 -81 41 -81 3 0 24 41 45 91 l39 91 3 -78 c2 -65 0 -81 -14 -91 -15 -11
-10 -13 37 -13 41 1 50 3 37 11 -15 8 -18 25 -18 104 0 79 3 96 18 104 13 8 9
10 -24 11 l-40 0 -33 -80 c-18 -44 -37 -78 -41 -75 -4 3 -22 38 -41 80 l-33
75 -40 -1 c-23 0 -34 -3 -26 -6z"/>
<path d="M1520 3498 c-14 -22 -16 -118 -4 -160 7 -23 47 -23 65 -1 12 15 12
16 -5 10 -26 -10 -36 8 -36 66 0 40 3 47 20 47 11 0 20 5 20 10 0 6 -9 10 -19
10 -12 0 -21 8 -23 20 -3 20 -3 20 -18 -2z"/>
<path d="M1377 3468 c-37 -29 -42 -93 -9 -130 20 -24 67 -23 92 2 29 29 25 45
-6 21 -29 -23 -55 -16 -74 19 -16 30 -4 40 51 40 53 0 57 4 33 38 -17 25 -60
30 -87 10z m63 -28 c0 -6 -13 -10 -30 -10 -30 0 -43 24 -17 33 15 5 47 -10 47
-23z"/>
<path d="M1798 3470 c-27 -17 -42 -74 -26 -107 26 -54 105 -56 133 -3 21 41
19 67 -10 95 -25 26 -67 32 -97 15z m67 -24 c21 -32 16 -95 -8 -110 -26 -16
-57 24 -57 73 0 61 36 81 65 37z"/>
<path d="M4617 3343 c513 -2 1353 -2 1865 0 513 1 94 2 -932 2 -1026 0 -1445
-1 -933 -2z"/>
<path d="M4333 3183 c-23 -4 -33 -23 -13 -23 15 0 13 -197 -2 -203 -7 -3 7 -5
32 -5 25 0 39 2 33 5 -9 3 -13 37 -13 119 0 63 -3 113 -7 113 -5 -1 -18 -4
-30 -6z"/>
<path d="M4433 3182 c-22 -3 -33 -22 -13 -22 6 0 10 -38 10 -95 0 -79 -3 -96
-17 -104 -14 -8 -7 -10 31 -11 42 0 47 2 33 13 -13 10 -17 33 -19 117 -3 103
-4 105 -25 102z"/>
<path d="M5380 3178 c-24 -9 -40 -25 -40 -42 0 -5 9 -1 19 8 23 21 50 18 65
-7 9 -16 5 -23 -23 -47 l-33 -28 27 -4 c35 -4 50 -27 41 -61 -7 -30 -40 -44
-61 -27 -8 7 -22 10 -31 6 -27 -10 -5 -26 37 -26 75 0 115 76 67 127 -12 13
-17 23 -10 23 16 0 25 37 13 58 -13 24 -40 32 -71 20z"/>
<path d="M5709 3183 c-41 -4 -47 -8 -62 -39 -22 -45 -21 -54 2 -54 32 0 74
-42 74 -75 0 -32 -29 -59 -53 -49 -38 16 -50 16 -50 0 0 -24 71 -21 104 5 50
39 28 130 -35 144 -40 9 -32 29 14 33 24 2 41 10 47 23 6 10 9 18 8 17 -2 -1
-24 -3 -49 -5z"/>
<path d="M6575 3183 c-61 -16 -112 -96 -100 -157 12 -56 31 -76 74 -76 49 0
71 24 71 77 0 51 -26 77 -70 71 -16 -3 -30 -2 -30 2 0 16 35 52 68 70 35 18
30 23 -13 13z m5 -123 c16 -29 8 -81 -13 -94 -15 -9 -22 -7 -38 13 -18 22 -26
81 -12 94 14 15 53 6 63 -13z"/>
<path d="M6815 3172 c-24 -13 -26 -17 -12 -20 15 -3 17 -16 17 -92 0 -74 -3
-91 -17 -99 -14 -8 -7 -10 31 -11 42 0 47 2 33 13 -13 10 -17 33 -19 119 l-3
106 -30 -16z"/>
<path d="M5230 3040 l0 -140 43 1 c34 1 37 2 17 8 -25 7 -25 7 -25 131 0 124
0 124 25 131 20 6 17 7 -17 8 l-43 1 0 -140z"/>
<path d="M5808 3173 c21 -4 22 -8 22 -133 0 -125 -1 -129 -22 -133 -14 -3 -9
-5 15 -6 l37 -1 0 140 0 140 -37 -1 c-24 -1 -29 -3 -15 -6z"/>
<path d="M6380 3040 l0 -140 38 1 c23 1 28 3 15 6 -22 4 -23 8 -23 133 0 125
1 129 23 133 13 3 8 5 -15 6 l-38 1 0 -140z"/>
<path d="M6980 3165 c-19 -11 -21 -14 -7 -15 15 0 17 -11 17 -90 0 -74 -3 -91
-17 -99 -14 -8 -5 -10 37 -10 43 0 50 2 33 9 -22 9 -23 15 -23 115 0 58 -3
105 -7 105 -5 -1 -19 -7 -33 -15z"/>
<path d="M7120 3171 c25 -7 25 -7 25 -131 0 -124 0 -124 -25 -131 -20 -6 -17
-7 18 -8 l42 -1 0 140 0 140 -42 -1 c-35 -1 -38 -2 -18 -8z"/>
<path d="M4182 3098 c-17 -17 -15 -38 3 -38 8 0 15 6 15 14 0 22 19 30 35 16
24 -20 17 -35 -21 -49 -42 -15 -64 -52 -44 -76 15 -18 51 -20 68 -3 9 9 12 9
12 0 0 -14 36 -16 45 -2 3 6 1 10 -4 10 -6 0 -11 22 -11 51 0 68 -13 89 -53
89 -18 0 -38 -5 -45 -12z m68 -81 c0 -25 -17 -47 -37 -47 -19 0 -16 47 5 59
26 16 32 13 32 -12z"/>
<path d="M5500 3030 c0 -5 20 -10 45 -10 25 0 45 5 45 10 0 6 -20 10 -45 10
-25 0 -45 -4 -45 -10z"/>
<path d="M6640 3030 c0 -5 20 -10 45 -10 25 0 45 5 45 10 0 6 -20 10 -45 10
-25 0 -45 -4 -45 -10z"/>
<path d="M830 2760 c0 -7 1103 -10 3290 -10 2187 0 3290 3 3290 10 0 7 -1103
10 -3290 10 -2187 0 -3290 -3 -3290 -10z"/>
<path d="M3993 2595 c-25 -11 -34 -23 -43 -56 -30 -110 32 -201 110 -159 40
21 52 121 22 179 -21 42 -48 53 -89 36z m57 -31 c13 -34 13 -140 0 -165 -15
-27 -45 -24 -58 6 -7 14 -12 50 -12 80 0 30 5 66 12 80 15 33 46 32 58 -1z"/>
<path d="M4252 2600 c-12 -5 -27 -21 -34 -35 -10 -22 -8 -30 10 -54 21 -29 21
-29 1 -46 -42 -39 -11 -95 54 -95 26 0 40 6 51 22 22 30 20 42 -9 76 -24 29
-24 29 -5 47 49 45 -3 110 -68 85z m56 -38 c4 -23 -13 -52 -29 -52 -16 0 -40
47 -33 64 10 26 58 17 62 -12z m-8 -117 c19 -21 22 -29 14 -43 -14 -21 -54
-22 -67 -1 -13 20 -1 69 16 69 8 0 24 -11 37 -25z"/>
<path d="M4419 2598 c-25 -8 -56 -54 -45 -66 3 -3 8 3 12 12 10 25 41 39 63
27 44 -24 33 -68 -35 -148 l-46 -53 70 0 c64 0 70 2 80 25 12 26 4 33 -15 14
-6 -6 -27 -9 -47 -7 l-36 3 39 46 c48 56 59 90 38 123 -19 28 -43 36 -78 24z"/>
<path d="M4600 2589 c-30 -15 -32 -18 -12 -19 21 0 22 -4 22 -82 0 -86 -4
-101 -30 -111 -8 -3 10 -5 40 -5 30 0 47 2 38 5 -15 4 -18 20 -20 118 l-3 113
-35 -19z"/>
<path d="M5230 2601 c-56 -14 -78 -141 -37 -205 20 -30 75 -36 100 -11 24 24
40 83 32 123 -12 69 -49 104 -95 93z m49 -42 c26 -74 5 -179 -34 -179 -23 0
-35 35 -35 105 0 36 5 75 10 86 17 30 46 24 59 -12z"/>
<path d="M5480 2598 c-44 -16 -54 -62 -20 -93 l20 -18 -20 -22 c-54 -57 17
-124 91 -85 26 14 25 67 -2 96 l-21 22 21 21 c24 24 26 41 9 63 -17 21 -48 27
-78 16z m55 -28 c6 -19 -9 -60 -22 -60 -26 0 -54 56 -36 73 14 15 52 6 58 -13z
m-11 -119 c35 -39 -1 -93 -39 -61 -15 13 -20 61 -8 73 12 12 29 7 47 -12z"/>
<path d="M5705 2603 c-61 -16 -112 -96 -100 -157 12 -56 31 -76 74 -76 49 0
71 24 71 77 0 51 -26 77 -70 71 -16 -3 -30 -2 -30 2 0 16 35 52 68 70 35 18
30 23 -13 13z m5 -123 c16 -29 8 -81 -13 -94 -15 -9 -22 -7 -38 13 -18 22 -26
81 -12 94 14 15 53 6 63 -13z"/>
<path d="M5830 2601 c-56 -14 -78 -141 -37 -205 20 -30 75 -36 100 -11 24 24
40 83 32 123 -12 69 -49 104 -95 93z m49 -42 c26 -74 5 -179 -34 -179 -23 0
-35 35 -35 105 0 36 5 75 10 86 17 30 46 24 59 -12z"/>
<path d="M6449 2596 c-37 -18 -50 -54 -46 -123 4 -77 25 -105 75 -101 51 4 73
40 73 113 0 87 -47 139 -102 111z m50 -20 c6 -8 14 -36 17 -62 11 -92 -25
-160 -63 -121 -22 22 -25 155 -4 181 17 20 35 21 50 2z"/>
<path d="M6880 2598 c-24 -9 -40 -25 -40 -42 0 -5 9 -1 19 8 23 21 50 18 65
-7 9 -16 5 -23 -23 -47 l-33 -28 27 -4 c35 -4 50 -27 41 -61 -7 -30 -40 -44
-61 -27 -8 7 -22 10 -31 6 -27 -10 -5 -26 37 -26 75 0 115 76 67 127 -12 13
-17 23 -10 23 16 0 25 37 13 58 -13 24 -40 32 -71 20z"/>
<path d="M7047 2531 c-31 -44 -57 -84 -57 -90 0 -6 21 -11 50 -11 49 0 50 -1
50 -30 0 -20 5 -30 15 -30 10 0 15 10 15 30 0 20 5 30 15 30 8 0 15 5 15 10 0
6 -7 10 -15 10 -12 0 -15 16 -15 80 0 44 -4 80 -8 80 -5 0 -34 -36 -65 -79z
m43 -31 l0 -50 -35 0 c-19 0 -35 4 -35 8 0 9 59 92 66 92 2 0 4 -22 4 -50z"/>
<path d="M1050 2590 c12 -7 15 -31 15 -105 0 -74 -3 -98 -15 -105 -11 -7 -1
-10 33 -10 44 0 47 1 33 16 -9 9 -16 32 -16 55 l0 39 50 0 50 0 0 -45 c0 -31
-5 -47 -17 -54 -14 -8 -5 -10 37 -10 42 0 51 2 38 10 -15 8 -18 25 -18 104 0
79 3 96 18 104 13 8 4 10 -38 10 -30 -1 -47 -3 -37 -6 13 -3 17 -15 17 -49 l0
-44 -50 0 -50 0 0 40 c0 27 6 42 18 49 13 8 6 10 -33 11 -35 0 -46 -3 -35 -10z"/>
<path d="M6662 2575 c-11 -24 0 -36 13 -15 9 15 98 13 93 -2 -50 -134 -66
-211 -39 -182 9 8 71 199 71 216 0 4 -29 8 -63 8 -58 0 -65 -2 -75 -25z"/>
<path d="M1288 2523 c7 -3 12 -25 12 -59 0 -89 2 -90 126 -91 78 -1 103 2 95
10 -6 6 -11 35 -11 63 0 44 3 54 20 59 11 3 24 3 30 0 14 -9 13 -108 -2 -123
-9 -9 -2 -12 32 -12 36 1 41 3 28 11 -13 7 -18 23 -18 58 0 51 18 78 45 67 19
-7 22 -122 3 -129 -7 -3 6 -6 30 -6 40 -1 42 0 28 15 -11 10 -16 34 -16 68 0
56 -12 76 -45 76 -12 0 -26 -5 -33 -12 -9 -9 -15 -9 -24 0 -15 15 -55 16 -64
1 -5 -8 -9 -8 -14 1 -5 7 -16 9 -29 5 -17 -5 -20 -10 -11 -20 14 -17 9 -117
-6 -122 -26 -9 -44 28 -44 88 0 58 -1 59 -27 58 -16 0 -22 -3 -15 -6 7 -3 12
-26 12 -63 0 -46 -4 -59 -17 -64 -26 -11 -43 21 -43 81 0 51 -1 53 -27 52 -16
0 -22 -3 -15 -6z"/>
<path d="M1752 2518 c-16 -16 -15 -38 2 -38 7 0 16 9 19 21 7 25 31 20 35 -7
2 -13 -9 -25 -35 -39 -68 -36 -52 -104 18 -78 16 6 29 8 29 3 0 -4 30 -8 68
-8 37 0 61 2 55 5 -8 3 -13 26 -13 63 0 46 4 59 17 64 27 11 45 -22 40 -73 -3
-24 -11 -47 -18 -52 -9 -6 2 -8 31 -8 25 0 39 3 33 6 -8 3 -13 25 -13 59 0 31
-5 64 -10 75 -12 21 -54 26 -66 8 -5 -8 -9 -8 -14 1 -5 7 -16 9 -30 5 -16 -5
-19 -10 -11 -18 13 -13 15 -113 2 -121 -24 -15 -39 7 -44 66 -3 34 -11 64 -19
69 -19 13 -62 11 -76 -3z m54 -114 c-7 -20 -32 -18 -41 3 -4 12 1 24 17 37 23
18 23 18 26 -4 2 -12 1 -28 -2 -36z"/>
<path d="M4137 2404 c-14 -14 -7 -35 11 -32 9 2 17 10 17 17 0 16 -18 25 -28
15z"/>
<path d="M5367 2404 c-14 -14 -7 -35 11 -32 9 2 17 10 17 17 0 16 -18 25 -28
15z"/>
<path d="M6593 2395 c-7 -20 2 -29 21 -22 9 4 13 13 10 22 -8 19 -23 19 -31 0z"/>
<path d="M830 2180 c0 -7 1103 -10 3290 -10 2187 0 3290 3 3290 10 0 7 -1103
10 -3290 10 -2187 0 -3290 -3 -3290 -10z"/>
<path d="M1111 2003 c-20 -7 -37 -13 -37 -13 -1 0 -9 -15 -18 -34 -44 -93 4
-176 100 -176 37 0 94 24 94 40 0 14 -11 12 -31 -6 -21 -19 -67 -21 -97 -5
-31 16 -48 79 -33 124 14 41 26 53 63 62 22 6 33 1 58 -23 l30 -30 0 36 0 37
-46 0 c-26 0 -63 -5 -83 -12z"/>
<path d="M2320 2001 c0 -12 6 -21 16 -21 9 0 14 7 12 17 -5 25 -28 28 -28 4z"/>
<path d="M3993 2005 c-25 -11 -34 -23 -43 -56 -30 -110 32 -201 110 -159 40
21 52 121 22 179 -21 42 -48 53 -89 36z m57 -31 c13 -34 13 -140 0 -165 -15
-27 -45 -24 -58 6 -7 14 -12 50 -12 80 0 30 5 66 12 80 15 33 46 32 58 -1z"/>
<path d="M4422 2010 c-12 -5 -27 -21 -34 -35 -10 -22 -8 -30 10 -54 21 -29 21
-29 1 -46 -42 -39 -11 -95 54 -95 26 0 40 6 51 22 22 30 20 42 -9 76 -24 29
-24 29 -5 47 49 45 -3 110 -68 85z m56 -38 c4 -23 -13 -52 -29 -52 -16 0 -40
47 -33 64 10 26 58 17 62 -12z m-8 -117 c19 -21 22 -29 14 -43 -14 -21 -54
-22 -67 -1 -13 20 -1 69 16 69 8 0 24 -11 37 -25z"/>
<path d="M4600 2012 c-21 -6 -50 -33 -50 -45 0 -6 9 -2 19 7 27 25 65 17 69
-14 3 -17 -4 -31 -25 -47 -27 -22 -27 -23 -6 -23 13 0 30 -11 39 -25 15 -23
15 -27 -1 -51 -12 -18 -22 -24 -36 -20 -10 3 -28 9 -39 12 -14 5 -20 2 -20
-10 0 -25 84 -22 110 4 25 25 27 82 4 105 -13 12 -14 19 -5 28 34 34 -11 95
-59 79z"/>
<path d="M5230 2011 c-56 -14 -78 -141 -37 -205 20 -30 75 -36 100 -11 24 24
40 83 32 123 -12 69 -49 104 -95 93z m49 -42 c26 -74 5 -179 -34 -179 -23 0
-35 35 -35 105 0 36 5 75 10 86 17 30 46 24 59 -12z"/>
<path d="M5473 2005 c-28 -12 -43 -32 -43 -57 0 -6 11 1 25 16 27 29 29 30 56
16 37 -20 25 -70 -33 -136 l-51 -59 68 -3 c69 -3 84 4 85 38 0 11 -3 11 -12 2
-7 -7 -32 -12 -56 -12 l-45 0 45 48 c54 58 64 83 46 118 -17 35 -46 45 -85 29z"/>
<path d="M5652 1945 c-65 -94 -66 -105 -7 -105 43 0 45 -1 45 -30 0 -20 5 -30
15 -30 10 0 15 10 15 30 0 23 4 30 20 30 11 0 20 5 20 10 0 6 -9 10 -20 10
-18 0 -20 7 -20 80 0 44 -4 80 -8 80 -4 0 -31 -34 -60 -75z m38 -35 l0 -50
-35 0 c-19 0 -35 3 -35 6 0 8 60 94 65 94 3 0 5 -22 5 -50z"/>
<path d="M5822 2010 c-12 -5 -27 -21 -34 -35 -10 -22 -8 -30 10 -54 21 -29 21
-29 1 -46 -42 -39 -11 -95 54 -95 26 0 40 6 51 22 22 30 20 42 -9 76 -24 29
-24 29 -5 47 49 45 -3 110 -68 85z m56 -38 c4 -23 -13 -52 -29 -52 -16 0 -40
47 -33 64 10 26 58 17 62 -12z m-8 -117 c19 -21 22 -29 14 -43 -14 -21 -54
-22 -67 -1 -13 20 -1 69 16 69 8 0 24 -11 37 -25z"/>
<path d="M6449 2006 c-37 -18 -50 -54 -46 -123 4 -77 25 -105 75 -101 51 4 73
40 73 113 0 87 -47 139 -102 111z m50 -20 c6 -8 14 -36 17 -62 11 -92 -25
-160 -63 -121 -22 22 -25 155 -4 181 17 20 35 21 50 2z"/>
<path d="M6709 2008 c-34 -11 -53 -56 -52 -121 1 -65 27 -101 76 -105 32 -3
39 1 57 30 26 43 27 122 1 164 -22 36 -45 45 -82 32z m52 -30 c16 -30 16 -137
0 -166 -15 -29 -41 -25 -59 8 -16 31 -11 142 7 164 19 22 38 20 52 -6z"/>
<path d="M6880 2008 c-24 -9 -40 -25 -40 -42 0 -5 9 -1 19 8 23 21 50 18 65
-7 9 -16 5 -23 -23 -47 l-33 -28 27 -4 c35 -4 50 -27 41 -61 -7 -30 -40 -44
-61 -27 -8 7 -22 10 -31 6 -27 -10 -5 -26 37 -26 75 0 115 76 67 127 -12 13
-17 23 -10 23 16 0 25 37 13 58 -13 24 -40 32 -71 20z"/>
<path d="M7080 2002 c-54 -27 -83 -77 -77 -135 5 -59 29 -87 74 -87 44 0 73
30 73 75 0 46 -31 79 -71 73 -16 -3 -29 -1 -29 3 0 14 52 69 65 69 8 0 17 5
20 10 10 15 -16 12 -55 -8z m29 -124 c29 -52 -22 -118 -56 -72 -14 19 -18 86
-6 98 14 14 48 0 62 -26z"/>
<path d="M1273 1999 c14 -8 17 -25 17 -104 0 -79 -3 -96 -17 -104 -13 -8 8
-10 79 -11 l96 0 11 30 c12 35 8 37 -19 10 -14 -14 -33 -20 -65 -20 l-45 0 0
95 c0 79 3 96 18 104 13 8 4 10 -38 10 -42 0 -51 -2 -37 -10z"/>
<path d="M1488 2000 c21 -9 22 -15 22 -105 0 -90 -1 -96 -22 -105 -18 -7 -9
-9 37 -9 45 0 56 2 43 10 -15 8 -18 25 -18 109 0 85 2 99 18 103 9 3 -10 5
-43 5 -45 1 -54 -1 -37 -8z"/>
<path d="M1603 1999 c14 -8 17 -25 17 -104 0 -79 -3 -96 -17 -104 -14 -8 -5
-10 37 -10 42 0 51 2 38 10 -12 7 -18 22 -18 48 0 37 1 38 42 44 49 7 70 29
66 72 -2 20 -11 34 -28 42 -31 16 -164 18 -137 2z m115 -21 c29 -29 7 -78 -35
-78 -21 0 -23 5 -23 45 0 40 2 45 23 45 13 0 28 -5 35 -12z"/>
<path d="M1908 1994 c20 -13 22 -24 22 -95 0 -66 -3 -82 -20 -99 l-20 -20 45
0 45 0 -20 20 c-16 16 -20 33 -20 86 0 36 4 64 9 62 5 -1 40 -41 77 -88 l69
-85 5 108 c4 81 9 110 20 117 11 7 2 10 -29 10 -39 0 -42 -2 -27 -13 14 -10
16 -25 14 -76 l-3 -64 -59 76 c-53 71 -61 77 -94 77 -36 0 -36 0 -14 -16z"/>
<path d="M4250 1995 c-19 -11 -21 -14 -7 -15 15 0 17 -11 17 -94 0 -82 -2 -95
-17 -99 -10 -3 7 -5 37 -5 30 0 47 2 38 5 -16 4 -18 18 -18 114 0 117 -2 121
-50 94z"/>
<path d="M2172 1928 c-16 -16 -15 -38 2 -38 7 0 16 9 19 21 7 25 31 20 35 -7
2 -13 -9 -25 -35 -39 -68 -36 -52 -104 18 -78 16 6 29 8 29 3 0 -4 33 -8 73
-9 53 0 67 2 55 10 -15 8 -18 24 -18 80 0 68 -1 70 -22 63 -30 -8 -36 -16 -20
-21 14 -5 17 -109 3 -117 -24 -15 -39 7 -44 66 -3 34 -11 64 -19 69 -19 13
-62 11 -76 -3z m54 -114 c-7 -20 -32 -18 -41 3 -4 12 1 24 17 37 23 18 23 18
26 -4 2 -12 1 -28 -2 -36z"/>
<path d="M2393 1923 c8 -10 26 -45 39 -78 13 -33 28 -59 33 -58 5 0 24 35 41
77 l32 76 -25 0 c-19 0 -23 -3 -15 -12 7 -9 5 -27 -8 -57 l-17 -45 -18 46 c-9
26 -14 51 -10 57 4 7 -7 11 -31 11 -35 0 -36 -1 -21 -17z"/>
<path d="M2579 1921 c-32 -26 -34 -105 -5 -127 28 -20 73 -17 96 6 29 29 25
45 -6 21 -29 -23 -55 -16 -74 19 -16 30 -4 40 46 40 48 0 57 15 28 44 -21 22
-57 20 -85 -3z m65 -17 c4 -10 -3 -14 -29 -14 -39 0 -41 2 -20 24 17 17 40 12
49 -10z"/>
<path d="M1790 1860 c0 -5 18 -10 40 -10 22 0 40 5 40 10 0 6 -18 10 -40 10
-22 0 -40 -4 -40 -10z"/>
<path d="M4137 1814 c-14 -14 -7 -35 11 -32 9 2 17 10 17 17 0 16 -18 25 -28
15z"/>
<path d="M5367 1814 c-14 -14 -7 -35 11 -32 9 2 17 10 17 17 0 16 -18 25 -28
15z"/>
<path d="M6593 1805 c-7 -20 2 -29 21 -22 9 4 13 13 10 22 -8 19 -23 19 -31 0z"/>
<path d="M1111 1593 c-20 -7 -37 -13 -37 -13 -1 0 -9 -15 -18 -34 -44 -93 4
-176 100 -176 37 0 94 24 94 40 0 14 -11 12 -31 -6 -21 -19 -67 -21 -97 -5
-31 16 -48 79 -33 124 14 41 26 53 63 62 22 6 33 1 58 -23 l30 -30 0 36 0 37
-46 0 c-26 0 -63 -5 -83 -12z"/>
<path d="M1951 1598 c-26 -9 -44 -44 -36 -69 4 -11 29 -36 56 -56 49 -35 60
-58 37 -81 -20 -20 -45 -14 -73 19 -30 37 -34 35 -28 -7 5 -30 6 -31 60 -33
77 -2 108 28 87 83 -3 9 -28 31 -55 51 -50 36 -63 67 -33 79 20 8 48 -8 68
-36 16 -22 16 -22 16 14 0 35 -1 36 -40 40 -22 2 -49 0 -59 -4z"/>
<path d="M2113 1602 c-22 -3 -33 -22 -13 -22 15 0 13 -197 -2 -203 -7 -3 7 -6
31 -6 38 -1 42 1 28 12 -13 10 -17 33 -19 117 -3 103 -4 105 -25 102z"/>
<path d="M2204 1599 c-10 -17 13 -36 27 -22 12 12 4 33 -11 33 -5 0 -12 -5
-16 -11z"/>
<path d="M2388 1603 c-19 -5 -25 -23 -8 -23 6 0 10 -13 10 -28 0 -26 -3 -28
-28 -24 -60 8 -104 -77 -68 -133 16 -24 21 -25 79 -21 34 2 64 5 67 5 2 1 -1
6 -8 13 -8 8 -12 48 -12 115 0 57 -3 102 -7 102 -5 -1 -16 -3 -25 -6z m-9 -97
c7 -8 11 -36 9 -63 -3 -44 -5 -48 -28 -48 -44 0 -62 72 -28 112 14 17 33 16
47 -1z"/>
<path d="M2477 1603 c-13 -12 -7 -33 8 -33 8 0 15 9 15 20 0 20 -11 26 -23 13z"/>
<path d="M3993 1595 c-25 -11 -34 -23 -43 -56 -30 -110 32 -201 110 -159 40
21 52 121 22 179 -21 42 -48 53 -89 36z m57 -31 c13 -34 13 -140 0 -165 -15
-27 -45 -24 -58 6 -7 14 -12 50 -12 80 0 30 5 66 12 80 15 33 46 32 58 -1z"/>
<path d="M4249 1598 c-25 -8 -56 -54 -45 -66 3 -3 8 3 12 12 10 25 41 39 63
27 44 -24 33 -68 -35 -148 l-46 -53 70 0 c64 0 70 2 80 25 12 26 4 33 -15 14
-6 -6 -27 -9 -47 -7 l-36 3 39 46 c48 56 59 90 38 123 -19 28 -43 36 -78 24z"/>
<path d="M4430 1602 c-21 -6 -50 -33 -50 -45 0 -6 8 -3 18 6 23 21 46 22 62 2
15 -19 4 -52 -21 -60 -24 -8 -25 -25 -1 -25 26 0 42 -20 42 -51 0 -38 -24 -55
-56 -40 -33 15 -44 14 -44 -4 0 -23 72 -19 104 6 31 24 35 72 9 101 -13 14
-14 21 -5 30 35 35 -10 96 -58 80z"/>
<path d="M4593 1595 c-25 -11 -34 -23 -43 -56 -30 -110 32 -201 110 -159 40
21 52 121 22 179 -21 42 -48 53 -89 36z m57 -31 c13 -34 13 -140 0 -165 -15
-27 -45 -24 -58 6 -7 14 -12 50 -12 80 0 30 5 66 12 80 15 33 46 32 58 -1z"/>
<path d="M5230 1601 c-56 -14 -78 -141 -37 -205 20 -30 75 -36 100 -11 24 24
40 83 32 123 -12 69 -49 104 -95 93z m49 -42 c26 -74 5 -179 -34 -179 -23 0
-35 35 -35 105 0 36 5 75 10 86 17 30 46 24 59 -12z"/>
<path d="M5473 1595 c-28 -12 -43 -32 -43 -57 0 -6 11 1 25 16 27 29 29 30 56
16 37 -20 25 -70 -33 -136 l-51 -59 68 -3 c69 -3 84 4 85 38 0 11 -3 11 -12 2
-7 -7 -32 -12 -56 -12 l-45 0 45 48 c54 58 64 83 46 118 -17 35 -46 45 -85 29z"/>
<path d="M5822 1600 c-12 -5 -27 -21 -34 -35 -10 -22 -8 -30 10 -54 21 -29 21
-29 1 -46 -42 -39 -11 -95 54 -95 26 0 40 6 51 22 22 30 20 42 -9 76 -24 29
-24 29 -5 47 49 45 -3 110 -68 85z m56 -38 c4 -23 -13 -52 -29 -52 -16 0 -40
47 -33 64 10 26 58 17 62 -12z m-8 -117 c19 -21 22 -29 14 -43 -14 -21 -54
-22 -67 -1 -13 20 -1 69 16 69 8 0 24 -11 37 -25z"/>
<path d="M6449 1596 c-37 -18 -50 -54 -46 -123 4 -77 25 -105 75 -101 51 4 73
40 73 113 0 87 -47 139 -102 111z m50 -20 c6 -8 14 -36 17 -62 11 -92 -25
-160 -63 -121 -22 22 -25 155 -4 181 17 20 35 21 50 2z"/>
<path d="M6715 1592 c-24 -13 -26 -17 -12 -20 15 -3 17 -16 17 -92 0 -74 -3
-91 -17 -99 -14 -8 -7 -10 31 -11 42 0 47 2 33 13 -13 10 -17 33 -19 119 l-3
106 -30 -16z"/>
<path d="M6873 1595 c-28 -12 -43 -32 -43 -57 0 -6 11 1 25 16 27 29 29 30 56
16 37 -20 25 -70 -33 -136 l-51 -59 68 -3 c69 -3 84 4 85 38 0 11 -3 11 -12 2
-7 -7 -32 -12 -56 -12 l-45 0 45 48 c54 58 64 83 46 118 -17 35 -46 45 -85 29z"/>
<path d="M7050 1598 c-24 -9 -40 -25 -40 -42 0 -5 9 -1 19 8 23 21 50 18 65
-7 9 -16 5 -23 -23 -47 l-33 -28 27 -4 c35 -4 50 -27 41 -61 -7 -30 -40 -44
-61 -27 -8 7 -22 10 -31 6 -27 -10 -5 -26 37 -26 75 0 115 76 67 127 -12 13
-17 23 -10 23 16 0 25 37 13 58 -13 24 -40 32 -71 20z"/>
<path d="M1273 1589 c14 -8 17 -25 17 -104 0 -79 -3 -96 -17 -104 -13 -8 8
-10 79 -11 l96 0 11 30 c12 35 8 37 -19 10 -14 -14 -33 -20 -65 -20 l-45 0 0
95 c0 79 3 96 18 104 13 8 4 10 -38 10 -42 0 -51 -2 -37 -10z"/>
<path d="M1488 1590 c21 -9 22 -15 22 -105 0 -90 -1 -96 -22 -105 -18 -7 -9
-9 37 -9 45 0 56 2 43 10 -15 8 -18 25 -18 109 0 85 2 99 18 103 9 3 -10 5
-43 5 -45 1 -54 -1 -37 -8z"/>
<path d="M1603 1589 c14 -8 17 -25 17 -104 0 -79 -3 -96 -17 -104 -14 -8 -5
-10 37 -10 42 0 51 2 38 10 -12 7 -18 22 -18 48 0 37 1 38 42 44 49 7 70 29
66 72 -2 20 -11 34 -28 42 -31 16 -164 18 -137 2z m115 -21 c29 -29 7 -78 -35
-78 -21 0 -23 5 -23 45 0 40 2 45 23 45 13 0 28 -5 35 -12z"/>
<path d="M5610 1581 c-14 -26 -13 -38 2 -23 13 13 98 17 98 4 0 -5 -13 -48
-30 -97 -35 -103 -33 -95 -17 -95 7 0 27 43 46 103 19 56 36 108 38 115 4 9
-12 12 -61 12 -54 0 -67 -3 -76 -19z"/>
<path d="M2208 1523 c-19 -5 -25 -23 -8 -23 6 0 10 -25 10 -55 0 -41 -4 -56
-17 -64 -14 -8 -7 -10 32 -10 39 0 46 2 33 10 -15 8 -18 24 -18 79 0 39 -3 69
-7 69 -5 -1 -16 -3 -25 -6z"/>
<path d="M2468 1523 c-19 -5 -25 -23 -8 -23 15 0 13 -117 -2 -123 -7 -3 7 -5
32 -5 25 0 39 2 33 5 -9 3 -13 29 -13 79 0 76 -1 78 -42 67z"/>
<path d="M2561 1521 c-9 -6 -10 -11 -2 -15 6 -4 11 -31 11 -61 0 -41 -4 -56
-17 -64 -14 -8 -8 -10 27 -10 25 0 39 3 33 6 -8 3 -13 26 -13 63 0 46 4 59 17
64 27 11 45 -22 40 -73 -3 -24 -11 -47 -18 -52 -9 -6 2 -8 31 -8 25 0 39 3 33
6 -8 3 -13 25 -13 59 0 31 -5 64 -10 75 -12 21 -50 25 -68 7 -9 -9 -12 -9 -12
0 0 14 -19 15 -39 3z"/>
<path d="M2744 1505 c-17 -26 -17 -29 -2 -56 14 -24 15 -29 2 -40 -8 -6 -12
-20 -9 -30 3 -9 1 -20 -5 -24 -16 -10 -12 -42 6 -49 34 -13 90 -6 112 14 40
38 28 57 -48 76 -36 9 -41 12 -25 18 50 18 70 33 74 56 1 14 8 28 14 32 18 11
6 16 -50 24 -48 6 -52 5 -69 -21z m66 -4 c14 -28 12 -58 -4 -64 -26 -10 -49
36 -34 66 11 22 25 22 38 -2z m18 -137 c25 -7 29 -29 6 -38 -25 -10 -72 -7
-79 4 -19 31 18 48 73 34z"/>
<path d="M1790 1450 c0 -5 18 -10 40 -10 22 0 40 5 40 10 0 6 -18 10 -40 10
-22 0 -40 -4 -40 -10z"/>
<path d="M4137 1404 c-14 -14 -7 -35 11 -32 9 2 17 10 17 17 0 16 -18 25 -28
15z"/>
<path d="M5367 1404 c-14 -14 -7 -35 11 -32 9 2 17 10 17 17 0 16 -18 25 -28
15z"/>
<path d="M6593 1395 c-7 -20 2 -29 21 -22 9 4 13 13 10 22 -8 19 -23 19 -31 0z"/>
<path d="M1111 1183 c-20 -7 -37 -13 -37 -13 -1 0 -9 -15 -18 -34 -44 -93 4
-176 100 -176 37 0 94 24 94 40 0 14 -11 12 -31 -6 -21 -19 -67 -21 -97 -5
-31 16 -48 79 -33 124 14 41 26 53 63 62 22 6 33 1 58 -23 l30 -30 0 36 0 37
-46 0 c-26 0 -63 -5 -83 -12z"/>
<path d="M1971 1183 c-20 -7 -37 -13 -37 -13 -1 0 -9 -15 -18 -34 -44 -93 4
-176 100 -176 37 0 94 24 94 40 0 14 -11 12 -31 -6 -21 -19 -67 -21 -97 -5
-31 16 -48 79 -33 124 14 41 26 53 63 62 22 6 33 1 58 -23 l30 -30 0 36 0 37
-46 0 c-26 0 -63 -5 -83 -12z"/>
<path d="M2763 1192 c-22 -3 -33 -22 -13 -22 15 0 13 -197 -2 -203 -7 -3 7 -6
31 -6 38 -1 42 1 28 12 -13 10 -17 33 -19 117 -3 103 -4 105 -25 102z"/>
<path d="M3107 1193 c-13 -12 -7 -33 8 -33 8 0 15 9 15 20 0 20 -11 26 -23 13z"/>
<path d="M3993 1185 c-25 -11 -34 -23 -43 -56 -30 -110 32 -201 110 -159 40
21 52 121 22 179 -21 42 -48 53 -89 36z m57 -31 c13 -34 13 -140 0 -165 -15
-27 -45 -24 -58 6 -7 14 -12 50 -12 80 0 30 5 66 12 80 15 33 46 32 58 -1z"/>
<path d="M4249 1188 c-25 -8 -56 -54 -45 -66 3 -3 8 3 12 12 10 25 41 39 63
27 44 -24 33 -68 -35 -148 l-46 -53 70 0 c64 0 70 2 80 25 12 26 4 33 -15 14
-6 -6 -27 -9 -47 -7 l-36 3 39 46 c48 56 59 90 38 123 -19 28 -43 36 -78 24z"/>
<path d="M4422 1125 c-65 -94 -66 -105 -7 -105 43 0 45 -1 45 -30 0 -20 5 -30
15 -30 10 0 15 10 15 30 0 23 4 30 20 30 11 0 20 5 20 10 0 6 -9 10 -20 10
-18 0 -20 7 -20 80 0 44 -4 80 -8 80 -4 0 -31 -34 -60 -75z m38 -35 l0 -50
-35 0 c-19 0 -35 3 -35 6 0 8 60 94 65 94 3 0 5 -22 5 -50z"/>
<path d="M4614 1150 c-92 -125 -93 -130 -29 -130 43 0 45 -1 45 -30 0 -20 5
-30 15 -30 9 0 15 10 15 26 0 17 6 28 20 31 25 7 26 19 0 26 -17 4 -20 15 -22
83 l-3 79 -41 -55z m13 -107 c-3 -2 -19 -3 -36 -1 l-31 3 33 50 32 49 3 -48
c2 -26 1 -50 -1 -53z"/>
<path d="M5230 1191 c-56 -14 -78 -141 -37 -205 20 -30 75 -36 100 -11 24 24
40 83 32 123 -12 69 -49 104 -95 93z m49 -42 c26 -74 5 -179 -34 -179 -23 0
-35 35 -35 105 0 36 5 75 10 86 17 30 46 24 59 -12z"/>
<path d="M5473 1185 c-28 -12 -43 -32 -43 -57 0 -6 11 1 25 16 27 29 29 30 56
16 37 -20 25 -70 -33 -136 l-51 -59 68 -3 c69 -3 84 4 85 37 0 12 -3 12 -12 3
-7 -7 -32 -12 -56 -12 l-45 0 45 48 c54 58 64 83 46 118 -17 35 -46 45 -85 29z"/>
<path d="M5649 1188 c-27 -9 -49 -44 -49 -77 0 -10 10 -31 22 -46 18 -23 27
-26 55 -22 18 3 33 4 33 2 0 -12 -64 -75 -75 -75 -8 0 -17 -5 -20 -10 -10 -16
45 0 78 22 57 40 76 131 37 180 -23 31 -46 38 -81 26z m49 -21 c13 -16 19 -78
8 -95 -9 -15 -39 -15 -54 0 -13 13 -17 90 -5 101 11 11 40 8 51 -6z"/>
<path d="M6426 1169 c-21 -25 -26 -41 -26 -87 0 -78 27 -122 73 -122 47 0 69
28 75 95 5 66 -2 99 -28 125 -29 29 -64 25 -94 -11z m69 -94 c0 -96 -6 -118
-28 -96 -14 14 -17 164 -4 195 6 15 10 17 20 7 8 -8 12 -45 12 -106z"/>
<path d="M6708 1182 c-40 -18 -49 -31 -20 -28 15 1 17 -10 20 -85 3 -81 1 -86
-20 -97 -19 -9 -12 -11 47 -11 66 -1 68 0 47 15 -20 14 -22 23 -22 120 0 57
-3 104 -7 103 -5 0 -25 -8 -45 -17z"/>
<path d="M6853 1174 c-14 -14 -23 -28 -20 -31 4 -3 14 2 23 11 23 24 48 16 52
-16 2 -19 -3 -30 -19 -38 -21 -12 -21 -12 9 -30 38 -24 45 -36 38 -66 -8 -29
-23 -30 -65 -6 -27 15 -33 15 -41 2 -33 -53 97 -54 137 -1 18 23 16 71 -4 93
-13 14 -14 21 -5 30 29 29 -3 78 -52 78 -16 0 -38 -11 -53 -26z"/>
<path d="M7026 1179 c-52 -41 -27 -129 39 -129 26 0 27 -1 13 -22 -8 -13 -30
-33 -48 -45 -29 -20 -30 -23 -11 -23 32 0 75 25 105 60 36 44 37 120 1 155
-30 30 -64 32 -99 4z m71 -52 c4 -30 1 -47 -7 -52 -30 -19 -56 75 -28 103 18
18 30 0 35 -51z"/>
<path d="M1273 1179 c14 -8 17 -25 17 -104 0 -79 -3 -96 -17 -104 -13 -8 8
-10 79 -11 l96 0 11 30 c12 35 8 37 -19 10 -14 -14 -33 -20 -65 -20 l-45 0 0
95 c0 79 3 96 18 104 13 8 4 10 -38 10 -42 0 -51 -2 -37 -10z"/>
<path d="M1488 1180 c21 -9 22 -15 22 -105 0 -90 -1 -96 -22 -105 -18 -7 -9
-9 37 -9 45 0 56 2 43 10 -15 8 -18 25 -18 109 0 85 2 99 18 103 9 3 -10 5
-43 5 -45 1 -54 -1 -37 -8z"/>
<path d="M1603 1179 c14 -8 17 -25 17 -104 0 -79 -3 -96 -17 -104 -14 -8 -5
-10 37 -10 42 0 51 2 38 10 -12 7 -18 22 -18 48 0 37 1 38 42 44 49 7 70 29
66 72 -2 20 -11 34 -28 42 -31 16 -164 18 -137 2z m115 -21 c29 -29 7 -78 -35
-78 -21 0 -23 5 -23 45 0 40 2 45 23 45 13 0 28 -5 35 -12z"/>
<path d="M5820 1175 c-19 -11 -21 -14 -7 -15 15 0 17 -11 17 -94 0 -82 -2 -95
-17 -99 -10 -3 7 -5 37 -5 30 0 47 2 38 5 -16 4 -18 18 -18 114 0 117 -2 121
-50 94z"/>
<path d="M3002 1133 c-14 -15 -19 -29 -13 -32 5 -4 11 -36 13 -71 3 -64 3 -65
32 -65 16 0 31 5 33 11 2 7 -4 11 -14 10 -15 -1 -18 8 -21 55 -3 51 -1 57 20
64 l23 8 -22 4 c-12 2 -23 13 -25 23 -3 17 -5 17 -26 -7z"/>
<path d="M2128 1113 c7 -3 12 -25 12 -59 0 -89 2 -90 126 -91 78 -1 103 2 95
10 -6 6 -11 35 -11 63 0 44 3 54 20 59 11 3 24 3 30 0 14 -9 13 -108 -2 -123
-9 -9 -2 -12 32 -12 36 1 41 3 28 11 -13 7 -18 23 -18 58 0 51 18 78 45 67 19
-7 22 -122 3 -129 -7 -3 6 -6 30 -6 40 -1 42 0 28 15 -11 10 -16 34 -16 68 0
56 -12 76 -45 76 -12 0 -26 -5 -33 -12 -9 -9 -15 -9 -24 0 -15 15 -55 16 -64
1 -5 -8 -9 -8 -14 1 -5 7 -16 9 -29 5 -17 -5 -20 -10 -11 -20 14 -17 9 -117
-6 -122 -26 -9 -44 28 -44 88 0 58 -1 59 -27 58 -16 0 -22 -3 -15 -6 7 -3 12
-26 12 -63 0 -46 -4 -59 -17 -64 -26 -11 -43 21 -43 81 0 51 -1 53 -27 52 -16
0 -22 -3 -15 -6z"/>
<path d="M2568 1108 c7 -7 12 -37 12 -68 0 -31 5 -61 12 -68 15 -15 55 -16 64
-1 5 8 9 8 14 -1 5 -7 16 -9 30 -5 16 5 19 10 11 18 -6 6 -11 39 -11 74 0 62
-1 63 -27 63 -21 0 -24 -3 -15 -12 7 -7 12 -36 12 -64 0 -45 -3 -54 -21 -59
-30 -10 -39 9 -39 78 0 55 -1 57 -27 57 -21 0 -24 -3 -15 -12z"/>
<path d="M2856 1104 c-20 -20 -20 -34 0 -34 9 0 18 9 21 20 7 26 37 22 41 -5
2 -14 -8 -26 -35 -40 -31 -16 -38 -26 -38 -50 0 -30 0 -30 63 -31 60 -2 88 8
57 20 -11 4 -15 21 -15 59 0 29 -5 58 -12 65 -17 17 -64 15 -82 -4z m60 -110
c-7 -19 -35 -18 -43 3 -4 10 2 23 18 36 l24 19 3 -22 c2 -12 1 -28 -2 -36z"/>
<path d="M3098 1113 c-19 -5 -25 -23 -8 -23 15 0 13 -117 -2 -123 -7 -3 7 -5
32 -5 25 0 39 2 33 5 -9 3 -13 29 -13 79 0 76 -1 78 -42 67z"/>
<path d="M3207 1040 c20 -44 39 -80 43 -80 3 0 12 17 19 38 8 20 22 55 32 76
23 49 23 46 -2 46 -11 0 -17 -5 -14 -10 4 -6 -1 -31 -11 -56 l-18 -46 -18 47
c-10 25 -16 51 -13 56 4 5 -7 9 -24 9 l-30 0 36 -80z"/>
<path d="M3367 1108 c-37 -29 -42 -93 -9 -130 20 -24 67 -23 92 2 29 29 25 45
-6 21 -29 -23 -55 -16 -74 19 -16 30 -4 40 51 40 53 0 57 4 33 38 -17 25 -60
30 -87 10z m63 -28 c0 -6 -13 -10 -30 -10 -30 0 -43 24 -17 33 15 5 47 -10 47
-23z"/>
<path d="M1790 1040 c0 -5 18 -10 40 -10 22 0 40 5 40 10 0 6 -18 10 -40 10
-22 0 -40 -4 -40 -10z"/>
<path d="M6587 1013 c-4 -3 -7 -17 -7 -30 0 -18 6 -23 24 -23 30 0 40 24 20
45 -17 16 -27 19 -37 8z"/>
<path d="M4137 994 c-14 -14 -7 -35 11 -32 9 2 17 10 17 17 0 16 -18 25 -28
15z"/>
<path d="M5367 994 c-14 -14 -7 -35 11 -32 9 2 17 10 17 17 0 16 -18 25 -28
15z"/>
<path d="M830 770 c0 -7 1103 -10 3290 -10 2187 0 3290 3 3290 10 0 7 -1103
10 -3290 10 -2187 0 -3290 -3 -3290 -10z"/>
<path d="M2517 603 c-13 -12 -7 -33 8 -33 8 0 15 9 15 20 0 20 -11 26 -23 13z"/>
<path d="M2635 597 c-26 -9 -42 -45 -32 -72 4 -8 29 -31 57 -51 28 -20 50 -44
50 -54 0 -47 -71 -51 -92 -5 -14 31 -32 33 -24 3 3 -13 6 -28 6 -34 0 -14 95
-18 119 -4 23 12 35 54 21 79 -5 10 -30 32 -55 47 -50 32 -61 50 -44 70 18 22
39 17 70 -17 28 -30 29 -30 28 -8 0 13 -3 31 -7 39 -8 17 -57 20 -97 7z"/>
<path d="M4021 591 c-11 -11 -23 -33 -27 -48 -3 -16 -7 -33 -9 -39 -6 -20 16
-98 32 -116 9 -11 30 -18 50 -18 45 0 73 44 73 116 0 94 -69 155 -119 105z
m63 -101 c0 -85 -12 -126 -31 -106 -14 13 -16 172 -3 196 21 40 34 6 34 -90z"/>
<path d="M4276 589 c-14 -11 -26 -27 -26 -35 0 -12 5 -11 26 3 26 16 27 16 45
-5 23 -29 12 -65 -42 -126 -21 -24 -39 -47 -39 -50 0 -3 34 -6 75 -6 65 0 75
2 75 18 0 9 3 28 7 42 6 24 6 24 -14 8 -11 -10 -35 -18 -53 -18 l-34 0 41 43
c55 56 63 88 29 121 -31 31 -55 33 -90 5z"/>
<path d="M4504 591 c-58 -27 -84 -63 -84 -121 0 -63 28 -100 76 -100 45 0 74
29 74 75 0 39 -28 75 -60 75 -41 0 -20 34 46 77 31 19 -5 15 -52 -6z m6 -117
c13 -32 12 -65 0 -84 -9 -13 -12 -12 -25 4 -15 20 -21 87 -8 99 12 13 24 7 33
-19z"/>
<path d="M4638 592 c-40 -18 -49 -31 -20 -28 15 1 17 -10 20 -85 3 -81 1 -86
-20 -97 -19 -9 -12 -11 47 -11 66 -1 68 0 47 15 -20 14 -22 23 -22 120 0 57
-3 104 -7 103 -5 0 -25 -8 -45 -17z"/>
<path d="M5217 599 c-58 -34 -63 -189 -7 -219 75 -40 135 44 110 151 -16 67
-57 95 -103 68z m51 -104 c2 -90 -6 -124 -27 -111 -7 5 -11 45 -11 107 0 90 2
100 18 97 14 -3 17 -17 20 -93z"/>
<path d="M5453 584 c-14 -14 -23 -28 -20 -31 4 -3 14 2 23 11 23 24 48 16 52
-16 2 -19 -3 -30 -19 -38 -21 -12 -21 -12 9 -30 38 -24 45 -36 38 -66 -8 -29
-23 -30 -65 -6 -27 15 -33 15 -41 2 -33 -53 97 -54 137 -1 18 23 16 71 -4 93
-13 14 -14 21 -5 30 29 29 -3 78 -52 78 -16 0 -38 -11 -53 -26z"/>
<path d="M5625 579 c-30 -36 -27 -48 6 -25 30 21 59 5 59 -33 0 -20 -15 -47
-45 -84 -25 -31 -45 -58 -45 -62 0 -3 32 -5 72 -3 l72 3 7 33 c6 30 -3 43 -16
22 -3 -5 -22 -10 -42 -10 l-36 0 42 45 c49 53 56 103 19 129 -34 24 -63 19
-93 -15z"/>
<path d="M5822 538 c-29 -39 -52 -82 -52 -95 0 -20 5 -23 40 -23 36 0 40 -2
40 -25 0 -21 5 -25 30 -25 25 0 30 4 30 25 0 14 5 25 10 25 6 0 10 9 10 20 0
11 -4 20 -10 20 -6 0 -10 32 -10 75 0 66 -2 75 -18 75 -12 0 -39 -28 -70 -72z
m25 -75 c-3 -2 -17 -3 -31 -1 l-26 3 27 39 28 39 3 -38 c2 -20 1 -39 -1 -42z"/>
<path d="M6449 596 c-37 -18 -50 -54 -46 -123 4 -77 25 -105 75 -101 51 4 73
40 73 113 0 87 -47 139 -102 111z m50 -20 c6 -8 14 -36 17 -62 11 -92 -25
-160 -63 -121 -22 22 -25 155 -4 181 17 20 35 21 50 2z"/>
<path d="M6715 592 c-24 -13 -26 -17 -12 -20 15 -3 17 -16 17 -92 0 -74 -3
-91 -17 -99 -14 -8 -7 -10 31 -11 42 0 47 2 33 13 -13 10 -17 33 -19 119 l-3
106 -30 -16z"/>
<path d="M6873 595 c-28 -12 -43 -32 -43 -57 0 -6 11 1 25 16 27 29 29 30 56
16 37 -20 25 -70 -33 -136 l-51 -59 68 -3 c69 -3 84 4 85 37 0 12 -3 12 -12 3
-7 -7 -32 -12 -56 -12 l-45 0 45 48 c54 58 64 83 46 118 -17 35 -46 45 -85 29z"/>
<path d="M7049 596 c-37 -18 -50 -54 -46 -123 4 -77 25 -105 75 -101 51 4 73
40 73 113 0 87 -47 139 -102 111z m50 -20 c6 -8 14 -36 17 -62 11 -92 -25
-160 -63 -121 -22 22 -25 155 -4 181 17 20 35 21 50 2z"/>
<path d="M1040 586 c0 -8 -3 -21 -6 -30 -3 -9 -2 -16 4 -16 5 0 12 9 15 20 4
15 14 20 36 20 l31 0 0 -87 c0 -91 -4 -106 -30 -116 -8 -3 12 -5 45 -5 33 0
53 2 45 5 -26 10 -30 25 -30 116 l0 87 30 0 c22 0 33 -6 40 -22 8 -21 9 -20 9
10 l1 32 -95 0 c-75 0 -95 -3 -95 -14z"/>
<path d="M1921 568 c0 -33 0 -33 16 -10 9 12 26 22 39 22 24 0 24 -2 24 -95 0
-79 -3 -96 -17 -104 -14 -8 -5 -10 37 -10 42 0 51 2 38 10 -15 8 -18 25 -18
104 0 93 0 95 24 95 13 0 30 -10 39 -22 16 -23 16 -23 16 10 l1 32 -100 0
-100 0 1 -32z"/>
<path d="M2276 582 c8 -10 34 -60 57 -112 23 -51 46 -92 51 -92 6 0 27 45 48
99 21 54 46 104 55 111 14 10 10 12 -27 12 -37 0 -41 -2 -28 -12 15 -12 14
-19 -12 -83 l-28 -70 -31 68 c-35 77 -36 83 -18 90 6 3 -9 6 -35 6 -45 1 -47
0 -32 -17z"/>
<path d="M1255 524 c-7 -3 -9 -30 -7 -70 3 -49 1 -69 -9 -75 -9 -6 4 -8 36 -8
28 1 42 3 33 6 -15 4 -18 16 -18 64 0 59 0 59 30 59 17 0 30 5 30 10 0 17 -29
23 -45 10 -10 -9 -15 -9 -15 -1 0 11 -16 13 -35 5z"/>
<path d="M1378 519 c-21 -12 -24 -39 -4 -39 7 0 16 9 19 21 7 27 41 22 45 -6
2 -16 -7 -25 -37 -38 -44 -20 -56 -39 -41 -68 11 -20 54 -26 65 -9 4 7 11 8
18 2 7 -5 41 -10 77 -11 49 0 61 2 48 10 -13 7 -18 23 -18 58 0 51 18 78 45
67 19 -7 21 -106 3 -124 -9 -9 -3 -12 27 -12 30 0 36 3 27 12 -7 7 -12 38 -12
69 0 69 -16 89 -60 72 -18 -7 -30 -7 -32 -1 -2 5 -13 6 -27 0 -16 -6 -20 -11
-13 -16 7 -4 12 -32 12 -68 0 -51 -2 -59 -16 -54 -9 3 -20 6 -25 6 -5 0 -9 26
-9 58 0 32 -5 63 -12 70 -15 15 -57 15 -80 1z m50 -120 c-36 -23 -52 16 -17
44 l24 19 3 -27 c2 -16 -2 -32 -10 -36z"/>
<path d="M1696 514 c-23 -23 -20 -32 25 -74 42 -38 45 -60 7 -60 -11 0 -22 8
-25 20 -7 28 -23 25 -23 -5 0 -23 4 -25 45 -25 39 0 47 4 57 26 11 25 10 29
-22 55 -19 16 -38 29 -42 29 -15 0 -8 31 8 37 11 4 23 -2 35 -18 l19 -24 0 28
c0 24 -3 27 -34 27 -19 0 -42 -7 -50 -16z"/>
<path d="M2131 504 c-25 -32 -27 -81 -5 -112 21 -30 73 -30 102 1 30 32 28 43
-4 18 -36 -28 -84 -5 -84 41 0 15 8 18 50 18 54 0 65 14 32 43 -28 25 -67 21
-91 -9z m69 -10 c0 -9 -11 -14 -30 -14 -33 0 -39 14 -13 28 21 12 43 5 43 -14z"/>
<path d="M2508 523 c-19 -5 -25 -23 -8 -23 15 0 13 -117 -2 -123 -7 -3 7 -5
32 -5 25 0 39 2 33 5 -9 3 -13 29 -13 79 0 76 -1 78 -42 67z"/>
<path d="M1810 450 c0 -5 20 -10 45 -10 25 0 45 5 45 10 0 6 -20 10 -45 10
-25 0 -45 -4 -45 -10z"/>
<path d="M4170 415 c-18 -21 -5 -45 25 -45 20 0 25 5 25 24 0 13 -7 27 -16 30
-21 8 -20 8 -34 -9z"/>
<path d="M5362 421 c-21 -13 -10 -46 16 -49 27 -4 40 22 22 43 -14 17 -20 18
-38 6z"/>
<path d="M6593 395 c-7 -20 2 -29 21 -22 9 4 13 13 10 22 -8 19 -23 19 -31 0z"/>
<path d="M830 175 c0 -13 372 -15 3290 -15 2918 0 3290 2 3290 15 0 13 -372
15 -3290 15 -2918 0 -3290 -2 -3290 -15z"/>
</g>
</svg>
